<svg id="Layer_1" data-name="Layer 1" xmlns="http://www.w3.org/2000/svg" viewBox="0 0 70 70"><defs><style>.cls-1{fill:#fff5f5}.cls-2{fill:#fc3e59}</style></defs><path class="cls-1" d="M290 256a34 34 0 11-34-34 34 34 0 0134 34z" transform="translate(-221 -221)"/><path class="cls-2" d="M281.6 256c0-13.65-11.46-24.72-25.6-24.72s-25.6 11.07-25.6 24.72 11.46 24.72 25.6 24.72 25.6-11.07 25.6-24.72z" transform="translate(-221 -221)"/><path class="cls-1" d="M272.63 256c0-8.87-7.45-16.05-16.63-16.05s-16.63 7.18-16.63 16.05 7.45 16.05 16.63 16.05 16.63-7.18 16.63-16.05z" transform="translate(-221 -221)"/><path class="cls-2" d="M264 256a8 8 0 10-8 7.68 7.83 7.83 0 008-7.68z" transform="translate(-221 -221)"/><path d="M269.61 246.35l9.88 2.58a2.22 2.22 0 002.12-.57L288 242a2.21 2.21 0 00-.84-3.65l-7.09-2.42zm-3.83-3.83l-2.58-9.88a2.22 2.22 0 01.57-2.12l6.38-6.37a2.21 2.21 0 013.65.84l2.42 7.09z" transform="translate(-221 -221)" fill="#7c8388"/><path d="M276.22 232.08l3.83 3.83-21.83 21.7a2.71 2.71 0 01-3.83-3.83z" transform="translate(-221 -221)" fill="#27c7cd"/><path d="M288.49 242.93l.22-.22a3.23 3.23 0 00-1.24-5.35l-2.36-.81a35.3 35.3 0 00-9.55-9.58l-.79-2.31a3.24 3.24 0 00-5.35-1.24l-.17.17a34.92 34.92 0 1019.24 19.34zm-9.2-10.22a32 32 0 012.41 2.68l-1.09-.38-3.49-3.49-.39-1.12a32.74 32.74 0 012.56 2.31zm-25.63 25.63a3.74 3.74 0 005.28 0l3.82-3.79a6.32 6.32 0 01.17 1.45 6.94 6.94 0 11-6.93-6.65 7.71 7.71 0 011.28.11l-3.62 3.59a3.74 3.74 0 000 5.29zm2.34-11a8.71 8.71 0 109 8.71 8.32 8.32 0 00-.59-3.08l4.86-4.83a14.57 14.57 0 012.33 7.86c0 8.29-7 15-15.6 15s-15.6-6.74-15.6-15 7-15 15.6-15a16 16 0 017.79 2l-4.79 4.78a9.11 9.11 0 00-3-.49zm1.49 9.6a1.68 1.68 0 01-2.38-2.38l11.16-11.09a.8.8 0 00.24-.18l9.71-9.71 2.38 2.38zm14.21-32.36h.28a1.16 1.16 0 01.85.77l2.17 6.45-8.73 8.68-2.12-8.1a1.18 1.18 0 01.31-1.13l6.38-6.38a1.15 1.15 0 01.86-.34zm7.59 54.76a32.92 32.92 0 11-11.63-54.11l-4.61 4.61a3.36 3.36 0 00-.76 1.19 27.69 27.69 0 00-6.29-.73 27 27 0 00-18.26 7 1 1 0 001.39 1.52 25 25 0 0116.87-6.51 25.66 25.66 0 016.25.78l2.06 7.84a18.08 18.08 0 00-8.31-2c-9.74 0-17.66 7.66-17.66 17.08s7.92 17.08 17.66 17.08 17.66-7.66 17.66-17.08a16.54 16.54 0 00-2.11-8.08l7.68 2a4.85 4.85 0 00.55.09 23.13 23.13 0 01.79 6c0 13.06-11 23.69-24.57 23.69s-24.57-10.65-24.57-23.71a23 23 0 014.62-13.83 1 1 0 00-1.65-1.23 25 25 0 00-5 15.06c0 14.2 11.95 25.75 26.63 25.75s26.6-11.55 26.6-25.75a24.75 24.75 0 00-.86-6.47 2.7 2.7 0 00.56-.45l.66-.65a1 1 0 000-1.46 1 1 0 00-1.45 0l-.66.66a1.18 1.18 0 01-1.13.31l-8.14-2.13 8.72-8.72 6.47 2.21a1.16 1.16 0 01.77.85 1.14 1.14 0 01-.31 1.1l-2.33 2.33a1 1 0 000 1.45 1 1 0 001.46 0l.5-.51a33 33 0 01-7.6 34.77z" transform="translate(-221 -221)" fill="#1b2c38"/></svg>