<svg id="Logo" xmlns="http://www.w3.org/2000/svg" viewBox="0 0 140 91.79"><defs><style>.cls-1{fill:#152c39;}.cls-2{fill:#ff1653;}.cls-3{fill:#ffc900;}.cls-4{fill:#81d400;}.cls-5{fill:#00cbcf;}</style></defs><title>logo</title><path class="cls-1" d="M28.81,62.81l-8-4.14A63.39,63.39,0,0,1,37,38.66c10.26-8.55,28-17.82,54.37-13.43L89.71,34C46.5,26.79,29,62.46,28.81,62.81Z" transform="translate(0 -24.1)"/><path class="cls-2" d="M136.62,76.88c-1.15-1.31-2.31-2.55-3.47-3.76q-3.51-3.65-7-6.69c-26.68-23.12-52.61-21-53.84-20.91l.9,9.9c1-.09,22.82-1.67,45.94,18A94.8,94.8,0,0,1,126,80h0l13.94.26h0Z" transform="translate(0 -24.1)"/><path class="cls-3" d="M140,80.29,126.06,80h0c-17.38,15.82-35.27,24.44-53.32,25.73v10C94.62,114.4,116,103.69,136.51,83.8Z" transform="translate(0 -24.1)"/><path class="cls-4" d="M66.67,105.94a68,68,0,0,1-13-1.54C30.86,99.46,14,84.08,7.14,76.85L0,83.72c7.78,8.18,27.15,25.78,53.63,30.8a77.32,77.32,0,0,0,12.85,1.36l1.54,0c1.58,0,3.15-.06,4.72-.15v-10C70.72,105.9,68.7,106,66.67,105.94Z" transform="translate(0 -24.1)"/><circle class="cls-1" cx="72.74" cy="47.5" r="8.89"/><path class="cls-5" d="M72.74,97.82A26.22,26.22,0,1,1,99,71.61,26.24,26.24,0,0,1,72.74,97.82Zm0-40.66A14.45,14.45,0,1,0,87.18,71.61,14.46,14.46,0,0,0,72.74,57.16Z" transform="translate(0 -24.1)"/></svg>