<?xml version="1.0" encoding="utf-8"?>
<!-- Generator: Adobe Illustrator 27.5.0, SVG Export Plug-In . SVG Version: 6.00 Build 0)  -->
<svg version="1.1" xmlns="http://www.w3.org/2000/svg" xmlns:xlink="http://www.w3.org/1999/xlink" x="0px" y="0px"
	 viewBox="0 0 3710 3710" style="enable-background:new 0 0 3710 3710;" xml:space="preserve">
<g id="Background">
	<g>
		<g>
			<rect style="fill:#FFFFFF;" width="3710" height="3710"/>
		</g>
	</g>
</g>
<g id="Illustration">
	<g>
		<linearGradient id="SVGID_1_" gradientUnits="userSpaceOnUse" x1="3480.7917" y1="3629.603" x2="1543.908" y2="1567.7595">
			<stop  offset="0" style="stop-color:#B37CFF"/>
			<stop  offset="1" style="stop-color:#F895E7"/>
		</linearGradient>
		<path style="opacity:0.3;fill:url(#SVGID_1_);" d="M2899.244,2802.4c-71.502,73.702-135.479,117.026-184.462,149.733
			c-477.724,318.981-1023.815,227.043-1192.653,195.619c-272.399-50.699-502.341-86.465-699.903-264.954
			c-448.92-405.581-427.085-1251.654-84.056-1775.759c40.673-62.144,383.183-569.85,930.456-641.39
			c13.385-1.75,23.373-2.746,32.12-3.672c84.662-8.964,609.295-56.273,1037.081,302.126
			c61.236,51.303,159.781,143.84,251.165,284.975C3323.132,1565.13,3324.191,2364.382,2899.244,2802.4z"/>
		<g>
			
				<linearGradient id="SVGID_00000156561707962866714200000005018425260753998474_" gradientUnits="userSpaceOnUse" x1="-5354.8164" y1="1252.4657" x2="-7558.6265" y2="2930.4622" gradientTransform="matrix(-1 0 0 1 -4605.7437 0)">
				<stop  offset="0" style="stop-color:#2B3582"/>
				<stop  offset="1" style="stop-color:#150E42"/>
			</linearGradient>
			<path style="fill:url(#SVGID_00000156561707962866714200000005018425260753998474_);" d="M3122.765,1249.705l-2490.982-42.095
				c-100.288-1.694-180.783,84.321-174.823,186.814l85.742,1474.485c4.691,80.697,69.599,143.911,148.569,144.691l2394.436,23.679
				c59.142,0.586,108.006-47.101,110.259-107.601l57.288-1538.902C3256.089,1314.621,3197.206,1250.964,3122.765,1249.705z"/>
			
				<linearGradient id="SVGID_00000000916659363713955340000001923735460195481002_" gradientUnits="userSpaceOnUse" x1="-7582.7871" y1="3416.637" x2="-5070.5063" y2="417.4757" gradientTransform="matrix(-1 0 0 1 -4605.7437 0)">
				<stop  offset="0" style="stop-color:#53D8FF"/>
				<stop  offset="1" style="stop-color:#3840F7"/>
			</linearGradient>
			<path style="fill:url(#SVGID_00000000916659363713955340000001923735460195481002_);" d="M3084.581,1287.268L658.613,1247.22
				c-97.67-1.613-176.065,80.222-170.261,177.735l83.503,1402.829c4.571,76.776,67.784,136.917,144.692,137.66l2331.942,22.53
				c57.6,0.556,105.188-44.813,107.382-102.373l55.792-1464.117C3214.424,1349.029,3157.08,1288.465,3084.581,1287.268z"/>
			<path style="opacity:0.5;fill:#FFFFFF;" d="M3039.213,1335.621l-2310.097-38.136c-93.006-1.536-167.655,76.392-162.129,169.245
				l79.515,1335.828c4.352,73.109,64.547,130.377,137.781,131.086l2220.563,21.452c54.848,0.531,100.163-42.671,102.251-97.483
				l53.128-1394.186C3162.854,1394.431,3108.249,1336.761,3039.213,1335.621z"/>
			
				<linearGradient id="SVGID_00000080891618254164234790000008926453831994531990_" gradientUnits="userSpaceOnUse" x1="-6662.5381" y1="2189.7866" x2="-6022.0591" y2="-93.4552" gradientTransform="matrix(-1 0 0 1 -4605.7437 0)">
				<stop  offset="0" style="stop-color:#2B3582"/>
				<stop  offset="1" style="stop-color:#150E42"/>
			</linearGradient>
			<path style="fill:url(#SVGID_00000080891618254164234790000008926453831994531990_);" d="M653.008,1246.058l2436.135,40.217
				c72.803,1.202,130.388,62.02,127.615,134.779l-3.933,103.208H487.971l-5.935-99.725
				C476.207,1326.618,554.929,1244.439,653.008,1246.058z"/>
			<g style="opacity:0.85;">
				<path style="fill:#FFFFFF;" d="M3012.538,1336.163c0,12.1,9.81,21.91,21.911,21.91c12.101,0,21.911-9.81,21.911-21.91
					c0-12.101-9.81-21.911-21.911-21.911C3022.347,1314.252,3012.538,1324.062,3012.538,1336.163z"/>
				<path style="fill:#FFFFFF;" d="M3012.538,1400.365c0,12.101,9.81,21.911,21.911,21.911c12.101,0,21.911-9.81,21.911-21.911
					c0-12.101-9.81-21.911-21.911-21.911C3022.347,1378.455,3012.538,1388.265,3012.538,1400.365z"/>
				<path style="fill:#FFFFFF;" d="M3012.538,1464.569c0,12.101,9.81,21.911,21.911,21.911c12.101,0,21.911-9.81,21.911-21.911
					s-9.81-21.91-21.911-21.91C3022.347,1442.658,3012.538,1452.467,3012.538,1464.569z"/>
			</g>
			<g style="opacity:0.49;">
				<path style="fill:#FFFFFF;" d="M2679.341,2145.42h262.755c35.898,0,64.498,30.032,62.742,65.889l-29.9,610.656
					c-1.639,33.458-29.245,59.745-62.743,59.745h-232.854c-34.693,0-62.816-28.125-62.816-62.816v-610.656
					C2616.525,2173.543,2644.648,2145.42,2679.341,2145.42z"/>
				<path style="fill:#FFFFFF;" d="M2047.339,1591.336l922.161,14.243c35.513,0.548,63.509,30.407,61.771,65.881l-15.354,313.588
					c-1.638,33.458-29.244,59.746-62.742,59.746h-906.806c-34.692,0-62.816-28.125-62.816-62.818v-327.829
					C1983.552,1619.074,2012.271,1590.795,2047.339,1591.336z"/>
				<path style="fill:#FFFFFF;" d="M2046.368,2145.42h429.434c34.693,0,62.817,28.124,62.817,62.818v610.656
					c0,34.692-28.124,62.816-62.817,62.816h-429.434c-34.692,0-62.816-28.125-62.816-62.816v-610.656
					C1983.552,2173.543,2011.676,2145.42,2046.368,2145.42z"/>
			</g>
			<g>
				
					<ellipse transform="matrix(0.7071 -0.7071 0.7071 0.7071 -756.3784 1698.7592)" style="fill:#FFFFFF;" cx="1672.395" cy="1762.409" rx="157.74" ry="157.74"/>
				
					<ellipse transform="matrix(0.7071 -0.7071 0.7071 0.7071 -871.2017 1421.551)" style="fill:#FFFFFF;" cx="1280.363" cy="1762.409" rx="157.74" ry="157.74"/>
				
					<ellipse transform="matrix(0.7071 -0.7071 0.7071 0.7071 -989.6755 1145.8556)" style="fill:#FFFFFF;" cx="888.332" cy="1767.572" rx="157.741" ry="157.741"/>
				<g>
					
						<linearGradient id="SVGID_00000097499272921504026780000001090276851994582688_" gradientUnits="userSpaceOnUse" x1="2171.1487" y1="1514.0829" x2="567.1743" y2="2351.3767">
						<stop  offset="0" style="stop-color:#53D8FF"/>
						<stop  offset="1" style="stop-color:#3840F7"/>
					</linearGradient>
					<path style="fill:url(#SVGID_00000097499272921504026780000001090276851994582688_);" d="M1578.666,1729.072
						c-4.883,11.872-7.592,24.867-7.592,38.5c0,55.96,45.362,101.322,101.321,101.322c55.958,0,101.321-45.363,101.321-101.322
						c0-55.957-45.362-101.321-101.321-101.321c-1.714,0-3.418,0.047-5.111,0.13v-25.684c1.696-0.067,3.398-0.11,5.111-0.11
						c70.133,0,126.986,56.853,126.986,126.986c0,70.133-56.854,126.987-126.986,126.987c-70.133,0-126.987-56.854-126.987-126.987
						c0-17.268,3.453-33.729,9.697-48.737L1578.666,1729.072z"/>
					
						<linearGradient id="SVGID_00000039823309070016991780000013781356134356353462_" gradientUnits="userSpaceOnUse" x1="2087.5667" y1="1353.9668" x2="483.5916" y2="2191.261">
						<stop  offset="0" style="stop-color:#53D8FF"/>
						<stop  offset="1" style="stop-color:#3840F7"/>
					</linearGradient>
					<path style="fill:url(#SVGID_00000039823309070016991780000013781356134356353462_);" d="M1228.097,1853.297
						c15.631,9.866,34.135,15.597,53.986,15.597c55.958,0,101.321-45.363,101.321-101.322c0-55.957-45.363-101.321-101.321-101.321
						c-1.714,0-3.418,0.047-5.11,0.13v-25.684c1.696-0.067,3.397-0.11,5.11-0.11c70.133,0,126.986,56.853,126.986,126.986
						c0,70.133-56.853,126.987-126.986,126.987c-24.477,0-47.331-6.931-66.72-18.929L1228.097,1853.297z"/>
					
						<linearGradient id="SVGID_00000031202577299473764230000016133717099502441911_" gradientUnits="userSpaceOnUse" x1="2003.0861" y1="1192.1271" x2="399.11" y2="2029.4219">
						<stop  offset="0" style="stop-color:#53D8FF"/>
						<stop  offset="1" style="stop-color:#3840F7"/>
					</linearGradient>
					<path style="fill:url(#SVGID_00000031202577299473764230000016133717099502441911_);" d="M803.781,1824.539
						c18.236,26.77,48.957,44.355,83.792,44.355c55.958,0,101.321-45.363,101.321-101.322c0-55.957-45.362-101.321-101.321-101.321
						c-1.714,0-3.418,0.047-5.111,0.13v-25.684c1.696-0.067,3.398-0.11,5.111-0.11c70.133,0,126.987,56.853,126.987,126.986
						c0,70.133-56.854,126.987-126.987,126.987c-43.387,0-81.684-21.764-104.59-54.963L803.781,1824.539z"/>
				</g>
				<g style="opacity:0.64;">
					<path style="fill:#FFFFFF;" d="M1543.868,1986.968h257.052c16.136,0,29.215,13.08,29.215,29.215
						c0,16.134-13.079,29.213-29.215,29.213h-257.052c-16.135,0-29.215-13.079-29.215-29.213
						C1514.653,2000.048,1527.733,1986.968,1543.868,1986.968z"/>
					<path style="fill:#FFFFFF;" d="M1151.838,1986.968h257.052c16.135,0,29.214,13.08,29.214,29.215
						c0,16.134-13.079,29.213-29.214,29.213h-257.052c-16.135,0-29.214-13.079-29.214-29.213
						C1122.623,2000.048,1135.702,1986.968,1151.838,1986.968z"/>
					<path style="fill:#FFFFFF;" d="M1016.858,2045.396H759.806c-16.134,0-29.214-13.079-29.214-29.213
						c0-16.135,13.079-29.215,29.214-29.215h257.052c16.134,0,29.215,13.08,29.215,29.215
						C1046.073,2032.317,1032.992,2045.396,1016.858,2045.396z"/>
					<path style="fill:#FFFFFF;" d="M1543.868,2077.856h257.052c16.136,0,29.215,13.08,29.215,29.215v172.038
						c0,16.135-13.079,29.215-29.215,29.215h-257.052c-16.135,0-29.215-13.08-29.215-29.215v-172.038
						C1514.653,2090.936,1527.733,2077.856,1543.868,2077.856z"/>
					<path style="fill:#FFFFFF;" d="M1151.838,2077.856h257.052c16.135,0,29.214,13.08,29.214,29.215v172.038
						c0,16.135-13.079,29.215-29.214,29.215h-257.052c-16.135,0-29.214-13.08-29.214-29.215v-172.038
						C1122.623,2090.936,1135.702,2077.856,1151.838,2077.856z"/>
					<path style="fill:#FFFFFF;" d="M759.806,2077.856h257.052c16.134,0,29.215,13.08,29.215,29.215v172.038
						c0,16.135-13.082,29.215-29.215,29.215H759.806c-16.134,0-29.214-13.08-29.214-29.215v-172.038
						C730.592,2090.936,743.672,2077.856,759.806,2077.856z"/>
				</g>
			</g>
			
				<linearGradient id="SVGID_00000119085601350149711230000008134429881524211346_" gradientUnits="userSpaceOnUse" x1="2574.5061" y1="2004.3981" x2="1616.2042" y2="3835.2573">
				<stop  offset="0" style="stop-color:#53D8FF"/>
				<stop  offset="1" style="stop-color:#3840F7"/>
			</linearGradient>
			<path style="fill:url(#SVGID_00000119085601350149711230000008134429881524211346_);" d="M2488.583,2538.515v231.827
				c0,36.248-29.384,65.632-65.633,65.632h-317.515c-37.228,0-67.407-30.178-67.407-67.405v-349.054
				c0-29.375,36.265-43.231,55.851-21.339l61.358,68.578c23.618,26.396,63.598,30.108,91.673,8.511l5.875-4.519
				c21.652-16.657,52.002-15.914,72.814,1.782l33.604,28.573c25.87,21.996,62.018,27.316,93.128,13.706l0,0
				C2469.429,2507.326,2488.583,2519.853,2488.583,2538.515z"/>
			<g style="opacity:0.54;">
				
					<rect x="1694.26" y="2629.848" transform="matrix(-1 -1.224647e-16 1.224647e-16 -1 3439.5474 5490.6509)" style="fill:#FFFFFF;" width="51.028" height="230.955"/>
				
					<rect x="1608.999" y="2709.223" transform="matrix(-1 -1.224647e-16 1.224647e-16 -1 3269.0244 5570.0264)" style="fill:#FFFFFF;" width="51.027" height="151.58"/>
				
					<rect x="1523.736" y="2513.051" transform="matrix(-1 -1.224647e-16 1.224647e-16 -1 3098.4995 5373.854)" style="fill:#FFFFFF;" width="51.027" height="347.752"/>
				
					<rect x="1438.474" y="2777.26" transform="matrix(-1 -1.224647e-16 1.224647e-16 -1 2927.9753 5638.0625)" style="fill:#FFFFFF;" width="51.027" height="83.543"/>
				
					<rect x="1353.212" y="2559.543" transform="matrix(-1 -1.224647e-16 1.224647e-16 -1 2757.4519 5420.3462)" style="fill:#FFFFFF;" width="51.028" height="301.26"/>
				
					<rect x="1267.949" y="2611.704" transform="matrix(-1 -1.224647e-16 1.224647e-16 -1 2586.9275 5472.5073)" style="fill:#FFFFFF;" width="51.029" height="249.099"/>
				
					<rect x="1182.688" y="2668.402" transform="matrix(-1 -1.224647e-16 1.224647e-16 -1 2416.4033 5529.2051)" style="fill:#FFFFFF;" width="51.027" height="192.401"/>
				
					<rect x="1097.427" y="2442.747" transform="matrix(-1 -1.224647e-16 1.224647e-16 -1 2245.8799 5303.5498)" style="fill:#FFFFFF;" width="51.027" height="418.056"/>
				
					<rect x="1012.164" y="2486.971" transform="matrix(-1 -1.224647e-16 1.224647e-16 -1 2075.3562 5347.7739)" style="fill:#FFFFFF;" width="51.028" height="373.832"/>
				
					<rect x="926.902" y="2553.874" transform="matrix(-1 -1.224647e-16 1.224647e-16 -1 1904.8314 5414.6768)" style="fill:#FFFFFF;" width="51.028" height="306.929"/>
				
					<rect x="841.641" y="2785.013" transform="matrix(-1 -1.224647e-16 1.224647e-16 -1 1734.3076 5645.8164)" style="fill:#FFFFFF;" width="51.027" height="75.79"/>
				
					<rect x="756.378" y="2637.785" transform="matrix(-1 -1.224647e-16 1.224647e-16 -1 1563.7834 5498.5884)" style="fill:#FFFFFF;" width="51.027" height="223.018"/>
			</g>
			<path style="opacity:0.54;fill:#FFFFFF;" d="M1675.28,2445.731h234.146c10.285,0,18.625,8.339,18.625,18.626
				c0,10.285-8.339,18.625-18.625,18.625H1675.28c-10.286,0-18.625-8.34-18.625-18.625
				C1656.655,2454.071,1664.994,2445.731,1675.28,2445.731z"/>
			<path style="opacity:0.54;fill:#FFFFFF;" d="M1675.28,2387.449h234.146c10.285,0,18.625,8.339,18.625,18.625
				c0,10.285-8.339,18.625-18.625,18.625H1675.28c-10.286,0-18.625-8.339-18.625-18.625
				C1656.655,2395.788,1664.994,2387.449,1675.28,2387.449z"/>
			<path style="opacity:0.54;fill:#FFFFFF;" d="M1252.868,2445.731h234.146c10.286,0,18.624,8.339,18.624,18.626
				c0,10.285-8.339,18.625-18.624,18.625h-234.146c-10.287,0-18.626-8.34-18.626-18.625
				C1234.242,2454.071,1242.581,2445.731,1252.868,2445.731z"/>
			<path style="opacity:0.54;fill:#FFFFFF;" d="M1252.868,2387.449h234.146c10.286,0,18.624,8.339,18.624,18.625
				c0,10.285-8.339,18.625-18.624,18.625h-234.146c-10.287,0-18.626-8.339-18.626-18.625
				C1234.242,2395.788,1242.581,2387.449,1252.868,2387.449z"/>
		</g>
		<g>
			
				<linearGradient id="SVGID_00000106830770519212086620000004094065879562546339_" gradientUnits="userSpaceOnUse" x1="964.2295" y1="3013.9705" x2="563.6689" y2="3449.6685">
				<stop  offset="0" style="stop-color:#CB236D"/>
				<stop  offset="1" style="stop-color:#4C246D"/>
			</linearGradient>
			<path style="fill:url(#SVGID_00000106830770519212086620000004094065879562546339_);" d="M837.612,3046.427
				c0,0-4.148,23.484-6.182,46.731c-0.795,9.085,6.21,16.974,15.322,17.354c30.958,1.289,97.178,3.797,120.941,2.736
				c3.572-0.159,5.907-3.816,4.585-7.139c-1.108-2.783-3.244-5.034-5.967-6.285l-109.384-50.273L837.612,3046.427z"/>
			
				<linearGradient id="SVGID_00000142144627301815178340000003737066278671642285_" gradientUnits="userSpaceOnUse" x1="834.2137" y1="3046.3306" x2="869.7934" y2="3046.3306">
				<stop  offset="0" style="stop-color:#F9B776"/>
				<stop  offset="1" style="stop-color:#F47960"/>
			</linearGradient>
			<path style="fill:url(#SVGID_00000142144627301815178340000003737066278671642285_);" d="M834.214,3032.629l3.332,28.09
				c0,0,19.162,8.92,32.247-1.125l-7.935-31.303L834.214,3032.629z"/>
			
				<linearGradient id="SVGID_00000033335928055904859920000009095803798921590410_" gradientUnits="userSpaceOnUse" x1="749.8455" y1="2774.2764" x2="867.4899" y2="2774.2764">
				<stop  offset="0" style="stop-color:#2B3582"/>
				<stop  offset="1" style="stop-color:#150E42"/>
			</linearGradient>
			<path style="fill:url(#SVGID_00000033335928055904859920000009095803798921590410_);" d="M836.719,2504.523
				c-1.44,7.336-7.728,366.064,30.618,526.822c0.626,2.623-0.704,5.327-3.2,6.347c-5.882,2.403-17.412,5.883-31.229,6.347
				c-4.279,0.144-8.115-2.638-9.323-6.745c-10.961-37.298-63.484-224.174-70.336-402.691c-7.656-199.475,0-6.792,0-6.792
				l4.491-123.303L836.719,2504.523z"/>
			
				<linearGradient id="SVGID_00000062189742260654314160000005835480015313900456_" gradientUnits="userSpaceOnUse" x1="874.3704" y1="2931.3582" x2="473.8099" y2="3367.0559">
				<stop  offset="0" style="stop-color:#CB236D"/>
				<stop  offset="1" style="stop-color:#4C246D"/>
			</linearGradient>
			<path style="fill:url(#SVGID_00000062189742260654314160000005835480015313900456_);" d="M711.784,3058.679
				c0,0-6.603,11.855-12.996,43.359c-1.154,5.689,2.821,11.135,8.598,11.703c10.222,1.005,25.959,2.297,38.565,2.211
				c5.811-0.04,10.347-5.1,9.646-10.869c-1.396-11.499-5.746-30.365-19.184-45.07L711.784,3058.679z"/>
			
				<linearGradient id="SVGID_00000107576287121193703130000006993740884954421690_" gradientUnits="userSpaceOnUse" x1="705.9848" y1="3044.5056" x2="736.7046" y2="3044.5056">
				<stop  offset="0" style="stop-color:#F9B776"/>
				<stop  offset="1" style="stop-color:#F47960"/>
			</linearGradient>
			<path style="fill:url(#SVGID_00000107576287121193703130000006993740884954421690_);" d="M705.985,3022.549l7.787,42.48
				c0,0,7.7,5.727,22.932,1.575l-3.717-45.706L705.985,3022.549z"/>
			
				<linearGradient id="SVGID_00000083807831329598838480000002678788647369138059_" gradientUnits="userSpaceOnUse" x1="672.8735" y1="2770.427" x2="839.8904" y2="2770.427">
				<stop  offset="0" style="stop-color:#2B3582"/>
				<stop  offset="1" style="stop-color:#150E42"/>
			</linearGradient>
			<path style="fill:url(#SVGID_00000083807831329598838480000002678788647369138059_);" d="M684.946,2515.532
				c-31.361,189.268,6.803,467.792,19.674,522.305c0.788,3.337,3.482,5.894,6.864,6.455c5.746,0.953,15.205,1.729,24.53-0.979
				c3.212-0.933,5.47-3.832,5.601-7.175c1.727-44.073-1.382-314.637,27.841-421.565c1.481-5.419,4.79-10.145,9.368-13.399
				l56.717-40.321l4.348-65.176L684.946,2515.532z"/>
			<g>
				
					<linearGradient id="SVGID_00000025440279604548313760000004864049316830046361_" gradientUnits="userSpaceOnUse" x1="862.0532" y1="2182.6028" x2="519.0635" y2="3036.7122">
					<stop  offset="0" style="stop-color:#FDF53F"/>
					<stop  offset="0.6645" style="stop-color:#E57A58"/>
					<stop  offset="1" style="stop-color:#D93C65"/>
				</linearGradient>
				<path style="fill:url(#SVGID_00000025440279604548313760000004864049316830046361_);" d="M884.782,2156.905
					c-93.984-1.553-197.685,24.677-197.685,24.677c-28.014,163.465-4.898,352.01-4.898,352.01
					c72.76,19.081,154.837-11.666,154.837-11.666c12.093-68.324,68.517-260.612,68.517-260.612
					c45.921-5.699,83.749-18.948,114.901-36.464c-23.762-27.544-34.964-62.592-39.83-83.31
					C947.395,2151.868,913.77,2157.384,884.782,2156.905z"/>
				
					<linearGradient id="SVGID_00000136405226189198952990000013285992173422755509_" gradientUnits="userSpaceOnUse" x1="980.6237" y1="2118.1001" x2="1162.3943" y2="2118.1001">
					<stop  offset="0" style="stop-color:#F9B776"/>
					<stop  offset="1" style="stop-color:#F47960"/>
				</linearGradient>
				<path style="fill:url(#SVGID_00000136405226189198952990000013285992173422755509_);" d="M1162.394,2018.472
					c-9.233-11.151-20.917-5.876-20.917-5.876c-13.831,58.422-86.35,105.792-160.853,128.946
					c4.866,20.718,16.068,55.766,39.83,83.31C1144.098,2155.331,1162.394,2018.472,1162.394,2018.472z"/>
			</g>
			<g>
				
					<linearGradient id="SVGID_00000104686823796545197660000013483469562000065692_" gradientUnits="userSpaceOnUse" x1="9325.876" y1="2087.6309" x2="9447.8486" y2="2365.1455" gradientTransform="matrix(-1 0 0 1 10447.7783 0)">
					<stop  offset="0" style="stop-color:#F9B776"/>
					<stop  offset="1" style="stop-color:#F47960"/>
				</linearGradient>
				<path style="fill:url(#SVGID_00000104686823796545197660000013483469562000065692_);" d="M1160.153,2021.307
					c0.966,3.071-10.221,7.747-16.808-4.813c-0.231-6.02-3.891-31.81-0.294-36.714c19.158-26.119,56.301-58.861,56.301-58.861
					c6.277,6.194,1.105,12.279,1.105,12.279l-18.018,18.771c3.768,6.811,8.366,12.559,10.52,20.798
					c1.632,6.239,0.634,12.906-2.518,18.583c-3.163,5.698-7.478,13.105-11.557,18.902
					C1171.164,2021.225,1160.153,2021.307,1160.153,2021.307z"/>
				
					<linearGradient id="SVGID_00000171682393168538708480000015162275181275432843_" gradientUnits="userSpaceOnUse" x1="1161.5217" y1="1995.2086" x2="1212.4156" y2="1916.9591">
					<stop  offset="0" style="stop-color:#F9B776"/>
					<stop  offset="1" style="stop-color:#F47960"/>
				</linearGradient>
				<path style="fill:url(#SVGID_00000171682393168538708480000015162275181275432843_);" d="M1174.559,1964.149l-16.42,13.92
					l-5.155,13.859l14.64,16.241c0,0,4.922-27.498,8.581-33.45C1179.863,1968.767,1177.965,1965.889,1174.559,1964.149z"/>
			</g>
			
				<linearGradient id="SVGID_00000163777616325983820460000010276740988632651173_" gradientUnits="userSpaceOnUse" x1="720.5725" y1="2125.7878" x2="377.5831" y2="2979.8965">
				<stop  offset="0" style="stop-color:#FDF53F"/>
				<stop  offset="0.6645" style="stop-color:#E57A58"/>
				<stop  offset="1" style="stop-color:#D93C65"/>
			</linearGradient>
			<path style="fill:url(#SVGID_00000163777616325983820460000010276740988632651173_);" d="M723.146,2272.586l-36.049-91.004
				c0,0-87.786,59.647-102.222,135.273c16.587,1.221,46.77,5.536,76.314,20.453C667.68,2301.6,723.146,2272.586,723.146,2272.586z"
				/>
			
				<linearGradient id="SVGID_00000047760416993624428030000009298962176912228027_" gradientUnits="userSpaceOnUse" x1="582.8728" y1="2375.573" x2="812.9048" y2="2375.573">
				<stop  offset="0" style="stop-color:#F9B776"/>
				<stop  offset="1" style="stop-color:#F47960"/>
			</linearGradient>
			<path style="fill:url(#SVGID_00000047760416993624428030000009298962176912228027_);" d="M799.861,2358.219
				c0,0-98.562,55.702-131.818,8.139c-6.905-9.877-8.555-19.691-6.855-29.049c-29.544-14.917-59.727-19.232-76.314-20.453
				c-4.353,22.798-2.052,47.046,11.345,71.553c58.254,106.562,216.686-5.889,216.686-5.889L799.861,2358.219z"/>
			<g>
				
					<linearGradient id="SVGID_00000179639867668739904630000017382594933526090396_" gradientUnits="userSpaceOnUse" x1="882.4976" y1="2212.0273" x2="1008.9837" y2="2739.0544">
					<stop  offset="0" style="stop-color:#2B3582"/>
					<stop  offset="1" style="stop-color:#150E42"/>
				</linearGradient>
				<path style="fill:url(#SVGID_00000179639867668739904630000017382594933526090396_);" d="M788.018,2428.688l53.791-187.851
					c0.611-2.133,2.43-3.688,4.633-3.945c9.746-1.137,37.987-4.329,70.593-7.087c39.275-3.322,84.886-6.014,112.141-3.724
					c3.874,0.325,6.216,4.424,4.493,7.909c-15.499,31.357-79.252,158.907-111.177,200.691c-1.058,1.385-2.694,2.194-4.436,2.177
					l-124.805-1.161C789.62,2435.664,787.019,2432.18,788.018,2428.688z"/>
				
					<linearGradient id="SVGID_00000093857489752184142030000001473911988422331030_" gradientUnits="userSpaceOnUse" x1="961.6901" y1="2128.9541" x2="934.752" y2="2247.2473">
					<stop  offset="0" style="stop-color:#53D8FF"/>
					<stop  offset="1" style="stop-color:#3840F7"/>
				</linearGradient>
				<path style="fill:url(#SVGID_00000093857489752184142030000001473911988422331030_);" d="M922.615,2213.519l39-6.498
					c2.077-0.346,3.778,1.638,3.119,3.638l-3.861,11.698c-0.337,1.019-1.225,1.756-2.288,1.898l-37.529,5.013
					c-1.942,0.259-3.543-1.505-3.096-3.412l2.39-10.214C920.607,2214.542,921.501,2213.704,922.615,2213.519z"/>
				
					<linearGradient id="SVGID_00000022530233657059387130000016131900727565960093_" gradientUnits="userSpaceOnUse" x1="947.5917" y1="2178.574" x2="934.7083" y2="2255.8752">
					<stop  offset="0" style="stop-color:#53D8FF"/>
					<stop  offset="1" style="stop-color:#3840F7"/>
				</linearGradient>
				<path style="fill:url(#SVGID_00000022530233657059387130000016131900727565960093_);" d="M893.413,2246.535l3.212-16.735
					c0.323-1.678,1.709-2.947,3.409-3.12l78.77-7.993c2.652-0.269,4.774,2.161,4.152,4.752l-5.008,20.854
					c-0.401,1.668-1.853,2.873-3.567,2.96l-76.975,3.875C894.901,2251.253,892.94,2248.999,893.413,2246.535z"/>
				
					<linearGradient id="SVGID_00000101083519176457056290000008416387942545490865_" gradientUnits="userSpaceOnUse" x1="795.8259" y1="2351.4541" x2="867.4901" y2="2351.4541">
					<stop  offset="0" style="stop-color:#F9B776"/>
					<stop  offset="1" style="stop-color:#F47960"/>
				</linearGradient>
				<path style="fill:url(#SVGID_00000101083519176457056290000008416387942545490865_);" d="M801.015,2383.303
					c0,0-7.493-30.812-4.47-41.743c3.022-10.932,8.878-24.987,28.399-21.863c19.521,3.123,42.547,11.346,42.547,11.346
					s-1.163,14.239-15.999,9.645l9.2,7.118c0,0-1.315,11.401-13.847,5.31l8.557,9.44c0,0-5.382,9.364-14.601,3.358
					C831.58,2359.91,827.161,2387.013,801.015,2383.303z"/>
			</g>
			
				<linearGradient id="SVGID_00000063598535863888212400000006785874632414321048_" gradientUnits="userSpaceOnUse" x1="759.5051" y1="2129.6548" x2="850.4521" y2="2129.6548">
				<stop  offset="0" style="stop-color:#F9B776"/>
				<stop  offset="1" style="stop-color:#F47960"/>
			</linearGradient>
			<path style="fill:url(#SVGID_00000063598535863888212400000006785874632414321048_);" d="M789.583,2080.605l-29.904,86.48
				c-0.496,1.433,0.094,3.02,1.42,3.753c8.152,4.507,37.52,17.534,72.912-4.905c3.687-2.337,6.196-6.15,6.757-10.479l9.684-74.849
				H789.583z"/>
			<g>
				
					<linearGradient id="SVGID_00000083072344192193774990000009578259552995194026_" gradientUnits="userSpaceOnUse" x1="-5088.4253" y1="-688.2225" x2="-5122.4111" y2="-800.3163" gradientTransform="matrix(0.746 -0.6659 0.6659 0.746 5126.3354 -803.1727)">
					<stop  offset="0" style="stop-color:#F9B776"/>
					<stop  offset="1" style="stop-color:#F47960"/>
				</linearGradient>
				<path style="fill:url(#SVGID_00000083072344192193774990000009578259552995194026_);" d="M854.651,2000.521
					c0,0,32.838,61.814,28.629,86.784c-4.21,24.969-44.907,23.177-80.446,2.897l-24.834-66.745L854.651,2000.521z"/>
				
					<linearGradient id="SVGID_00000137105586015563670490000008481731508296860044_" gradientUnits="userSpaceOnUse" x1="-5119.0869" y1="-883.5291" x2="-5090.6582" y2="-721.3784" gradientTransform="matrix(0.746 -0.6659 0.6659 0.746 5126.3354 -803.1727)">
					<stop  offset="0" style="stop-color:#2B3582"/>
					<stop  offset="1" style="stop-color:#150E42"/>
				</linearGradient>
				<path style="fill:url(#SVGID_00000137105586015563670490000008481731508296860044_);" d="M804.405,2057.423
					c1.444-0.639,1.977-2.406,1.112-3.728c-2.631-4.019-7.563-12.219-9.136-19.397c0,0-5.904-3.781,15.025-8.79
					c20.928-5.009,52.138-12.785,58.698-30.598c6.396-17.368-10.409-61.046-37.219-26.244c-1.02,1.324-3.018,1.354-4.037,0.028
					c-4.395-5.72-15.95-17.594-31.993-10.396c-15.012,6.736-16.704,17.737-16.497,23.281c0.06,1.632-1.398,2.9-3.001,2.593
					c-7.591-1.447-25.805-2.691-34.306,15.994c-7.003,15.391-2.451,24.103,1.694,28.364c1.343,1.38,0.754,3.653-1.087,4.217
					c-4.989,1.527-11.431,5.756-10.786,17.444c0.892,16.156,18.956,14.734,24.1,13.997c0.842-0.121,1.691,0.168,2.262,0.799
					c4.411,4.88,24.279,25.603,45.784,28.1c1.862,0.216,3.305-1.623,2.695-3.396l-9.306-27.052
					c-0.433-1.256,0.169-2.635,1.383-3.173L804.405,2057.423z"/>
				
					<linearGradient id="SVGID_00000037658700591658291470000005430519565819942562_" gradientUnits="userSpaceOnUse" x1="-5123.1665" y1="-688.7443" x2="-5153.7446" y2="-789.5973" gradientTransform="matrix(0.746 -0.6659 0.6659 0.746 5126.3354 -803.1727)">
					<stop  offset="0" style="stop-color:#F9B776"/>
					<stop  offset="1" style="stop-color:#F47960"/>
				</linearGradient>
				<path style="fill:url(#SVGID_00000037658700591658291470000005430519565819942562_);" d="M808.146,2061.263
					c0,0-23.381-16.042-25.089-2.532c-1.709,13.509,21.054,19.568,32.33,14.531L808.146,2061.263z"/>
			</g>
		</g>
		<g>
			
				<linearGradient id="SVGID_00000040573463775915751020000003232635827576662172_" gradientUnits="userSpaceOnUse" x1="2406.1287" y1="1049.5912" x2="2478.8523" y2="1232.0164">
				<stop  offset="0" style="stop-color:#2B3582"/>
				<stop  offset="1" style="stop-color:#150E42"/>
			</linearGradient>
			<path style="fill:url(#SVGID_00000040573463775915751020000003232635827576662172_);" d="M2449.25,1147.721
				c0,0,24.517,11.925,29.025,25.624c3.617,10.992,30.726,12.409,33.404,34.026c1.383,11.161,9.643,20.1,20.759,21.804
				c27.687,4.244,70.356,18.621,77.183,66.693c5.211,36.692-13.494,50.606-33.125,55.422c-14.418,3.537-24,17.561-21.083,32.117
				c2.797,13.962-1.374,30.102-25.562,42.866c-54.204,28.601-108.334-67.759-108.334-67.759l-11.094-168.25L2449.25,1147.721z"/>
			
				<linearGradient id="SVGID_00000044883286609241006490000008164627284936446655_" gradientUnits="userSpaceOnUse" x1="1928.9622" y1="940.8765" x2="2063.3118" y2="1246.5522" gradientTransform="matrix(0.9951 0.0992 -0.0992 0.9951 452.2618 21.8756)">
				<stop  offset="0" style="stop-color:#F9B776"/>
				<stop  offset="1" style="stop-color:#F47960"/>
			</linearGradient>
			<path style="fill:url(#SVGID_00000044883286609241006490000008164627284936446655_);" d="M2226.27,1047.827
				c0,0,50.547,196.113,162.911,267.031c0,0-45.76,60.297-66.689,62.146c0,0-110.215-174.276-109.892-308.024L2226.27,1047.827z"/>
			
				<linearGradient id="SVGID_00000065759552332028919580000011760145503722449330_" gradientUnits="userSpaceOnUse" x1="2671.9746" y1="2217.4961" x2="2733.6411" y2="2217.4961">
				<stop  offset="0" style="stop-color:#A737D5"/>
				<stop  offset="1" style="stop-color:#EF497A"/>
			</linearGradient>
			<path style="fill:url(#SVGID_00000065759552332028919580000011760145503722449330_);" d="M2672.048,2202.707l3.507,28.835
				c0.666,5.47,4.973,9.795,10.447,10.421c9.244,1.056,24.077,2.138,38.591,0.604c6.37-0.673,10.506-7.124,8.566-13.229
				c-3.538-11.131-10.011-27.841-19.343-37.675h-31.987C2675.916,2191.663,2671.334,2196.836,2672.048,2202.707z"/>
			
				<linearGradient id="SVGID_00000161627920871347979140000006295767132265109420_" gradientUnits="userSpaceOnUse" x1="2411.4009" y1="2460.6758" x2="2500.1438" y2="1423.4935">
				<stop  offset="0" style="stop-color:#F9B776"/>
				<stop  offset="1" style="stop-color:#F47960"/>
			</linearGradient>
			<path style="fill:url(#SVGID_00000161627920871347979140000006295767132265109420_);" d="M2421.516,1864.925l-5.399,31.759
				c0,0,18.08,183.134,21.296,256.386c0.504,11.484-2.467,22.834-8.495,32.622l-31.438,51.052l79.898-47.147l1.591-9.75
				l-13.08-17.983l17.132-205.154c1.007-12.052-1.48-24.139-7.163-34.814l-16.526-31.047L2421.516,1864.925z"/>
			
				<linearGradient id="SVGID_00000124146920084218799630000010036416610654853783_" gradientUnits="userSpaceOnUse" x1="2385.4766" y1="2206.2375" x2="2485.2578" y2="2206.2375">
				<stop  offset="0" style="stop-color:#A737D5"/>
				<stop  offset="1" style="stop-color:#EF497A"/>
			</linearGradient>
			<path style="fill:url(#SVGID_00000124146920084218799630000010036416610654853783_);" d="M2392.219,2244.14h25.497
				c4.772,0,9.273-2.191,12.184-5.973c7.948-10.328,24.417-30.479,32.292-31.005c10.601-0.708,9.244,36.979,9.244,36.979h5.942
				l7.527-46.83c1.894-11.783-3.966-23.455-14.546-28.976l0,0c0,0-2.423,17.921-15.563,25.847
				c-13.139,7.927-53.469,36.315-53.469,36.315s-4.939-0.704-10.363,0.276C2382.92,2232.227,2384.043,2244.14,2392.219,2244.14z"/>
			
				<linearGradient id="SVGID_00000091713753646752581630000013719761763589620622_" gradientUnits="userSpaceOnUse" x1="2589.9126" y1="2476.1089" x2="2678.679" y2="1438.6528">
				<stop  offset="0" style="stop-color:#F9B776"/>
				<stop  offset="1" style="stop-color:#F47960"/>
			</linearGradient>
			<path style="fill:url(#SVGID_00000091713753646752581630000013719761763589620622_);" d="M2530.95,1880.008
				c0,0,105.917,200.914,122.754,246.787c16.837,45.871,22.735,84.139,22.961,87.763c0.353,5.663,7.396,11.094,26.809,11.094
				c10.018,0,14.926-4.016,17.328-7.904c2.05-3.316,2.156-7.466,0.428-10.962c-6.126-12.399-25.57-52.025-32.771-69.996
				c-8.597-21.458-27.091-118.702-37.233-152.512c-10.143-33.81-21.607-70.486-65.775-104.269
				C2585.451,1880.008,2555.131,1850.312,2530.95,1880.008z"/>
			
				<linearGradient id="SVGID_00000080908381094654554290000002638279259074911414_" gradientUnits="userSpaceOnUse" x1="2385.3618" y1="1300.4535" x2="2691.5984" y2="2363.7744">
				<stop  offset="0" style="stop-color:#FDF53F"/>
				<stop  offset="0.6645" style="stop-color:#E57A58"/>
				<stop  offset="1" style="stop-color:#D93C65"/>
			</linearGradient>
			<path style="fill:url(#SVGID_00000080908381094654554290000002638279259074911414_);" d="M2464.041,1550.801
				c-27.322-115.773,41.893-181.254,41.893-181.254c-43.672-41.921-123.244-60.996-123.244-60.996s-75.928,55.51-66.921,98.96
				c5.28,25.466,53.371,152.535,53.371,152.535S2413.608,1581.09,2464.041,1550.801z"/>
			
				<linearGradient id="SVGID_00000029740488587285002730000007974669912302918050_" gradientUnits="userSpaceOnUse" x1="2343.6841" y1="1312.4559" x2="2649.9211" y2="2375.7786">
				<stop  offset="0" style="stop-color:#CB236D"/>
				<stop  offset="1" style="stop-color:#4C246D"/>
			</linearGradient>
			<path style="fill:url(#SVGID_00000029740488587285002730000007974669912302918050_);" d="M2524.617,1608.116
				c-11.119-33.497-60.577-57.316-60.577-57.316c-50.433,30.29-94.902,9.244-94.902,9.244s-9.973,38.12-3.09,73.545
				c6.883,35.425,50.068,263.093,50.068,263.093c68.045,13.787,172.697-13.871,172.697-13.871
				C2545.472,1805.861,2535.736,1641.614,2524.617,1608.116z"/>
			
				<linearGradient id="SVGID_00000005961206813750657100000009332620713789333948_" gradientUnits="userSpaceOnUse" x1="2401.6687" y1="1438.3246" x2="2418.3389" y2="1316.3705">
				<stop  offset="0" style="stop-color:#F9B776"/>
				<stop  offset="1" style="stop-color:#F47960"/>
			</linearGradient>
			<path style="fill:url(#SVGID_00000005961206813750657100000009332620713789333948_);" d="M2432.327,1232.043l22.213,99.778
				c2.126,8.789-5.885,7.35-14.77,5.675c-14.551-2.744-33.306-8.394-39.576-19.716c-0.638-1.152-0.957-2.455-1.137-3.76
				l-9.543-69.188c-0.757-5.489,2.21-10.817,7.276-13.063l18.415-8.166C2422.296,1220.459,2430.502,1224.505,2432.327,1232.043z"/>
			<g>
				
					<linearGradient id="SVGID_00000075121393929794134770000004218118416790647710_" gradientUnits="userSpaceOnUse" x1="2359.593" y1="1281.0886" x2="2505.0403" y2="1022.2412">
					<stop  offset="0" style="stop-color:#F9B776"/>
					<stop  offset="1" style="stop-color:#F47960"/>
				</linearGradient>
				<path style="fill:url(#SVGID_00000075121393929794134770000004218118416790647710_);" d="M2406.264,1137.042
					c0,0-26.308,11.109-44.196,49.124c-17.888,38.015-4.53,55.568,12.249,57.978c16.78,2.41,41.873,2.043,68.415-22.515
					C2469.274,1197.072,2440.463,1123.874,2406.264,1137.042z"/>
				
					<linearGradient id="SVGID_00000075162151962251477430000006643155989860799679_" gradientUnits="userSpaceOnUse" x1="2390.8713" y1="1055.6731" x2="2463.5947" y2="1238.0983">
					<stop  offset="0" style="stop-color:#2B3582"/>
					<stop  offset="1" style="stop-color:#150E42"/>
				</linearGradient>
				<path style="fill:url(#SVGID_00000075162151962251477430000006643155989860799679_);" d="M2424.89,1201.334
					c0,0,19.849-55.619-29.462-56.276l-11.604,8.11c0,0-18.093-30.837,11.604-45.557c29.696-14.72,64.451-2.561,77.089,37.447
					c12.637,40.008,14.795,66.79-6.229,85.931c-21.024,19.141-29.689-2.563-29.689-2.563s11.449-17.903,6.788-27.482
					c-4.661-9.578-15.411,1.982-15.411,1.982L2424.89,1201.334z"/>
				
					<linearGradient id="SVGID_00000006698640465782135520000006487531717980382129_" gradientUnits="userSpaceOnUse" x1="2390.553" y1="1298.4856" x2="2536.0002" y2="1039.6382">
					<stop  offset="0" style="stop-color:#F9B776"/>
					<stop  offset="1" style="stop-color:#F47960"/>
				</linearGradient>
				<path style="fill:url(#SVGID_00000006698640465782135520000006487531717980382129_);" d="M2430.421,1207.529
					c0,0,10.035-28.651,23.423-17.241c13.387,11.41-10.88,26.465-20.381,31.342L2430.421,1207.529z"/>
			</g>
			<g>
				
					<linearGradient id="SVGID_00000140014050842054572470000010821490662337918115_" gradientUnits="userSpaceOnUse" x1="1892.8268" y1="930.7489" x2="1985.619" y2="1141.8723" gradientTransform="matrix(0.9951 0.0992 -0.0992 0.9951 452.2618 21.8756)">
					<stop  offset="0" style="stop-color:#F9B776"/>
					<stop  offset="1" style="stop-color:#F47960"/>
				</linearGradient>
				<path style="fill:url(#SVGID_00000140014050842054572470000010821490662337918115_);" d="M2216.177,1081.599
					c-1.395,3.261,10.357,9.608,18.948-3.44c0.91-6.573,7.74-34.441,4.333-40.209c-18.146-30.721-40.135-34.785-40.135-34.785
					c-4.875,7.053-10.541,12.853-13.803,21.647c-2.47,6.66-2.105,14.076,0.729,20.644c2.845,6.592,6.765,15.182,10.603,21.981
					C2204.117,1080.306,2216.177,1081.599,2216.177,1081.599z"/>
			</g>
			
				<linearGradient id="SVGID_00000149358233897558151090000004919834428516243344_" gradientUnits="userSpaceOnUse" x1="5231.3364" y1="2438.8916" x2="5442.5371" y2="2438.8916" gradientTransform="matrix(-0.447 0.8946 -0.8946 -0.447 6887.7129 -2292.5178)">
				<stop  offset="0" style="stop-color:#F9B776"/>
				<stop  offset="1" style="stop-color:#F47960"/>
			</linearGradient>
			<path style="fill:url(#SVGID_00000149358233897558151090000004919834428516243344_);" d="M2518.213,1400.367
				c0,0-203.188,248.108-354.993-34.395c0,0-2.914-7.219-1.093-17.646c0.92-5.265-2.562-23.937-4.474-33.477
				c-0.615-3.067,1.564-5.966,4.678-6.266l0,0c2.439-0.235,4.831,0.789,6.344,2.717l27.729,35.31
				c2.068,6.992-1.263,14.447-7.85,17.573l0,0c-4.202,1.994-5.527,7.331-2.706,11.029
				c115.448,151.334,308.544-14.729,312.078-12.779C2510.463,1369.353,2524.948,1377.003,2518.213,1400.367z"/>
		</g>
		<g>
			
				<linearGradient id="SVGID_00000039847358130206709900000007460950520402115211_" gradientUnits="userSpaceOnUse" x1="2149.4656" y1="3773.3635" x2="2600.0591" y2="1836.486">
				<stop  offset="0" style="stop-color:#53D8FF"/>
				<stop  offset="1" style="stop-color:#3840F7"/>
			</linearGradient>
			<path style="fill:url(#SVGID_00000039847358130206709900000007460950520402115211_);" d="M2388.369,3248.733
				c4.565,0,8.266-3.701,8.266-8.266v-988.06c0-4.566-3.701-8.266-8.266-8.266c-4.566,0-8.266,3.7-8.266,8.266v988.06
				C2380.103,3245.032,2383.803,3248.733,2388.369,3248.733z"/>
			
				<linearGradient id="SVGID_00000119817228026836632870000006446322290390784665_" gradientUnits="userSpaceOnUse" x1="2361.9744" y1="3822.801" x2="2812.5681" y2="1885.9236">
				<stop  offset="0" style="stop-color:#53D8FF"/>
				<stop  offset="1" style="stop-color:#3840F7"/>
			</linearGradient>
			<path style="fill:url(#SVGID_00000119817228026836632870000006446322290390784665_);" d="M2612.379,3248.733
				c4.566,0,8.266-3.701,8.266-8.266v-988.06c0-4.566-3.7-8.266-8.266-8.266c-4.566,0-8.266,3.7-8.266,8.266v988.06
				C2604.113,3245.032,2607.813,3248.733,2612.379,3248.733z"/>
			
				<linearGradient id="SVGID_00000100341600987883722590000007099552937408761232_" gradientUnits="userSpaceOnUse" x1="2684.2654" y1="3897.7783" x2="3134.8594" y2="1960.8999">
				<stop  offset="0" style="stop-color:#53D8FF"/>
				<stop  offset="1" style="stop-color:#3840F7"/>
			</linearGradient>
			<path style="fill:url(#SVGID_00000100341600987883722590000007099552937408761232_);" d="M3162.743,3255
				c1.08,0,2.174-0.213,3.23-0.662c4.201-1.786,6.16-6.639,4.374-10.843l-422.711-994.324c-1.786-4.201-6.646-6.155-10.841-4.372
				c-4.201,1.786-6.159,6.639-4.373,10.843l422.711,994.324C3156.469,3253.111,3159.528,3255,3162.743,3255z"/>
			
				<linearGradient id="SVGID_00000065785772059856437850000014383098731350849168_" gradientUnits="userSpaceOnUse" x1="2436.5664" y1="3840.1543" x2="2887.1604" y2="1903.2758">
				<stop  offset="0" style="stop-color:#53D8FF"/>
				<stop  offset="1" style="stop-color:#3840F7"/>
			</linearGradient>
			<path style="fill:url(#SVGID_00000065785772059856437850000014383098731350849168_);" d="M2901.638,3255
				c1.08,0,2.175-0.213,3.23-0.662c4.201-1.786,6.159-6.639,4.374-10.843l-422.711-994.324c-1.787-4.201-6.645-6.155-10.841-4.372
				c-4.201,1.786-6.159,6.639-4.373,10.843l422.711,994.324C2895.364,3253.111,2898.424,3255,2901.638,3255z"/>
			
				<linearGradient id="SVGID_00000086685660744965459480000003915318734952454326_" gradientUnits="userSpaceOnUse" x1="2211.3623" y1="3787.7668" x2="2661.9551" y2="1850.8937">
				<stop  offset="0" style="stop-color:#53D8FF"/>
				<stop  offset="1" style="stop-color:#3840F7"/>
			</linearGradient>
			<path style="fill:url(#SVGID_00000086685660744965459480000003915318734952454326_);" d="M2375.535,2261.5h387.214
				c6.435,0,11.651-5.216,11.651-11.65l0,0c0-6.434-5.216-11.65-11.651-11.65h-387.214c-6.434,0-11.651,5.216-11.651,11.65l0,0
				C2363.884,2256.284,2369.101,2261.5,2375.535,2261.5z"/>
			
				<linearGradient id="SVGID_00000052785081184071443440000008377686358478444219_" gradientUnits="userSpaceOnUse" x1="2344.6924" y1="3818.7866" x2="2795.2854" y2="1881.9116">
				<stop  offset="0" style="stop-color:#53D8FF"/>
				<stop  offset="1" style="stop-color:#3840F7"/>
			</linearGradient>
			<path style="fill:url(#SVGID_00000052785081184071443440000008377686358478444219_);" d="M2542.785,2412.713h261.878
				c4.566,0,8.266-3.701,8.266-8.266c0-4.566-3.7-8.266-8.266-8.266h-261.878c-4.566,0-8.266,3.7-8.266,8.266
				C2534.518,2409.012,2538.219,2412.713,2542.785,2412.713z"/>
			
				<linearGradient id="SVGID_00000147203724293196221400000015062342598741697717_" gradientUnits="userSpaceOnUse" x1="2462.4241" y1="3846.1667" x2="2913.0171" y2="1909.2924">
				<stop  offset="0" style="stop-color:#53D8FF"/>
				<stop  offset="1" style="stop-color:#3840F7"/>
			</linearGradient>
			
				<rect x="2623.137" y="2584.233" style="fill:url(#SVGID_00000147203724293196221400000015062342598741697717_);" width="261.878" height="16.532"/>
			
				<linearGradient id="SVGID_00000067923516651080804680000004963302161717262512_" gradientUnits="userSpaceOnUse" x1="2577.7209" y1="3872.9929" x2="3028.3152" y2="1936.1134">
				<stop  offset="0" style="stop-color:#53D8FF"/>
				<stop  offset="1" style="stop-color:#3840F7"/>
			</linearGradient>
			
				<rect x="2700.927" y="2772.285" style="fill:url(#SVGID_00000067923516651080804680000004963302161717262512_);" width="261.878" height="16.532"/>
			
				<linearGradient id="SVGID_00000057142553651289547860000005363305047531962246_" gradientUnits="userSpaceOnUse" x1="2696.6123" y1="3900.6487" x2="3147.2058" y2="1963.7721">
				<stop  offset="0" style="stop-color:#53D8FF"/>
				<stop  offset="1" style="stop-color:#3840F7"/>
			</linearGradient>
			<path style="fill:url(#SVGID_00000057142553651289547860000005363305047531962246_);" d="M2782.503,2976.869h261.878
				c4.565,0,8.266-3.7,8.266-8.266c0-4.566-3.701-8.266-8.266-8.266h-261.878c-4.565,0-8.266,3.7-8.266,8.266
				C2774.237,2973.169,2777.938,2976.869,2782.503,2976.869z"/>
			
				<linearGradient id="SVGID_00000157295312918264363850000018067688053182664080_" gradientUnits="userSpaceOnUse" x1="2812.9343" y1="3927.7136" x2="3263.5283" y2="1990.8345">
				<stop  offset="0" style="stop-color:#53D8FF"/>
				<stop  offset="1" style="stop-color:#3840F7"/>
			</linearGradient>
			<path style="fill:url(#SVGID_00000157295312918264363850000018067688053182664080_);" d="M2861.373,3164.925h261.878
				c4.566,0,8.266-3.7,8.266-8.266c0-4.566-3.701-8.266-8.266-8.266h-261.878c-4.566,0-8.266,3.701-8.266,8.266
				C2853.107,3161.224,2856.807,3164.925,2861.373,3164.925z"/>
		</g>
		<g>
			<g>
				<g style="opacity:0.3;">
					
						<linearGradient id="SVGID_00000147906167455285109130000008074258950456820900_" gradientUnits="userSpaceOnUse" x1="169.8365" y1="-569.1678" x2="736.3219" y2="-569.1678" gradientTransform="matrix(0.5596 0.8288 -0.8288 0.5596 1152.9308 821.2177)">
						<stop  offset="0" style="stop-color:#B37CFF"/>
						<stop  offset="1" style="stop-color:#F895E7"/>
					</linearGradient>
					<path style="fill:url(#SVGID_00000147906167455285109130000008074258950456820900_);" d="M1541.033,778.526
						c-2.809-4.16-2.078-9.857,1.852-13.154c8.593-7.213,17.628-14.158,26.851-20.645c4.488-3.156,10.683-2.078,13.839,2.409
						c0.037,0.055,0.073,0.108,0.109,0.161c3.02,4.473,1.915,10.56-2.519,13.677c-8.764,6.162-17.345,12.761-25.508,19.612
						c-4.2,3.527-10.467,2.981-13.993-1.223C1541.434,779.093,1541.226,778.813,1541.033,778.526z M1613.099,730.643
						c-0.217-0.322-0.418-0.661-0.601-1.015c-2.514-4.875-0.601-10.867,4.274-13.381c10.014-5.163,20.348-9.949,30.714-14.223
						c5.071-2.092,10.855,0.311,12.971,5.393c2.09,5.072-0.328,10.878-5.395,12.967c-9.853,4.064-19.67,8.611-29.186,13.52
						C1621.354,736.235,1615.876,734.757,1613.099,730.643z M1693.915,699.818c-0.619-0.916-1.094-1.953-1.385-3.085
						c-1.363-5.313,1.834-10.727,7.147-12.093c10.888-2.801,22.036-5.162,33.131-7.017c5.411-0.901,10.525,2.755,11.434,8.158
						c0.904,5.409-2.749,10.53-8.158,11.434c-10.537,1.761-21.119,4.003-31.461,6.663
						C1700.443,704.952,1696.199,703.2,1693.915,699.818z M1779.614,687.836c-1.023-1.515-1.639-3.329-1.69-5.291
						c-0.144-5.483,4.186-10.044,9.668-10.188c11.248-0.292,22.643-0.102,33.869,0.564c5.47,0.33,9.645,5.029,9.325,10.504
						c-0.325,5.474-5.029,9.649-10.504,9.325c-10.661-0.634-21.484-0.816-32.172-0.534
						C1784.588,692.306,1781.449,690.554,1779.614,687.836z M1865.83,695.265c-1.434-2.124-2.05-4.797-1.506-7.507
						c1.077-5.38,6.31-8.867,11.687-7.788c11.004,2.204,22.071,4.91,32.887,8.047c5.27,1.523,8.305,7.031,6.776,12.302
						c-1.528,5.267-7.035,8.3-12.306,6.775c-10.28-2.983-20.799-5.555-31.257-7.649
						C1869.443,698.911,1867.241,697.355,1865.83,695.265z M1948.25,721.579c-1.857-2.751-2.296-6.368-0.841-9.621
						c2.241-5.008,8.114-7.25,13.122-5.012c10.261,4.59,20.456,9.678,30.293,15.125c4.801,2.659,6.535,8.701,3.877,13.501
						c-2.654,4.797-8.7,6.534-13.498,3.878c-9.349-5.175-19.031-10.01-28.782-14.371
						C1950.665,724.295,1949.252,723.063,1948.25,721.579z M2171.493,1009.972c-0.77-1.14-1.312-2.456-1.556-3.899
						c-1.777-10.521-4.037-21.107-6.721-31.461c-1.375-5.309,1.813-10.729,7.121-12.103c5.31-1.378,10.729,1.811,12.106,7.122
						c2.826,10.904,5.209,22.053,7.082,33.133c0.914,5.41-2.732,10.534-8.14,11.447
						C2177.419,1014.881,2173.605,1013.101,2171.493,1009.972z M2022.741,765.477c-2.305-3.415-2.319-8.052,0.296-11.528
						c3.298-4.385,9.524-5.265,13.908-1.968c8.985,6.757,17.786,13.988,26.157,21.492c4.066,3.679,4.431,9.939,0.768,14.026
						c-3.66,4.084-9.94,4.427-14.026,0.766c-7.948-7.127-16.305-13.993-24.837-20.41
						C2024.101,767.171,2023.341,766.366,2022.741,765.477z M2147.555,926.831c-0.367-0.543-0.688-1.129-0.949-1.759
						c-4.09-9.863-8.662-19.679-13.582-29.178c-2.521-4.872-0.619-10.866,4.25-13.388c4.87-2.52,10.884-0.636,13.388,4.251
						c5.176,9.996,9.987,20.325,14.293,30.702c2.101,5.067-0.303,10.88-5.368,12.98
						C2155.151,932.28,2150.143,930.664,2147.555,926.831z M2085.559,824.913c-2.805-4.154-2.081-9.841,1.837-13.142
						c4.195-3.535,10.46-2.999,13.998,1.194c7.236,8.589,14.199,17.606,20.689,26.803c0.042,0.055,0.083,0.115,0.122,0.173
						c3.015,4.466,1.918,10.543-2.504,13.666c-4.482,3.164-10.679,2.098-13.842-2.385c-6.168-8.734-12.783-17.297-19.659-25.457
						C2085.971,825.489,2085.756,825.204,2085.559,824.913z"/>
					
						<linearGradient id="SVGID_00000131349846391321015560000001747746079921568657_" gradientUnits="userSpaceOnUse" x1="763.8593" y1="-718.3674" x2="796.9433" y2="-718.3674" gradientTransform="matrix(0.5596 0.8288 -0.8288 0.5596 1152.9308 821.2177)">
						<stop  offset="0" style="stop-color:#B37CFF"/>
						<stop  offset="1" style="stop-color:#F895E7"/>
					</linearGradient>
					<path style="fill:url(#SVGID_00000131349846391321015560000001747746079921568657_);" d="M2176.84,1079.507
						c-1.094-1.621-1.725-3.58-1.695-5.685c0.072-5.12,0.035-10.327-0.1-15.478c-0.148-5.482,4.178-10.049,9.66-10.194
						c5.483-0.149,10.056,4.176,10.194,9.663c0.147,5.417,0.183,10.893,0.109,16.281c-0.075,5.483-4.584,9.871-10.066,9.794
						C2181.56,1083.842,2178.599,1082.111,2176.84,1079.507z"/>
				</g>
				<g style="opacity:0.3;">
					
						<linearGradient id="SVGID_00000000215141345579799640000003503443643878518463_" gradientUnits="userSpaceOnUse" x1="935.5792" y1="-465.5592" x2="958.2817" y2="-465.5592" gradientTransform="matrix(0.5596 0.8288 -0.8288 0.5596 1152.9308 821.2177)">
						<stop  offset="0" style="stop-color:#B37CFF"/>
						<stop  offset="1" style="stop-color:#F895E7"/>
					</linearGradient>
					<path style="fill:url(#SVGID_00000000215141345579799640000003503443643878518463_);" d="M2054.766,1356.604
						c-2.682-3.973-2.162-9.414,1.448-12.797c3.737-3.499,7.464-7.137,11.074-10.81c3.846-3.912,10.135-3.966,14.046-0.121
						c3.927,3.862,3.964,10.136,0.121,14.046c-3.802,3.866-7.727,7.698-11.661,11.383c-4.003,3.749-10.288,3.544-14.039-0.459
						C2055.386,1357.453,2055.058,1357.036,2054.766,1356.604z"/>
					
						<linearGradient id="SVGID_00000114753189824805490630000009317586949004811663_" gradientUnits="userSpaceOnUse" x1="379.6401" y1="-207.325" x2="963.1332" y2="-207.325" gradientTransform="matrix(0.5596 0.8288 -0.8288 0.5596 1152.9308 821.2177)">
						<stop  offset="0" style="stop-color:#B37CFF"/>
						<stop  offset="1" style="stop-color:#F895E7"/>
					</linearGradient>
					<path style="fill:url(#SVGID_00000114753189824805490630000009317586949004811663_);" d="M1469.744,1291.27
						c-2.557-3.787-5.059-7.633-7.507-11.535c-2.913-4.647-1.51-10.777,3.137-13.692c4.646-2.915,10.808-1.499,13.693,3.134
						c5.649,9.005,11.649,17.76,17.91,26.118c3.284,4.4,2.396,10.614-1.993,13.903c-4.392,3.291-10.618,2.397-13.905-1.994
						C1477.205,1302.036,1473.393,1296.673,1469.744,1291.27z M1437.477,1233.515c-0.31-0.46-0.587-0.954-0.824-1.478
						c-4.566-10.097-8.753-20.5-12.445-30.92c-1.833-5.168,0.873-10.846,6.041-12.678c5.171-1.832,10.865,0.875,12.679,6.044
						c3.508,9.896,7.488,19.777,11.823,29.374c2.26,4.997,0.039,10.88-4.957,13.139
						C1445.318,1239.02,1440.135,1237.452,1437.477,1233.515z M1515.238,1346.762c-2.62-3.881-2.197-9.196,1.252-12.608
						c3.902-3.859,10.189-3.823,14.048,0.076c7.377,7.461,15.176,14.706,23.185,21.534c4.168,3.566,4.67,9.829,1.112,14.002
						c-3.562,4.174-9.831,4.671-14.004,1.111c-8.432-7.192-16.646-14.823-24.416-22.679
						C1515.97,1347.749,1515.579,1347.266,1515.238,1346.762z M1411.154,1152.52c-0.706-1.045-1.219-2.243-1.49-3.553
						c-2.233-10.843-4.029-21.914-5.338-32.901c-0.648-5.446,3.239-10.386,8.685-11.034c5.449-0.65,10.39,3.234,11.037,8.686
						c1.244,10.432,2.949,20.944,5.07,31.242c1.109,5.372-2.352,10.625-7.724,11.73
						C1417.334,1157.527,1413.339,1155.756,1411.154,1152.52z M1581.41,1400.259c-2.149-3.183-2.338-7.47-0.136-10.913
						c2.955-4.621,9.098-5.972,13.72-3.016c8.833,5.652,18.036,11.003,27.349,15.909c4.853,2.556,6.717,8.562,4.157,13.417
						c-2.557,4.851-8.561,6.712-13.413,4.156c-9.806-5.164-19.494-10.798-28.797-16.749
						C1583.113,1402.311,1582.146,1401.349,1581.41,1400.259z M1657.72,1437.943c-1.718-2.545-2.236-5.849-1.108-8.955
						c1.874-5.155,7.572-7.816,12.728-5.941c9.887,3.592,20.041,6.81,30.177,9.565c5.296,1.431,8.422,6.885,6.983,12.186
						c-1.439,5.294-6.894,8.418-12.189,6.982c-10.668-2.899-21.352-6.285-31.756-10.067
						C1660.507,1440.969,1658.854,1439.621,1657.72,1437.943z M1740.431,1458.093c-1.307-1.936-1.94-4.335-1.615-6.835
						c0.705-5.438,5.688-9.275,11.128-8.568c10.442,1.357,21.051,2.289,31.541,2.767c5.477,0.25,9.718,4.888,9.467,10.375
						c-0.252,5.479-4.894,9.717-10.375,9.467c-11.037-0.505-22.207-1.484-33.192-2.911
						C1744.443,1462.005,1741.97,1460.373,1740.431,1458.093z M1825.561,1459.726c-0.905-1.341-1.495-2.921-1.653-4.646
						c-0.5-5.462,3.522-10.294,8.984-10.793c10.48-0.958,21.034-2.375,31.374-4.212c5.4-0.959,10.559,2.647,11.517,8.039
						c0.96,5.402-2.641,10.558-8.041,11.517c-10.892,1.936-22.008,3.428-33.039,4.437
						C1830.964,1464.407,1827.522,1462.631,1825.561,1459.726z M1909.005,1442.623c-0.509-0.754-0.921-1.592-1.215-2.501
						c-1.692-5.217,1.167-10.819,6.384-12.509c9.985-3.238,19.962-6.943,29.661-11.02c5.058-2.125,10.883,0.269,13.003,5.309
						c2.126,5.056-0.252,10.88-5.31,13.005c-10.21,4.29-20.715,8.193-31.226,11.599
						C1915.992,1447.904,1911.419,1446.198,1909.005,1442.623z M1986.6,1407.63c-0.114-0.169-0.222-0.344-0.328-0.521
						c-2.786-4.723-1.216-10.813,3.509-13.599c6.669-3.934,13.294-8.119,19.699-12.443c2.318-1.565,4.615-3.156,6.887-4.762
						c4.48-3.167,10.679-2.105,13.844,2.374c3.295,4.471,2.105,10.675-2.371,13.841c-2.392,1.692-4.804,3.361-7.245,5.008
						c-6.736,4.548-13.71,8.952-20.723,13.089C1995.326,1413.301,1989.515,1411.947,1986.6,1407.63z"/>
					
						<linearGradient id="SVGID_00000065768293531130331670000014362978435488703931_" gradientUnits="userSpaceOnUse" x1="321.4794" y1="-84.3439" x2="354.1414" y2="-84.3439" gradientTransform="matrix(0.5596 0.8288 -0.8288 0.5596 1152.9308 821.2177)">
						<stop  offset="0" style="stop-color:#B37CFF"/>
						<stop  offset="1" style="stop-color:#F895E7"/>
					</linearGradient>
					<path style="fill:url(#SVGID_00000065768293531130331670000014362978435488703931_);" d="M1403.325,1067.48
						c-1.105-1.637-1.734-3.615-1.696-5.736c0.101-5.376,0.317-10.852,0.644-16.275c0.329-5.476,5.034-9.648,10.509-9.319
						c5.475,0.331,9.649,5.029,9.319,10.508c-0.309,5.152-0.514,10.353-0.611,15.457c-0.1,5.481-4.629,9.845-10.114,9.743
						C1408.012,1071.795,1405.072,1070.068,1403.325,1067.48z"/>
				</g>
				<g>
					
						<linearGradient id="SVGID_00000009573970785638334420000003770483685837214887_" gradientUnits="userSpaceOnUse" x1="1536.0203" y1="958.5513" x2="1818.4783" y2="1698.321" gradientTransform="matrix(0.9946 -0.1039 0.1039 0.9946 -39.5606 -147.2769)">
						<stop  offset="0" style="stop-color:#A737D5"/>
						<stop  offset="1" style="stop-color:#EF497A"/>
					</linearGradient>
					<path style="fill:url(#SVGID_00000009573970785638334420000003770483685837214887_);" d="M1506.297,1014.127
						c-0.571,1.896,0.124,3.946,1.73,5.104l45.831,33.035c-1.645,26.332,0.895,53.117,7.949,79.337l-38.312,41.471
						c-1.344,1.455-1.617,3.602-0.68,5.346l32.066,59.7c0.938,1.745,2.879,2.702,4.832,2.386l55.731-9.042
						c17.966,20.359,38.892,37.268,61.755,50.435l2.235,56.453c0.078,1.978,1.403,3.69,3.299,4.261l64.888,19.54
						c1.897,0.571,3.947-0.124,5.104-1.73l33.035-45.831c26.332,1.646,53.118-0.896,79.337-7.95l41.472,38.313
						c1.454,1.344,3.601,1.617,5.346,0.68l59.701-32.067c1.745-0.937,2.703-2.878,2.385-4.833l-9.042-55.731
						c20.359-17.965,37.268-38.891,50.436-61.755l56.453-2.235c1.977-0.079,3.689-1.404,4.26-3.299l19.539-64.889
						c0.572-1.897-0.124-3.946-1.73-5.104l-45.832-33.034c1.647-26.332-0.895-53.117-7.949-79.337l38.313-41.472
						c1.343-1.454,1.617-3.601,0.68-5.346l-32.067-59.7c-0.937-1.745-2.877-2.703-4.833-2.385l-55.731,9.042
						c-17.964-20.36-38.892-37.268-61.756-50.436l-2.234-56.452c-0.077-1.979-1.404-3.691-3.299-4.261l-64.889-19.539
						c-1.896-0.571-3.946,0.124-5.104,1.73l-33.035,45.831c-26.333-1.646-53.117,0.896-79.337,7.95l-41.472-38.313
						c-1.453-1.343-3.602-1.617-5.346-0.679l-59.699,32.066c-1.745,0.937-2.703,2.878-2.386,4.833l9.042,55.731
						c-20.359,17.965-37.267,38.892-50.436,61.755l-56.452,2.235c-1.979,0.078-3.689,1.403-4.262,3.299L1506.297,1014.127z"/>
					<path style="opacity:0.56;fill:#FFFFFF;" d="M1744.489,1105.558c-18.58-27.52-14.687-65.328,10.543-88.375
						c27.735-25.333,70.903-23.378,96.235,4.353c12.276,13.433,18.578,30.844,17.755,49.017
						c-0.821,18.176-8.672,34.945-22.108,47.215c-27.735,25.333-70.903,23.378-96.235-4.353
						C1748.396,1110.915,1746.331,1108.286,1744.489,1105.558z M1844.327,1038.338c-1.435-2.125-3.032-4.157-4.793-6.086
						c-19.421-21.263-52.523-22.758-73.784-3.339c-21.263,19.423-22.774,52.524-3.339,73.787
						c19.42,21.263,52.523,22.758,73.784,3.339c10.302-9.411,16.321-22.265,16.952-36.203
						C1853.658,1058.509,1850.559,1047.568,1844.327,1038.338z"/>
					<path style="opacity:0.56;fill:#FFFFFF;" d="M1663.728,1161.765c-3.191-4.726-6.163-9.641-8.899-14.733l0,0
						c-0.862-1.602-1.697-3.22-2.506-4.85c-3.99-8.038-7.333-16.38-9.981-24.898c-0.036-0.116-0.072-0.232-0.109-0.348
						c-0.101-0.33-0.202-0.66-0.299-0.991c-0.195-0.643-0.383-1.288-0.57-1.932c-0.49-1.696,0.201-3.453,1.589-4.392
						c0.338-0.228,0.717-0.407,1.129-0.526c2.108-0.608,4.304,0.614,4.915,2.718c3.126,10.849,7.443,21.432,12.832,31.457
						c26.744,49.811,76.328,79.655,128.917,83.584c29.25,2.189,59.431-3.644,87.132-18.525c4.858-2.608,9.549-5.443,14.056-8.488
						c30.337-20.487,52.521-50.535,63.217-86.06c12.289-40.806,7.951-83.957-12.214-121.498
						c-41.654-77.531-138.552-106.686-216.049-65.059c-4.779,2.566-9.409,5.365-13.874,8.382
						c-19.351,13.07-35.627,30.228-47.6,50.302c-0.31,0.518-0.717,0.941-1.188,1.256c-1.235,0.834-2.893,0.935-4.258,0.12
						c-1.882-1.13-2.506-3.56-1.376-5.448c12.57-21.074,29.657-39.091,49.973-52.812c4.687-3.167,9.547-6.104,14.562-8.799
						c81.366-43.705,183.121-13.039,226.811,68.297c21.171,39.413,25.723,84.711,12.822,127.55
						c-11.228,37.295-34.518,68.839-66.365,90.348c-4.733,3.195-9.657,6.171-14.753,8.91
						c-39.416,21.17-84.714,25.725-127.552,12.826C1716.785,1216.922,1685.237,1193.622,1663.728,1161.765z"/>
				</g>
			</g>
			<g>
				<g style="opacity:0.3;">
					
						<linearGradient id="SVGID_00000103239280604666030020000003377982588634859929_" gradientUnits="userSpaceOnUse" x1="-167.1363" y1="-97.3669" x2="-150.9899" y2="-97.3669" gradientTransform="matrix(0.5596 0.8288 -0.8288 0.5596 1152.9308 821.2177)">
						<stop  offset="0" style="stop-color:#B37CFF"/>
						<stop  offset="1" style="stop-color:#F895E7"/>
					</linearGradient>
					<path style="fill:url(#SVGID_00000103239280604666030020000003377982588634859929_);" d="M1134.467,644.087
						c-1.485-2.199-1.418-5.194,0.362-7.342c3.32-4.012,6.807-7.978,10.365-11.787c2.312-2.475,6.19-2.607,8.67-0.295
						c2.489,2.306,2.606,6.194,0.295,8.67c-3.39,3.629-6.714,7.409-9.883,11.237c-2.156,2.608-6.024,2.971-8.637,0.814
						C1135.177,644.999,1134.787,644.561,1134.467,644.087z"/>
					
						<linearGradient id="SVGID_00000006687162302332001480000004515488461201806481_" gradientUnits="userSpaceOnUse" x1="-173.6723" y1="-278.7601" x2="142.7926" y2="-278.7601" gradientTransform="matrix(0.5596 0.8288 -0.8288 0.5596 1152.9308 821.2177)">
						<stop  offset="0" style="stop-color:#B37CFF"/>
						<stop  offset="1" style="stop-color:#F895E7"/>
					</linearGradient>
					<path style="fill:url(#SVGID_00000006687162302332001480000004515488461201806481_);" d="M1167.764,610.652
						c-1.74-2.576-1.28-6.103,1.157-8.135c6.883-5.746,14.142-11.204,21.569-16.218c1.564-1.056,3.145-2.097,4.74-3.128
						c2.852-1.835,6.641-0.794,8.484,1.829c1.836,2.847,1.016,6.643-1.828,8.48c-1.526,0.984-3.038,1.978-4.532,2.987
						c-7.085,4.784-14.007,9.989-20.573,15.466c-2.602,2.173-6.468,1.823-8.641-0.776
						C1168.007,610.99,1167.88,610.823,1167.764,610.652z M1221.294,576.137c-0.162-0.241-0.314-0.497-0.443-0.763
						c-1.475-3.052-0.2-6.721,2.849-8.198c9.782-4.739,19.946-8.913,30.203-12.401c3.208-1.093,6.693,0.642,7.783,3.831
						c1.09,3.21-0.622,6.69-3.831,7.783c-9.787,3.329-19.48,7.312-28.81,11.83C1226.266,579.563,1222.973,578.624,1221.294,576.137z
						 M1281.594,555.634c-0.436-0.645-0.754-1.385-0.923-2.192c-0.685-3.317,1.454-6.561,4.771-7.247
						c10.629-2.189,21.514-3.742,32.347-4.601c3.381-0.27,6.328,2.243,6.599,5.631c0.269,3.375-2.253,6.331-5.627,6.6
						c-10.331,0.821-20.705,2.296-30.843,4.388C1285.41,558.727,1282.943,557.632,1281.594,555.634z M1345.093,550.582
						c-0.711-1.053-1.099-2.333-1.043-3.697c0.151-3.384,3.018-6.01,6.402-5.859c10.864,0.482,21.788,1.643,32.478,3.453
						c3.34,0.568,5.583,3.741,5.021,7.073c-0.563,3.34-3.729,5.589-7.073,5.025c-10.187-1.727-20.612-2.834-30.969-3.293
						C1347.889,553.193,1346.143,552.138,1345.093,550.582z M1407.897,561.192c-0.992-1.47-1.342-3.358-0.795-5.192
						c0.968-3.244,4.385-5.088,7.632-4.122c10.404,3.109,20.717,6.887,30.648,11.233c3.112,1.354,4.522,4.974,3.162,8.078
						c-1.359,3.104-4.978,4.521-8.077,3.162c-9.478-4.146-19.314-7.751-29.243-10.714
						C1409.811,563.214,1408.662,562.326,1407.897,561.192z M1466.215,586.721c-1.286-1.904-1.441-4.459-0.191-6.568
						c1.727-2.911,5.49-3.869,8.404-2.143c9.337,5.543,18.417,11.722,26.979,18.365c2.677,2.092,3.16,5.933,1.085,8.609
						c-2.075,2.676-5.931,3.162-8.605,1.086c-8.167-6.336-16.819-12.225-25.72-17.509
						C1467.36,588.084,1466.706,587.448,1466.215,586.721z M1516.509,625.722c-1.609-2.383-1.363-5.647,0.741-7.756
						c2.392-2.399,6.276-2.406,8.677-0.015c7.666,7.64,14.951,15.861,21.659,24.436c2.046,2.709,1.611,6.53-1.058,8.614
						c-2.668,2.087-6.522,1.614-8.611-1.053c-6.393-8.184-13.343-16.025-20.652-23.309
						C1516.978,626.353,1516.727,626.045,1516.509,625.722z M1570.446,704.219c-0.198-0.293-0.376-0.61-0.524-0.947
						c-3.631-8.173-7.774-16.29-12.315-24.128c-0.681-1.191-1.364-2.353-2.06-3.502c-1.745-2.906-0.812-6.673,2.092-8.42
						c2.906-1.756,6.769-0.851,8.421,2.088c0.737,1.23,1.466,2.461,2.18,3.71c4.741,8.19,9.085,16.699,12.891,25.271
						c1.376,3.097-0.017,6.719-3.114,8.095C1575.259,707.612,1572.08,706.639,1570.446,704.219z"/>
				</g>
				<g style="opacity:0.3;">
					
						<linearGradient id="SVGID_00000040535319025591613840000016439813145748663482_" gradientUnits="userSpaceOnUse" x1="-32.4441" y1="24.6163" x2="328.7489" y2="24.6163" gradientTransform="matrix(0.5596 0.8288 -0.8288 0.5596 1152.9308 821.2177)">
						<stop  offset="0" style="stop-color:#B37CFF"/>
						<stop  offset="1" style="stop-color:#F895E7"/>
					</linearGradient>
					<path style="fill:url(#SVGID_00000040535319025591613840000016439813145748663482_);" d="M1121.408,956.967
						c-1.874-2.775-1.171-6.553,1.589-8.47c2.78-1.931,6.606-1.243,8.536,1.541c5.816,8.379,12.192,16.473,18.954,24.058
						c2.217,2.533,2.035,6.407-0.497,8.662c-2.532,2.255-6.408,2.028-8.662-0.497c-7.086-7.959-13.775-16.442-19.871-25.224
						C1121.44,957.014,1121.423,956.989,1121.408,956.967z M1105.093,930.159c-0.124-0.184-0.236-0.372-0.342-0.571
						c-4.998-9.437-9.472-19.275-13.3-29.238c-1.211-3.165,0.363-6.71,3.526-7.924c3.166-1.22,6.713,0.382,7.929,3.522
						c3.651,9.508,7.921,18.894,12.688,27.902c1.586,2.992,0.443,6.705-2.55,8.289
						C1110.242,933.621,1106.823,932.721,1105.093,930.159z M1163.09,1003.716c-1.522-2.254-1.403-5.333,0.474-7.476
						c2.23-2.543,6.105-2.799,8.653-0.566c7.677,6.725,15.822,13.04,24.221,18.767c2.796,1.925,3.519,5.726,1.606,8.525
						c-1.906,2.797-5.726,3.52-8.525,1.611c-8.803-6.005-17.343-12.627-25.386-19.679
						C1163.726,1004.541,1163.379,1004.144,1163.09,1003.716z M1082.658,871.643c-0.39-0.578-0.688-1.233-0.869-1.95
						c-2.584-10.369-4.553-21.003-5.847-31.603c-0.413-3.363,1.981-6.422,5.345-6.836c3.354-0.407,6.415,1.986,6.831,5.344
						c1.238,10.107,3.115,20.242,5.576,30.13c0.817,3.287-1.184,6.617-4.47,7.435
						C1086.655,874.802,1084.059,873.718,1082.658,871.643z M1214.834,1039c-1.215-1.8-1.436-4.192-0.369-6.252
						c1.557-3.014,5.258-4.19,8.267-2.636c9.041,4.677,18.463,8.846,28.012,12.392c3.182,1.18,4.794,4.714,3.613,7.889
						c-1.181,3.175-4.714,4.794-7.889,3.614c-10.009-3.723-19.89-8.092-29.371-12.992
						C1216.152,1040.525,1215.389,1039.822,1214.834,1039z M1273.533,1060.842c-0.93-1.378-1.299-3.124-0.884-4.864
						c0.79-3.294,4.101-5.327,7.395-4.537c9.925,2.377,20.079,4.174,30.175,5.34c3.37,0.388,5.782,3.436,5.391,6.797
						c-0.387,3.366-3.429,5.777-6.792,5.388c-10.589-1.221-21.233-3.102-31.633-5.593
						C1275.635,1063.001,1274.361,1062.068,1273.533,1060.842z M1335.781,1067.994c-0.653-0.968-1.041-2.13-1.045-3.389
						c-0.025-3.388,2.706-6.153,6.094-6.175c10.201-0.061,20.489-0.754,30.573-2.058c3.354-0.429,6.435,1.94,6.866,5.299
						c0.433,3.361-1.936,6.435-5.299,6.87c-10.573,1.363-21.363,2.093-32.063,2.162
						C1338.774,1070.714,1336.89,1069.637,1335.781,1067.994z"/>
					
						<linearGradient id="SVGID_00000068668699053111891750000009118851333713301411_" gradientUnits="userSpaceOnUse" x1="-72.1494" y1="47.205" x2="-47.4474" y2="47.205" gradientTransform="matrix(0.5596 0.8288 -0.8288 0.5596 1152.9308 821.2177)">
						<stop  offset="0" style="stop-color:#B37CFF"/>
						<stop  offset="1" style="stop-color:#F895E7"/>
					</linearGradient>
					<path style="fill:url(#SVGID_00000068668699053111891750000009118851333713301411_);" d="M1075.026,809.157
						c-0.662-0.981-1.048-2.162-1.047-3.435c0.004-5.25,0.166-10.524,0.475-15.676c0.205-3.38,3.11-5.96,6.493-5.757
						c3.374,0.212,5.953,3.111,5.757,6.493c-0.297,4.913-0.449,9.945-0.456,14.955c-0.003,3.388-2.755,6.132-6.141,6.127
						C1077.993,811.859,1076.127,810.788,1075.026,809.157z"/>
				</g>
				<g>
					
						<linearGradient id="SVGID_00000106841179941222307500000001507505254120688777_" gradientUnits="userSpaceOnUse" x1="1088.7495" y1="877.7924" x2="1498.9856" y2="1348.5557" gradientTransform="matrix(0.9946 -0.1039 0.1039 0.9946 -39.5606 -147.2769)">
						<stop  offset="0" style="stop-color:#A737D5"/>
						<stop  offset="1" style="stop-color:#EF497A"/>
					</linearGradient>
					<path style="fill:url(#SVGID_00000106841179941222307500000001507505254120688777_);" d="M1143.556,769.041
						c-0.382,1.268,0.083,2.641,1.158,3.415l30.668,22.106c-1.101,17.62,0.599,35.543,5.319,53.088l-25.636,27.751
						c-0.9,0.973-1.082,2.41-0.455,3.577l21.457,39.949c0.628,1.168,1.926,1.808,3.234,1.597l37.292-6.051
						c12.022,13.623,26.025,24.938,41.324,33.75l1.495,37.775c0.053,1.324,0.939,2.469,2.208,2.851l43.42,13.075
						c1.27,0.382,2.641-0.083,3.416-1.158l22.105-30.668c17.62,1.102,35.544-0.599,53.089-5.32l27.75,25.637
						c0.974,0.899,2.41,1.082,3.577,0.455l39.949-21.458c1.168-0.627,1.809-1.926,1.596-3.234l-6.051-37.293
						c13.624-12.021,24.938-26.025,33.749-41.323l37.776-1.496c1.323-0.053,2.469-0.939,2.851-2.207l13.075-43.421
						c0.383-1.269-0.083-2.64-1.158-3.415l-30.669-22.105c1.102-17.62-0.599-35.543-5.319-53.088l25.638-27.751
						c0.899-0.973,1.082-2.409,0.455-3.577l-21.458-39.949c-0.627-1.167-1.925-1.808-3.234-1.596l-37.293,6.051
						c-12.021-13.624-26.025-24.939-41.324-33.75l-1.495-37.774c-0.052-1.325-0.939-2.47-2.208-2.852l-43.42-13.075
						c-1.269-0.382-2.641,0.083-3.416,1.158l-22.105,30.667c-17.62-1.102-35.544,0.6-53.089,5.32l-27.751-25.638
						c-0.972-0.898-2.41-1.082-3.577-0.454l-39.948,21.457c-1.167,0.628-1.809,1.926-1.597,3.234l6.051,37.293
						c-13.623,12.021-24.938,26.024-33.749,41.323l-37.775,1.496c-1.324,0.053-2.469,0.939-2.852,2.208L1143.556,769.041z"/>
					<path style="opacity:0.56;fill:#FFFFFF;" d="M1302.224,830.626c-5.537-8.201-8.291-17.921-7.836-27.986
						c0.561-12.381,5.91-23.802,15.062-32.16c18.883-17.252,48.287-15.923,65.548,2.964c17.245,18.946,15.923,48.302-2.967,65.555
						c-9.151,8.361-21.01,12.656-33.388,12.094c-12.383-0.558-23.807-5.907-32.164-15.063
						C1304.919,834.318,1303.496,832.51,1302.224,830.626z M1369.041,785.655c-0.924-1.368-1.957-2.683-3.101-3.939
						c-12.696-13.892-34.324-14.869-48.22-2.177c-6.728,6.147-10.668,14.55-11.076,23.654c-0.412,9.111,2.755,17.826,8.895,24.565
						l0,0c6.149,6.73,14.552,10.666,23.656,11.079c9.111,0.412,17.833-2.748,24.566-8.899
						C1376.4,818.394,1378.351,799.445,1369.041,785.655z"/>
					<path style="opacity:0.56;fill:#FFFFFF;" d="M1245.96,869.676c-2.172-3.217-4.197-6.57-6.075-10.058
						c-3.724-6.929-6.748-14.244-8.99-21.761c-0.098-0.339-0.197-0.677-0.295-1.016c-0.757-2.619,0.311-5.331,2.454-6.782
						c0.521-0.352,1.108-0.629,1.743-0.812c3.255-0.939,6.642,0.951,7.589,4.196c2.027,7.038,4.823,13.888,8.305,20.363l0.002,0.003
						c0.19,0.356,0.387,0.711,0.58,1.062c8.38,15.249,20.243,27.831,34.514,36.978c7.747,4.964,16.21,8.914,25.222,11.717
						c0.073,0.023,0.146,0.046,0.219,0.069c0.227,0.067,0.448,0.139,0.673,0.204c26.417,7.953,54.351,5.146,78.655-7.909
						c3.147-1.687,6.18-3.522,9.099-5.493c19.639-13.263,33.999-32.717,40.928-55.717c7.953-26.418,5.141-54.349-7.912-78.65
						c-13.055-24.282-34.793-42.07-61.208-50.029c-26.417-7.953-54.352-5.146-78.655,7.909c-3.094,1.659-6.091,3.473-8.98,5.423
						c-12.53,8.463-23.065,19.569-30.814,32.564c-0.479,0.801-1.108,1.453-1.834,1.94c-1.906,1.287-4.468,1.444-6.575,0.186
						c-2.905-1.743-3.864-5.498-2.124-8.414c8.672-14.539,20.461-26.969,34.473-36.437c3.237-2.185,6.588-4.213,10.047-6.071
						c27.195-14.607,58.446-17.748,88.004-8.847c29.552,8.901,53.882,28.751,68.476,55.966c14.607,27.191,17.751,58.44,8.846,87.997
						c-7.745,25.731-23.813,47.493-45.785,62.332c-3.262,2.202-6.659,4.258-10.175,6.147
						C1343.718,935.012,1278.705,918.177,1245.96,869.676z"/>
				</g>
			</g>
		</g>
		<g>
			<g>
				
					<linearGradient id="SVGID_00000124853816905358900980000012151463746826225540_" gradientUnits="userSpaceOnUse" x1="1896.2776" y1="2549.481" x2="1900.2786" y2="2478.7976">
					<stop  offset="0" style="stop-color:#2B3582"/>
					<stop  offset="1" style="stop-color:#150E42"/>
				</linearGradient>
				<path style="fill:url(#SVGID_00000124853816905358900980000012151463746826225540_);" d="M1844.483,2463.564
					c-0.556,1.053-35.586,26.83-35.586,26.83s7.736,55.342,39.149,77.195c34.537,24.026,83.311-19.79,83.311-19.79
					s38.816,9.227,59.459-71.574c4.736-18.538-22.601-20.104-55.594-16.69C1892.675,2463.938,1844.483,2463.564,1844.483,2463.564z"
					/>
				
					<linearGradient id="SVGID_00000150084235773431914520000014991938909457138565_" gradientUnits="userSpaceOnUse" x1="1897.725" y1="2654.8848" x2="1897.725" y2="3138.5298">
					<stop  offset="0" style="stop-color:#FDF53F"/>
					<stop  offset="1" style="stop-color:#D93C65"/>
				</linearGradient>
				<path style="fill:url(#SVGID_00000150084235773431914520000014991938909457138565_);" d="M1779.008,2652.373
					c13.704-9.422,28.855-16.526,44.918-20.897c6.033-1.642,38.61,7.826,58.748,7.363c27.643-0.635,55.781-13.215,78.567-7.537
					c22.634,5.64,41.158,13.007,51.855,20.615c32.016,22.771,50.814,65.231,62.269,107.289
					c-21.691,22.266-48.988,32.162-48.988,32.162l-5.044,204.434l-120.886,61.85l-137.977-69.272l4.943-199.781
					c0,0-43.815-20.404-47.029-27.826C1717.167,2753.351,1740.352,2678.952,1779.008,2652.373z"/>
				
					<linearGradient id="SVGID_00000079477140492739125980000002586968368791500725_" gradientUnits="userSpaceOnUse" x1="1692.4243" y1="2716.1152" x2="1922.1411" y2="3271.0156">
					<stop  offset="0" style="stop-color:#F9B776"/>
					<stop  offset="1" style="stop-color:#F47960"/>
				</linearGradient>
				<path style="fill:url(#SVGID_00000079477140492739125980000002586968368791500725_);" d="M1722.423,2759.881
					c0,0-58.714,162.778,75.175,229.679c27.801-3.693,17.108-49.862,17.108-49.862s-58.176-12.874-40.704-148.662
					C1757.917,2777.802,1722.423,2759.881,1722.423,2759.881z"/>
				
					<linearGradient id="SVGID_00000123421830970740828280000011568242654473443254_" gradientUnits="userSpaceOnUse" x1="-6266.7324" y1="2714.9224" x2="-6037.0156" y2="3269.823" gradientTransform="matrix(-1 0 0 1 -4167.0742 0)">
					<stop  offset="0" style="stop-color:#F9B776"/>
					<stop  offset="1" style="stop-color:#F47960"/>
				</linearGradient>
				<path style="fill:url(#SVGID_00000123421830970740828280000011568242654473443254_);" d="M2072.54,2759.881
					c0,0,40.401,169.918-75.175,229.679c-27.801-3.693-17.108-49.862-17.108-49.862s46.886-23.091,40.704-148.662
					C2037.047,2777.802,2072.54,2759.881,2072.54,2759.881z"/>
				
					<linearGradient id="SVGID_00000169553899542538851170000010206216988735619475_" gradientUnits="userSpaceOnUse" x1="1896.4777" y1="2787.7134" x2="1884.5254" y2="3271.7881">
					<stop  offset="0" style="stop-color:#2B3582"/>
					<stop  offset="1" style="stop-color:#150E42"/>
				</linearGradient>
				<path style="fill:url(#SVGID_00000169553899542538851170000010206216988735619475_);" d="M2021.911,3000.993h-256.978
					c-2.23,0-4.055-1.825-4.055-4.055v-170.914c0-2.23,1.825-4.055,4.055-4.055h256.978c2.23,0,4.055,1.825,4.055,4.055v170.914
					C2025.965,2999.168,2024.141,3000.993,2021.911,3000.993z"/>
				<g>
					
						<linearGradient id="SVGID_00000105405582115141927530000017401433585503719090_" gradientUnits="userSpaceOnUse" x1="2048.2798" y1="3046.2395" x2="2173.812" y2="3046.2395" gradientTransform="matrix(1 0.0077 -0.0077 1 9.5247 16.8137)">
						<stop  offset="0" style="stop-color:#2C759E"/>
						<stop  offset="1" style="stop-color:#051042"/>
					</linearGradient>
					<path style="fill:url(#SVGID_00000105405582115141927530000017401433585503719090_);" d="M2142.237,3054.067
						c-30.337-6.964-100.454-3.22-100.454-3.22l-2.852,7.723l-4.723,38.388c0,0,66.774,12.036,99.688,12.007
						c3.358-0.003,6.43-0.507,9.235-1.38c1.003-0.9,1.984-1.834,2.912-2.847C2160.008,3089.487,2155.975,3067.083,2142.237,3054.067
						z"/>
					
						<linearGradient id="SVGID_00000044900051165368053340000004588477752424430516_" gradientUnits="userSpaceOnUse" x1="2189.2278" y1="3047.7974" x2="2079.0071" y2="3046.4746" gradientTransform="matrix(1 0.0077 -0.0077 1 9.5247 16.8137)">
						<stop  offset="0" style="stop-color:#53D8FF"/>
						<stop  offset="1" style="stop-color:#3840F7"/>
					</linearGradient>
					<path style="fill:url(#SVGID_00000044900051165368053340000004588477752424430516_);" d="M2145.243,3054.828
						c-0.95-0.267-1.956-0.52-3.006-0.761c13.738,13.017,17.771,35.42,3.807,50.671c-0.927,1.013-1.908,1.947-2.912,2.847
						C2167.823,3099.9,2170.747,3062.003,2145.243,3054.828z"/>
					
						<linearGradient id="SVGID_00000001635136603421550130000003729820198225077126_" gradientUnits="userSpaceOnUse" x1="2117.2039" y1="2852.4854" x2="1984.6963" y2="3211.397">
						<stop  offset="0" style="stop-color:#F9B776"/>
						<stop  offset="1" style="stop-color:#F47960"/>
					</linearGradient>
					<path style="fill:url(#SVGID_00000001635136603421550130000003729820198225077126_);" d="M2021.636,3048.686l11.873,0.506
						c6.379,0.272,12.391,3.38,16.68,8.624c4.29,5.244,6.495,12.181,6.12,19.249c-0.299,5.635-2.612,10.906-6.425,14.645
						c-3.813,3.739-8.813,5.637-13.893,5.276l-18.167-1.293L2021.636,3048.686z"/>
				</g>
				<g>
					
						<linearGradient id="SVGID_00000069386108083629310710000017701905128386083251_" gradientUnits="userSpaceOnUse" x1="-6604.9575" y1="2997.5454" x2="-6479.3721" y2="2997.5454" gradientTransform="matrix(-0.9998 -0.02 -0.02 0.9998 -4813.9961 -50.8396)">
						<stop  offset="0" style="stop-color:#2C759E"/>
						<stop  offset="1" style="stop-color:#051042"/>
					</linearGradient>
					<path style="fill:url(#SVGID_00000069386108083629310710000017701905128386083251_);" d="M1622.405,3050.374
						c30.499-6.031,100.496-0.136,100.496-0.136l2.658,7.808l3.763,38.519c0,0-67.049,9.982-99.95,8.943
						c-3.357-0.106-6.415-0.704-9.197-1.663c-0.981-0.931-1.938-1.895-2.84-2.936
						C1603.757,3085.235,1608.348,3062.965,1622.405,3050.374z"/>
					
						<linearGradient id="SVGID_00000000938528861613838350000013199946470440913048_" gradientUnits="userSpaceOnUse" x1="-6463.9912" y1="2999.0081" x2="-6573.8516" y2="2997.6897" gradientTransform="matrix(-0.9998 -0.02 -0.02 0.9998 -4813.9961 -50.8396)">
						<stop  offset="0" style="stop-color:#53D8FF"/>
						<stop  offset="1" style="stop-color:#3840F7"/>
					</linearGradient>
					<path style="fill:url(#SVGID_00000000938528861613838350000013199946470440913048_);" d="M1619.381,3051.043
						c0.956-0.238,1.968-0.459,3.024-0.669c-14.058,12.591-18.648,34.861-5.07,50.535c0.902,1.041,1.859,2.005,2.84,2.936
						C1595.685,3095.405,1593.708,3057.432,1619.381,3051.043z"/>
					
						<linearGradient id="SVGID_00000129910847583883721150000000581003157462165695_" gradientUnits="userSpaceOnUse" x1="1851.7218" y1="2744.3269" x2="1719.1442" y2="3103.4275">
						<stop  offset="0" style="stop-color:#F9B776"/>
						<stop  offset="1" style="stop-color:#F47960"/>
					</linearGradient>
					<path style="fill:url(#SVGID_00000129910847583883721150000000581003157462165695_);" d="M1743.094,3048.696l-11.881,0.142
						c-6.383,0.077-12.47,2.999-16.889,8.109c-4.418,5.11-6.796,11.977-6.597,19.054c0.159,5.642,2.338,10.982,6.057,14.836
						c3.719,3.854,8.669,5.906,13.756,5.7l18.192-0.735L1743.094,3048.696z"/>
				</g>
				
					<linearGradient id="SVGID_00000022546714435223868300000010944585604860278206_" gradientUnits="userSpaceOnUse" x1="2173.3682" y1="2845.5574" x2="1828.8962" y2="3104.323">
					<stop  offset="0" style="stop-color:#CB236D"/>
					<stop  offset="1" style="stop-color:#4C246D"/>
				</linearGradient>
				<path style="fill:url(#SVGID_00000022546714435223868300000010944585604860278206_);" d="M2150.721,2933.722
					c-13.758-31.664-47.407-36.804-76.046-21.999c-0.499,0.655-181.877,93.613-341.832,134.354
					c4.579,14.68,6.934,30.301,7.447,45.654c0.093,3.421,0.035,6.795-0.165,10.124c122.662-6.3,255.786-47.208,370.18-83.158
					C2145.778,3007.258,2165.97,2968.817,2150.721,2933.722z"/>
				
					<linearGradient id="SVGID_00000010287240061505461950000012579231975301817748_" gradientUnits="userSpaceOnUse" x1="1861.8601" y1="3077.6448" x2="1771.5787" y2="2847.4277">
					<stop  offset="0" style="stop-color:#CB236D"/>
					<stop  offset="1" style="stop-color:#4C246D"/>
				</linearGradient>
				<path style="fill:url(#SVGID_00000010287240061505461950000012579231975301817748_);" d="M2022.508,3094.138
					c-0.479-17.698,2.962-34.172,10.322-49.425c0.21-0.699,0.462-1.369,0.685-2.059c-9.134-2.829-20.934-6.662-36.436-11.92
					c-113.583-38.871-200.234-78.12-282.933-123.302c-32.127-17.552-68.656-5.789-78.94,32.226
					c-9.181,33.936,10.98,62.909,41.579,73.091c91.544,30.463,43.88,22.001,73.778,31.623
					c80.293,24.829,180.208,47.444,272.136,53.62C2022.63,3096.706,2022.551,3095.419,2022.508,3094.138z"/>
				
					<linearGradient id="SVGID_00000000928279808515964150000005833317870199004066_" gradientUnits="userSpaceOnUse" x1="1894.0828" y1="2761.9319" x2="1891.0262" y2="2495.9954">
					<stop  offset="0" style="stop-color:#F9B776"/>
					<stop  offset="1" style="stop-color:#F47960"/>
				</linearGradient>
				<path style="fill:url(#SVGID_00000000928279808515964150000005833317870199004066_);" d="M1823.925,2631.476
					c0,0,12.216,52.936,71.523,51.837c60.406-1.099,65.792-52.011,65.792-52.011l-39.459-8.444l-3.298-43.967l-59.355,4.397
					l-1.099,41.768L1823.925,2631.476z"/>
				
					<linearGradient id="SVGID_00000005256981484428464460000013141653193706196910_" gradientUnits="userSpaceOnUse" x1="2098.2625" y1="1944.9506" x2="2107.7837" y2="1713.5394" gradientTransform="matrix(0.987 0.1608 -0.1608 0.987 126.9837 357.2448)">
					<stop  offset="0" style="stop-color:#F9B776"/>
					<stop  offset="1" style="stop-color:#F47960"/>
				</linearGradient>
				<path style="fill:url(#SVGID_00000005256981484428464460000013141653193706196910_);" d="M1867.461,2454.32
					c0,0-68.021,131.76,12.667,163.727c56.914,22.547,92.598-87.499,81.955-117.304c-16.457-46.086-27.295-40.617-27.295-40.617
					L1867.461,2454.32z"/>
				
					<linearGradient id="SVGID_00000162329479586913313360000010851959556948943232_" gradientUnits="userSpaceOnUse" x1="1935.8076" y1="2330.3259" x2="1908.8013" y2="2437.3511">
					<stop  offset="0" style="stop-color:#2B3582"/>
					<stop  offset="1" style="stop-color:#150E42"/>
				</linearGradient>
				<path style="fill:url(#SVGID_00000162329479586913313360000010851959556948943232_);" d="M1978.451,2442.331
					c33.604,9.236,4.885,82.115-45.707,64.88c-50.592-17.234-70.473-16.982-78.356-3.09c-7.884,13.892-9.578,63.227-26.683,38.842
					c-18.754-26.734-29.211-80.393-6.217-97.691c20.55-15.459,25.345-39.428,49.993-38.597c32.716,1.103,58.017-13.399,72.784-2.941
					C1961.225,2415.745,1953.725,2435.535,1978.451,2442.331z"/>
				
					<linearGradient id="SVGID_00000084503454657170286000000001577929605126464946_" gradientUnits="userSpaceOnUse" x1="1483.5206" y1="3085.3254" x2="1498.4417" y2="2722.6824" gradientTransform="matrix(0.9911 -0.1329 0.1329 0.9911 -26.0254 -216.2621)">
					<stop  offset="0" style="stop-color:#F9B776"/>
					<stop  offset="1" style="stop-color:#F47960"/>
				</linearGradient>
				<path style="fill:url(#SVGID_00000084503454657170286000000001577929605126464946_);" d="M1851.276,2515.451
					c0,0-14.507-15.609-16.829,3.204c-2.322,18.813,5.133,43.042,13.867,29.761
					C1857.048,2535.135,1851.276,2515.451,1851.276,2515.451z"/>
			</g>
			
				<linearGradient id="SVGID_00000068669024028485900300000003102957758451617724_" gradientUnits="userSpaceOnUse" x1="1895.1285" y1="2750.8264" x2="1887.4088" y2="3120.2585">
				<stop  offset="0" style="stop-color:#53D8FF"/>
				<stop  offset="1" style="stop-color:#3840F7"/>
			</linearGradient>
			<path style="fill:url(#SVGID_00000068669024028485900300000003102957758451617724_);" d="M1909.058,2870.451
				c1.406,9.498-3.683,18.119-13.181,19.525c-9.498,1.406-18.337-5.155-19.742-14.652c-1.405-9.498,2.942-18.931,12.439-20.337
				C1898.073,2853.581,1907.652,2860.953,1909.058,2870.451z"/>
		</g>
	</g>
</g>
</svg>
