<?xml version="1.0" encoding="utf-8"?>
<!-- Generator: Adobe Illustrator 27.5.0, SVG Export Plug-In . SVG Version: 6.00 Build 0)  -->
<svg version="1.1" xmlns="http://www.w3.org/2000/svg" xmlns:xlink="http://www.w3.org/1999/xlink" x="0px" y="0px"
	 viewBox="0 0 500 500" style="enable-background:new 0 0 500 500;" xml:space="preserve">
<g id="BACKGROUND">
	<rect style="fill:#00BCE6;" width="500" height="500"/>
</g>
<g id="OBJECTS">
	<path style="fill:#009ACC;" d="M404.79,399.712H96.199c-5.206,0-9.466-4.259-9.466-9.466l0,0c0-5.206,4.26-9.466,9.466-9.466
		H404.79c5.206,0,9.466,4.26,9.466,9.466l0,0C414.256,395.453,409.996,399.712,404.79,399.712z"/>
	<g>
		<g>
			<path style="fill:#C4C4C4;" d="M296.77,392.799h-93.54c-8.027,0-12.025-6.187-9.161-18.2l20.25-84.952
				c1.075-4.511,5.523-8.004,9.941-8.004h51.482c4.418,0,8.865,3.493,9.941,8.004l20.25,84.952
				C308.795,386.612,304.797,392.799,296.77,392.799z"/>
			<path style="fill:#A6A6A6;" d="M304.073,366.802c-17.093,3.577-35.251,5.505-54.073,5.505s-36.979-1.928-54.073-5.505
				l-1.859,7.797c-2.863,12.013,1.134,18.2,9.161,18.2h93.54c8.027,0,12.025-6.187,9.161-18.2L304.073,366.802z"/>
			<path style="fill:#A6A6A6;" d="M250,335.461c17.635,0,34.171,2.78,48.422,7.637l-12.741-53.451
				c-1.075-4.511-5.523-8.004-9.941-8.004h-51.482c-4.418,0-8.865,3.493-9.941,8.004l-12.741,53.451
				C215.829,338.241,232.365,335.461,250,335.461z"/>
			<path style="fill:#253A56;" d="M423.337,327.403H76.663c-7.03,0-12.782-5.752-12.782-12.782V102.448
				c0-7.03,5.752-12.782,12.782-12.782h346.674c7.03,0,12.782,5.752,12.782,12.782v212.173
				C436.119,321.651,430.367,327.403,423.337,327.403z"/>
			<path style="fill:#B5E7F2;" d="M414.093,287.701H85.907c-6.971,0-12.622-5.651-12.622-12.622V111.418
				c0-6.971,5.651-12.623,12.622-12.623h328.185c6.971,0,12.622,5.651,12.622,12.623v163.661
				C426.715,282.05,421.064,287.701,414.093,287.701z"/>
			<rect x="102.393" y="98.795" style="fill:#A8D6E0;" width="295.214" height="188.906"/>
			<rect x="109.109" y="98.795" style="fill:#FFFFFF;" width="281.783" height="188.906"/>
			<rect x="268.908" y="135.25" style="fill:#E3E3E3;" width="27.77" height="23.439"/>
			<polygon style="fill:#E3E3E3;" points="325.28,180.594 314.815,168.1 231.029,168.1 231.029,180.594 			"/>
			<rect x="124.48" y="188.934" style="fill:#E3E3E3;" width="88.898" height="12.494"/>
			<rect x="109.109" y="224.746" style="fill:#F2DB80;" width="281.783" height="62.955"/>
			<path style="fill:#D6C176;" d="M360.332,279.233h-90.227c-6.061,0-11.021-4.959-11.021-11.021l0,0
				c0-6.061,4.959-11.021,11.021-11.021h90.227c6.061,0,11.021,4.959,11.021,11.021l0,0
				C371.353,274.274,366.393,279.233,360.332,279.233z"/>
			<rect x="124.44" y="133.444" style="fill:#E3E3E3;" width="130.194" height="23.439"/>
			<rect x="124.44" y="133.444" style="fill:#BFBFBF;" width="130.194" height="2.478"/>
			<rect x="109.109" y="208.535" style="fill:#253A56;" width="281.783" height="32.423"/>
			<circle style="fill:#172436;" cx="211.931" cy="226.584" r="9.45"/>
			<circle style="fill:#172436;" cx="135.794" cy="226.584" r="9.45"/>
			<circle style="fill:#172436;" cx="364.206" cy="226.584" r="9.45"/>
			<circle style="fill:#172436;" cx="288.069" cy="226.584" r="9.45"/>
			<circle style="fill:#172436;" cx="250" cy="224.746" r="9.45"/>
			<circle style="fill:#E3D07F;" cx="211.931" cy="224.746" r="9.45"/>
			<circle style="fill:#172436;" cx="173.862" cy="224.746" r="9.45"/>
			<circle style="fill:#FF615B;" cx="135.794" cy="224.746" r="9.45"/>
			<circle style="fill:#F0E460;" cx="364.206" cy="224.746" r="9.45"/>
			<circle style="fill:#172436;" cx="326.138" cy="224.746" r="9.45"/>
			<path style="fill:#111B29;" d="M250,218.563c4.661,0,8.525,3.378,9.3,7.817c0.093-0.532,0.151-1.075,0.151-1.634
				c0-5.219-4.231-9.45-9.45-9.45c-5.219,0-9.45,4.231-9.45,9.45c0,0.558,0.058,1.102,0.151,1.634
				C241.475,221.941,245.339,218.563,250,218.563z"/>
			<path style="fill:#111B29;" d="M173.862,218.563c4.661,0,8.525,3.378,9.3,7.817c0.093-0.532,0.151-1.075,0.151-1.634
				c0-5.219-4.231-9.45-9.45-9.45c-5.219,0-9.45,4.231-9.45,9.45c0,0.558,0.058,1.102,0.151,1.634
				C165.338,221.941,169.201,218.563,173.862,218.563z"/>
			<path style="fill:#111B29;" d="M326.138,218.563c4.661,0,8.525,3.378,9.3,7.817c0.093-0.532,0.151-1.075,0.151-1.634
				c0-5.219-4.231-9.45-9.45-9.45c-5.219,0-9.45,4.231-9.45,9.45c0,0.558,0.058,1.102,0.151,1.634
				C317.613,221.941,321.477,218.563,326.138,218.563z"/>
			<circle style="fill:#E3D07F;" cx="288.069" cy="224.746" r="9.45"/>
			<polygon style="fill:#FF615B;" points="311.378,122.234 109.109,122.234 109.109,98.795 323.699,98.795 			"/>
			<rect x="268.908" y="133.444" style="fill:#00BCE6;" width="27.77" height="23.439"/>
			<polygon style="fill:#ABDB63;" points="323.699,178.661 313.189,166.168 231.029,166.168 231.029,178.661 			"/>
			<rect x="124.48" y="166.168" style="fill:#E3E3E3;" width="88.898" height="12.494"/>
			<rect x="124.48" y="166.168" style="fill:#BFBFBF;" width="88.898" height="1.493"/>
			<rect x="231.029" y="187.001" style="fill:#E3E3E3;" width="144.492" height="12.494"/>
			<rect x="231.029" y="187.001" style="fill:#BFBFBF;" width="144.492" height="1.325"/>
			<rect x="124.48" y="187.001" style="fill:#FF615B;" width="88.898" height="12.494"/>
			<path style="fill:#E6E6E6;" d="M63.881,296.831v17.79c0,7.03,5.752,12.782,12.782,12.782h346.674
				c7.03,0,12.782-5.752,12.782-12.782v-17.79H63.881z"/>
			<path style="fill:#E6E6E6;" d="M318.307,393.074H181.693c-4.247,0-7.722-3.475-7.722-7.722l0,0c0-4.247,3.475-7.722,7.722-7.722
				h136.614c4.247,0,7.722,3.475,7.722,7.722l0,0C326.029,389.599,322.554,393.074,318.307,393.074z"/>
			<path style="fill:#A6A6A6;" d="M323.703,379.846c0.086,0.461,0.137,0.934,0.137,1.418c0,4.247-3.475,7.722-7.722,7.722H179.504
				c-2.096,0-4.001-0.848-5.396-2.216c0.672,3.575,3.823,6.303,7.585,6.303h136.614c4.247,0,7.722-3.475,7.722-7.722
				C326.029,383.201,325.135,381.25,323.703,379.846z"/>
			<path style="fill:#FFFFFF;" d="M224.38,385.352h-41.395c-1.124,0-2.044-0.92-2.044-2.044l0,0c0-1.124,0.92-2.044,2.044-2.044
				h41.395c1.124,0,2.044,0.92,2.044,2.044l0,0C226.424,384.432,225.504,385.352,224.38,385.352z"/>
			<path style="fill:#FFFFFF;" d="M245.768,385.352h-9.34c-1.124,0-2.044-0.92-2.044-2.044l0,0c0-1.124,0.92-2.044,2.044-2.044h9.34
				c1.124,0,2.044,0.92,2.044,2.044l0,0C247.811,384.432,246.892,385.352,245.768,385.352z"/>
			<path style="fill:#C4C4C4;" d="M417.705,319.021h5.066c2.169,0,3.944-1.775,3.944-3.944v-5.066c0-2.169-1.775-3.944-3.944-3.944
				h-5.066c-2.169,0-3.944,1.775-3.944,3.944v5.066C413.761,317.246,415.536,319.021,417.705,319.021z"/>
			<path style="fill:#C4C4C4;" d="M400.123,316.676h3.232c1.384,0,2.516-1.132,2.516-2.516v-3.232c0-1.384-1.132-2.516-2.516-2.516
				h-3.232c-1.384,0-2.516,1.132-2.516,2.516v3.232C397.607,315.544,398.739,316.676,400.123,316.676z"/>
			<path style="fill:#C4C4C4;" d="M385.143,316.676h3.232c1.384,0,2.516-1.132,2.516-2.516v-3.232c0-1.384-1.132-2.516-2.516-2.516
				h-3.232c-1.384,0-2.516,1.132-2.516,2.516v3.232C382.627,315.544,383.759,316.676,385.143,316.676z"/>
			<path style="fill:#C4C4C4;" d="M370.163,316.676h3.232c1.384,0,2.516-1.132,2.516-2.516v-3.232c0-1.384-1.132-2.516-2.516-2.516
				h-3.232c-1.384,0-2.516,1.132-2.516,2.516v3.232C367.647,315.544,368.779,316.676,370.163,316.676z"/>
			
				<ellipse transform="matrix(0.2623 -0.965 0.965 0.2623 -116.7575 471.5093)" style="fill:#FFFFFF;" cx="250" cy="312.117" rx="9.236" ry="9.236"/>
			<path style="fill:#C4C4C4;" d="M243.469,312.117c0-3.607,2.924-6.531,6.531-6.531c3.607,0,6.531,2.924,6.531,6.531
				c0,3.607-2.924,6.531-6.531,6.531C246.393,318.648,243.469,315.724,243.469,312.117z"/>
		</g>
		<path style="fill:#D6C176;" d="M230.389,277.009h-90.227c-6.061,0-11.021-4.959-11.021-11.021l0,0
			c0-6.061,4.959-11.021,11.021-11.021h90.227c6.061,0,11.021,4.959,11.021,11.021l0,0
			C241.41,272.05,236.45,277.009,230.389,277.009z"/>
		<path style="fill:#CCB461;" d="M140.162,257.458h90.227c5.639,0,10.32,4.295,10.944,9.774c0.048-0.409,0.076-0.823,0.076-1.244
			c0-6.061-4.959-11.021-11.02-11.021h-90.227c-6.061,0-11.021,4.959-11.021,11.021c0,0.421,0.028,0.835,0.076,1.244
			C129.843,261.753,134.523,257.458,140.162,257.458z"/>
		<path style="fill:#FFFFFF;" d="M360.827,277.009H270.6c-6.061,0-11.021-4.959-11.021-11.021l0,0
			c0-6.061,4.959-11.021,11.021-11.021h90.227c6.061,0,11.021,4.959,11.021,11.021l0,0
			C371.847,272.05,366.888,277.009,360.827,277.009z"/>
	</g>
	<g>
		<polygon style="fill:#E3D07F;" points="107.647,372.825 83.755,365.149 61.968,374.434 89.657,383.346 		"/>
		<polygon style="fill:#E3D07F;" points="141.382,372.825 165.274,365.149 187.061,374.434 159.372,383.346 		"/>
		<polygon style="fill:#C4B160;" points="141.531,372.825 107.647,372.825 89.657,383.346 159.522,383.346 		"/>
		
			<rect x="98.729" y="342.512" transform="matrix(0.9137 -0.4064 0.4064 0.9137 -148.2039 76.061)" style="fill:#FFFFFF;" width="12.494" height="88.898"/>
		
			<rect x="91.166" y="387.79" transform="matrix(0.7224 -0.6915 0.6915 0.7224 -234.8295 203.1769)" style="fill:#FF615B;" width="88.898" height="12.494"/>
		
			<rect x="80.14" y="382.701" transform="matrix(0.1083 -0.9941 0.9941 0.1083 -275.5662 470.6666)" style="fill:#ABDB63;" width="88.898" height="12.494"/>
		<path style="fill:#009ACC;" d="M148.422,427.1h-47.665c-0.461,0-0.914,0.123-1.312,0.355l-17.171,10.042
			c-2.288,1.338-1.339,4.84,1.311,4.84h82.008c2.65,0,3.599-3.502,1.312-4.84l-17.171-10.042
			C149.335,427.223,148.883,427.1,148.422,427.1z"/>
		<rect x="89.657" y="383.346" style="fill:#E3D07F;" width="69.866" height="54.305"/>
	</g>
	<g>
		<g style="opacity:0.1;">
			<path d="M397.177,131.67l8.681-2.669c-2.177-7.083-6.12-13.598-11.4-18.841l-6.398,6.443c-2.518-2.5-5.401-4.629-8.561-6.308
				l4.263-8.023c-6.499-3.452-13.845-5.278-21.245-5.278h-0.111v9.081c-3.658,0.011-7.187,0.565-10.514,1.583l-2.659-8.684
				c-7.084,2.169-13.605,6.104-18.855,11.38l6.437,6.405c-2.502,2.515-4.634,5.397-6.316,8.555l-8.018-4.27
				c-3.467,6.51-5.3,13.871-5.3,21.285v0.074l9.079-0.037c0.004,3.671,0.556,7.213,1.574,10.552l-8.687,2.65
				c2.161,7.087,6.09,13.61,11.361,18.865l6.411-6.43c2.512,2.505,5.392,4.639,8.549,6.325l-4.277,8.014
				c6.52,3.481,13.895,5.321,21.326,5.321h0.036l-0.018-9.079c3.665-0.002,7.201-0.552,10.535-1.565l2.641,8.691
				c7.09-2.154,13.617-6.076,18.878-11.342l-6.422-6.416c2.508-2.51,4.645-5.388,6.334-8.543l8.008,4.286
				c3.496-6.531,5.343-13.919,5.343-21.367v-0.148h-9.082C398.754,138.525,398.199,134.996,397.177,131.67z M382.077,142.329
				c0,10.803-8.757,19.56-19.56,19.56c-10.803,0-19.56-8.757-19.56-19.56c0-10.803,8.757-19.56,19.56-19.56
				C373.319,122.769,382.077,131.527,382.077,142.329z"/>
			<ellipse transform="matrix(0.7071 -0.7071 0.7071 0.7071 5.5364 298.0252)" cx="362.516" cy="142.33" rx="11.635" ry="11.635"/>
		</g>
		<g>
			<g>
				<path style="fill:#00BCE6;" d="M362.553,183.35h-0.036c-7.431,0-14.806-1.84-21.326-5.321l8.55-16.017
					c3.955,2.111,8.254,3.182,12.777,3.182L362.553,183.35z M375.711,181.397l-5.278-17.371c4.242-1.289,8.154-3.642,11.312-6.803
					l12.844,12.832C389.328,175.321,382.8,179.243,375.711,181.397z M330.509,170.12c-5.27-5.255-9.199-11.778-11.361-18.865
					l17.365-5.298c1.294,4.242,3.651,8.151,6.815,11.306L330.509,170.12z M402.508,159.382l-16.007-8.567
					c2.12-3.96,3.194-8.266,3.194-12.799v-0.148h18.156v0.148C407.851,145.463,406.003,152.851,402.508,159.382z M317.182,138.089
					v-0.074c0-7.414,1.832-14.774,5.3-21.285l16.025,8.534c-2.102,3.949-3.168,8.239-3.168,12.751L317.182,138.089z
					 M388.503,130.022c-1.303-4.241-3.668-8.146-6.838-11.294l12.793-12.883c5.28,5.243,9.223,11.758,11.4,18.841L388.503,130.022z
					 M343.248,118.847l-12.87-12.807c5.25-5.276,11.77-9.211,18.855-11.38l5.316,17.361
					C350.307,113.32,346.401,115.68,343.248,118.847z M375.242,113.993c-3.941-2.094-8.222-3.156-12.725-3.156h-0.111V92.681h0.111
					c7.4,0,14.746,1.825,21.245,5.278L375.242,113.993z"/>
			</g>
			<path style="fill:#009EC2;" d="M362.516,101.759c-20.024,0-36.256,16.232-36.256,36.256s16.232,36.256,36.256,36.256
				s36.256-16.232,36.256-36.256S382.54,101.759,362.516,101.759z M362.516,157.576c-10.803,0-19.56-8.758-19.56-19.56
				s8.757-19.56,19.56-19.56c10.803,0,19.56,8.757,19.56,19.56S373.319,157.576,362.516,157.576z"/>
			
				<ellipse transform="matrix(0.1608 -0.987 0.987 0.1608 168.0166 473.6286)" style="fill:#009EC2;" cx="362.516" cy="138.015" rx="11.635" ry="11.635"/>
		</g>
		<g style="opacity:0.1;">
			<path d="M436.119,108.354l-3.922-3.917c1.384-1.385,2.606-2.928,3.65-4.596c-0.949-4.53-4.314-8.197-8.673-9.58
				c-1.794,5.692-7.113,9.821-13.398,9.821c-6.5,0-11.954-4.421-13.556-10.416h-12.22c0.191,1.36,0.478,2.688,0.869,3.973
				l-6.24,1.902c1.551,5.09,4.373,9.776,8.16,13.551l4.604-4.618c1.804,1.799,3.873,3.332,6.14,4.543l-3.072,5.755
				c4.684,2.5,9.98,3.821,15.316,3.821h0.027l-0.013-6.52c2.632-0.001,5.171-0.396,7.565-1.124l1.897,6.242
				c4.79-1.455,9.212-4.046,12.867-7.495V108.354z"/>
			<path d="M408.434,89.666c1.163,1.707,3.122,2.829,5.343,2.829c2.222,0,4.18-1.122,5.343-2.829H408.434z"/>
		</g>
		<g>
			<g>
				<path style="fill:#FFFFFF;" d="M414.299,114.15h-0.027c-5.336,0-10.632-1.321-15.316-3.821l6.14-11.503
					c2.84,1.516,5.928,2.285,9.176,2.285L414.299,114.15z M423.747,112.748l-3.791-12.476c3.047-0.925,5.855-2.615,8.123-4.885
					l9.225,9.215C433.527,108.384,428.839,111.201,423.747,112.748z M391.285,104.649c-3.786-3.775-6.608-8.461-8.159-13.551
					l12.473-3.801c0.927,3.045,2.62,5.852,4.892,8.118L391.285,104.649z M442.992,96.937l-11.496-6.153
					c1.522-2.844,2.294-5.937,2.294-9.192v-0.105h13.039v0.105C446.829,86.941,445.502,92.247,442.992,96.937z M381.715,81.645
					v-0.053c0-5.325,1.316-10.61,3.806-15.286l11.509,6.129c-1.51,2.836-2.276,5.917-2.276,9.158L381.715,81.645z M432.933,75.85
					c-0.934-3.043-2.631-5.847-4.908-8.107l9.186-9.253c3.794,3.767,6.625,8.447,8.186,13.535L432.933,75.85z M400.437,67.825
					l-9.245-9.196c3.77-3.789,8.453-6.616,13.542-8.173l3.815,12.468C405.504,63.856,402.699,65.551,400.437,67.825z
					 M423.412,64.341c-2.832-1.504-5.906-2.267-9.14-2.267l-0.08-13.039h0.08c5.314,0,10.59,1.311,15.257,3.791L423.412,64.341z"/>
			</g>
			<path style="fill:#EBEBEB;" d="M414.272,55.555c-14.38,0-26.038,11.658-26.038,26.038s11.657,26.038,26.038,26.038
				s26.038-11.658,26.038-26.038S428.652,55.555,414.272,55.555z M414.272,95.64c-7.758,0-14.047-6.289-14.047-14.048
				s6.289-14.048,14.047-14.048c7.758,0,14.048,6.289,14.048,14.048S422.03,95.64,414.272,95.64z M414.272,88.053
				c-3.568,0-6.461-2.893-6.461-6.461c0-3.568,2.893-6.461,6.461-6.461c3.568,0,6.461,2.893,6.461,6.461
				C420.733,85.16,417.84,88.053,414.272,88.053z"/>
		</g>
	</g>
	<g>
		
			<rect x="341.573" y="322.898" transform="matrix(0.8721 -0.4893 0.4893 0.8721 -127.2459 215.4021)" style="fill:#C4C4C4;" width="13.779" height="56.474"/>
		<path style="fill:#A6A6A6;" d="M340.654,323.138l-0.052,0.029l0.033,0.058l-3.95,6.65l-7.734-0.095l-0.033-0.058l-0.281,0.158
			l3.656,6.516c2.401,0.112,4.861-0.41,7.111-1.673c2.155-1.209,3.83-2.936,4.984-4.93L340.654,323.138z"/>
		<path style="fill:#A6A6A6;" d="M356.27,379.132l0.338-0.19l3.894-6.556l7.625,0.094l0.161-0.09l-3.665-6.533
			c-2.314-0.061-4.673,0.467-6.839,1.683c-2.24,1.257-3.962,3.072-5.117,5.167L356.27,379.132z"/>
		<path style="fill:#C4C4C4;" d="M338.013,318.819l-3.95,6.65l-7.734-0.095L318.825,312c-2.307,3.939-2.535,8.958-0.139,13.228
			c3.592,6.402,11.694,8.68,18.096,5.089c6.402-3.592,8.681-11.694,5.089-18.096c-2.395-4.269-6.797-6.691-11.362-6.775
			L338.013,318.819z"/>
		<path style="fill:#C4C4C4;" d="M377.845,376.341c-3.592-6.402-11.694-8.681-18.096-5.089c-6.402,3.592-8.681,11.694-5.089,18.096
			c3.592,6.402,11.694,8.681,18.096,5.089C379.159,390.845,381.437,382.743,377.845,376.341z M370.037,389.59l-7.734-0.095
			l-3.785-6.746l3.95-6.65l7.734,0.095l3.785,6.746L370.037,389.59z"/>
		<path style="fill:#A6A6A6;" d="M345.1,338.729l12.724,22.719c0.796,1.419,0.286,3.231-1.133,4.027l0,0
			c-1.419,0.796-3.231,0.286-4.027-1.132l-12.724-22.719c-0.796-1.419-0.286-3.231,1.132-4.027l0,0
			C342.492,336.801,344.304,337.311,345.1,338.729z"/>
	</g>
	<g>
		<g>
			<rect x="121.06" y="121.324" style="fill:#00BCE6;" width="130.194" height="23.439"/>
			<g>
				<path style="fill:#FFFFFF;" d="M234.236,128.604c-1.54,1.54-1.54,4.037,0,5.577c1.54,1.54,4.037,1.54,5.577,0
					c1.54-1.54,1.54-4.037,0-5.577C238.273,127.064,235.776,127.064,234.236,128.604z M239.105,133.473
					c-1.149,1.148-3.011,1.148-4.159,0c-1.149-1.149-1.149-3.011,0-4.16c1.149-1.148,3.011-1.148,4.159,0
					C240.253,130.462,240.253,132.324,239.105,133.473z"/>
				<path style="fill:#FFFFFF;" d="M240.22,134.588c-0.27,0.27-0.569,0.491-0.887,0.666l0.347,0.347
					c0.427,0.427,1.126,0.427,1.553,0c0.427-0.427,0.427-1.126,0-1.553l-0.347-0.347C240.711,134.019,240.49,134.319,240.22,134.588
					z"/>
				<path style="fill:#FFFFFF;" d="M244.047,137.327l-2.077-2.077c-0.002,0.278-0.109,0.556-0.32,0.767
					c-0.211,0.211-0.489,0.318-0.767,0.32l2.077,2.077c0.299,0.299,0.788,0.299,1.087,0l0,0
					C244.346,138.115,244.346,137.626,244.047,137.327z"/>
			</g>
			<rect x="130.114" y="127.775" style="fill:#008EAD;" width="97.294" height="10.537"/>
		</g>
		
			<line style="fill:none;stroke:#FFFFFF;stroke-width:1.8156;stroke-linecap:round;stroke-linejoin:round;stroke-miterlimit:10;" x1="124.998" y1="124.47" x2="124.998" y2="0"/>
		
			<line style="fill:none;stroke:#FFFFFF;stroke-width:1.8156;stroke-linecap:round;stroke-linejoin:round;stroke-miterlimit:10;" x1="247.315" y1="124.47" x2="247.315" y2="0"/>
	</g>
	<g>
		<path style="fill:#009ACC;" d="M302.315,427.125l-98.771-2.705c-6.635-0.182-11.055-3.131-9.822-6.554l0,0
			c1.233-3.423,7.671-6.074,14.307-5.893l98.771,2.705c6.635,0.182,11.055,3.131,9.822,6.554l0,0
			C315.388,424.655,308.95,427.307,302.315,427.125z"/>
		<path style="fill:#DEDEDE;" d="M313.538,414.331l-0.049,0c-0.337-2.583-4.137-4.608-9.453-4.754l-93.484-2.56
			c-6.28-0.172-12.373,2.338-13.54,5.577c-0.071,0.196-0.119,0.389-0.152,0.581h-0.001l0,0.005c-0.04,0.241-0.043,0.478-0.025,0.712
			l-0.103,2.881l0.026,0.001c-0.46,2.969,3.579,5.423,9.454,5.583l93.484,2.56c6.28,0.172,12.373-2.338,13.541-5.577
			c0.086-0.239,0.134-0.474,0.163-0.707l0.023,0L313.538,414.331z"/>
		<path style="fill:#FFFFFF;" d="M299.791,421.357l-93.484-2.56c-6.28-0.172-10.463-2.963-9.296-6.203l0,0
			c1.167-3.24,7.26-5.749,13.54-5.577l93.484,2.56c6.28,0.172,10.463,2.963,9.296,6.203l0,0
			C312.164,419.019,306.071,421.529,299.791,421.357z"/>
	</g>
	<g>
		<path style="fill:#009ACC;" d="M363.952,444.344c-5.959,3.721-17.944,4.407-26.769,1.533c-8.826-2.874-11.149-8.22-5.19-11.941
			c5.959-3.721,17.944-4.407,26.769-1.533C367.587,435.278,369.911,440.624,363.952,444.344z"/>
		<path style="fill:#C44A46;" d="M365.021,433.609h-0.008c0.051-1.981-1.877-3.986-5.72-5.448
			c-6.992-2.66-17.635-2.515-23.772,0.324c-2.939,1.359-4.294,3.09-4.158,4.817l-0.026,0l0.01,3.884
			c-0.002,0.025,0.002,0.05,0,0.075l0.001,0.384h0.015c0.147,1.879,2.063,3.754,5.707,5.14c6.992,2.66,17.635,2.515,23.772-0.324
			c2.9-1.341,4.255-3.044,4.161-4.748l0.018,0V433.609z"/>
		
			<ellipse transform="matrix(0.0165 -0.9999 0.9999 0.0165 -90.7957 774.2987)" style="fill:#FF615B;" cx="348.182" cy="433.301" rx="7.04" ry="16.847"/>
	</g>
	<g>
		<path style="fill:#009ACC;" d="M418.971,431.027c-6.241,3.897-18.794,4.616-28.038,1.606c-9.244-3.01-11.678-8.61-5.436-12.507
			c6.241-3.897,18.794-4.616,28.038-1.606C422.778,421.53,425.212,427.129,418.971,431.027z"/>
		<path style="fill:#C4B160;" d="M420.2,424.337v-5.428c0.001-0.051,0.001-0.102,0-0.152v-0.077l-0.008,0
			c-0.111-2.492-2.862-4.997-7.901-6.637c-8.226-2.679-19.398-2.039-24.952,1.429c-2.109,1.317-3.099,2.852-3.073,4.396l-0.004,0
			v5.5c0,0.016,0,0.032,0,0.048v0.039l0.004,0c0.047,2.522,2.811,5.068,7.91,6.728c8.226,2.679,19.398,2.039,24.953-1.429
			c1.98-1.236,2.961-2.666,3.054-4.114l0.016,0.001v-0.15C420.201,424.438,420.201,424.388,420.2,424.337z"/>
		<path style="fill:#E3D07F;" d="M417.129,423.172c-5.555,3.468-16.726,4.108-24.953,1.429c-8.226-2.679-10.392-7.662-4.838-11.13
			c5.555-3.468,16.726-4.108,24.952-1.429C420.517,414.721,422.683,419.704,417.129,423.172z"/>
	</g>
</g>
<g id="DESIGNED_BY_FREEPIK">
	<g>
		<g id="XMLID_319_">
			<g id="XMLID_338_">
				<path id="XMLID_346_" style="fill:#F9FBFC;" d="M260.104,470.394c-0.432,0.443-0.803,0.931-1.108,1.453l-0.465-0.241
					c-0.067-0.298-0.349-0.503-0.659-0.466c-0.331,0.039-0.568,0.339-0.529,0.67c0.039,0.331,0.339,0.568,0.67,0.529
					c0.066-0.008,0.127-0.026,0.184-0.052l0.451,0.234c-0.251,0.554-0.433,1.139-0.539,1.744l0.746,0.132
					c0.23-1.306,0.85-2.507,1.792-3.473L260.104,470.394z"/>
				<path id="XMLID_345_" style="fill:#F9FBFC;" d="M265.592,468.092c-0.171,0-0.341,0.006-0.51,0.017l-0.074-0.626
					c0.188-0.149,0.296-0.389,0.266-0.645c-0.046-0.393-0.402-0.674-0.795-0.628c-0.393,0.046-0.674,0.402-0.628,0.795
					c0.03,0.254,0.189,0.461,0.404,0.564l0.074,0.624c-0.714,0.116-1.403,0.332-2.06,0.646l0.327,0.684
					c0.934-0.447,1.942-0.673,2.995-0.673c0.496,0,0.993,0.053,1.475,0.158l0.161-0.741
					C266.692,468.151,266.142,468.092,265.592,468.092z"/>
				<path id="XMLID_344_" style="fill:#F9FBFC;" d="M272.194,470.639c0.331-0.04,0.566-0.341,0.526-0.672
					c-0.04-0.331-0.341-0.566-0.672-0.526c-0.309,0.038-0.535,0.304-0.53,0.609l-0.416,0.363c-0.418-0.43-0.889-0.813-1.408-1.139
					l-0.404,0.641c1.134,0.715,2.021,1.726,2.563,2.925l0.69-0.313c-0.251-0.554-0.568-1.072-0.942-1.545l0.402-0.351
					C272.065,470.644,272.129,470.647,272.194,470.639z"/>
				<path id="XMLID_343_" style="fill:#F9FBFC;" d="M265.044,478.3c-0.386,0.023-0.775,0.035-1.157,0.035
					c-0.88,0-1.733-0.061-2.478-0.179c-0.39-0.062-0.846-0.155-1.27-0.292c1.046,1.861,3.069,3.125,5.388,3.125
					c2.855,0,5.262-1.916,5.95-4.504c-0.682,0.449-1.505,0.825-2.459,1.123C267.839,477.976,266.463,478.215,265.044,478.3z"/>
				<path id="XMLID_339_" style="fill:#F9FBFC;" d="M265.592,469.608c-3.352,0-6.08,2.666-6.08,5.944
					c0,0.426,0.046,0.849,0.137,1.261c0.673,0.483,2.706,0.89,5.348,0.731c2.879-0.173,5.297-0.957,6.672-2.159
					c-0.006-0.195-0.021-0.39-0.045-0.582C271.244,471.842,268.65,469.608,265.592,469.608z M263.432,476.123
					c-1.02,0-1.85-0.83-1.85-1.85c0-1.02,0.83-1.85,1.85-1.85c1.02,0,1.85,0.83,1.85,1.85
					C265.282,475.293,264.452,476.123,263.432,476.123z M268.17,475.215c-0.75,0-1.36-0.61-1.36-1.36c0-0.75,0.61-1.361,1.36-1.361
					c0.75,0,1.361,0.61,1.361,1.361C269.53,474.605,268.92,475.215,268.17,475.215z"/>
			</g>
			<path id="XMLID_336_" style="fill:#F9FBFC;" d="M281.595,471.475c-0.295-0.116-0.805-0.309-1.382-0.237
				c-0.551,0.068-0.844,0.34-0.844,1.007v0.866h2.228v1.717h-2.228v5.455h-1.932v-5.455h-1.34v-1.717h1.34v-0.888
				c0-1.68,0.896-2.783,2.568-2.783c0.643,0,1.157,0.122,1.59,0.308L281.595,471.475z"/>
			<path id="XMLID_334_" style="fill:#F9FBFC;" d="M286.298,474.807c-0.177-0.03-0.358-0.046-0.526-0.046
				c-0.895,0-1.51,0.548-1.51,1.613v3.908h-1.932v-7.172h1.873v0.785c0.451-0.674,1.14-0.977,2.021-0.977
				c0.414,0,0.848,0.128,1.094,0.337L286.298,474.807z"/>
			<path id="XMLID_331_" style="fill:#F9FBFC;" d="M293.965,476.685c0,0.222-0.015,0.489-0.037,0.651h-5.085
				c0.207,1.036,0.933,1.488,1.843,1.488c0.622,0,1.295-0.252,1.813-0.688l1.133,1.243c-0.814,0.748-1.85,1.088-3.057,1.088
				c-2.198,0-3.723-1.495-3.723-3.753c0-2.257,1.48-3.797,3.627-3.797C292.544,472.918,293.958,474.45,293.965,476.685z
				 M288.851,476.019h3.175c-0.177-0.918-0.733-1.436-1.562-1.436C289.554,474.583,289.021,475.131,288.851,476.019z"/>
			<path id="XMLID_328_" style="fill:#F9FBFC;" d="M301.618,476.685c0,0.222-0.015,0.489-0.037,0.651h-5.085
				c0.207,1.036,0.932,1.488,1.843,1.488c0.622,0,1.295-0.252,1.814-0.688l1.132,1.243c-0.814,0.748-1.85,1.088-3.057,1.088
				c-2.198,0-3.723-1.495-3.723-3.753c0-2.257,1.48-3.797,3.627-3.797C300.197,472.918,301.611,474.45,301.618,476.685z
				 M296.504,476.019h3.175c-0.178-0.918-0.733-1.436-1.562-1.436C297.207,474.583,296.674,475.131,296.504,476.019z"/>
			<path id="XMLID_325_" style="fill:#F9FBFC;" d="M309.964,476.693c0,2.154-1.495,3.775-3.471,3.775
				c-0.962,0-1.643-0.378-2.109-0.933v3.708h-1.924v-10.133h1.887v0.792c0.466-0.585,1.155-0.984,2.139-0.984
				C308.469,472.918,309.964,474.539,309.964,476.693z M304.287,476.693c0,1.132,0.747,1.976,1.843,1.976
				c1.14,0,1.85-0.881,1.85-1.976c0-1.095-0.711-1.976-1.85-1.976C305.035,474.717,304.287,475.56,304.287,476.693z"/>
			<path id="XMLID_322_" style="fill:#F9FBFC;" d="M313.067,470.764c0,0.696-0.54,1.229-1.236,1.229
				c-0.696,0-1.229-0.533-1.229-1.229c0-0.696,0.533-1.243,1.229-1.243C312.527,469.521,313.067,470.069,313.067,470.764z
				 M312.809,480.283h-1.932v-7.172h1.932V480.283z"/>
			<path id="XMLID_320_" style="fill:#F9FBFC;" d="M316.032,475.664l2.702-2.554h2.368l-3.479,3.375l3.501,3.797h-2.376
				l-2.716-2.901v2.901H314.1v-10.658h1.932V475.664z"/>
		</g>
		<g>
			<path style="fill:#F9FBFC;" d="M184.412,480.217v-1.055c-0.527,0.718-1.391,1.23-2.387,1.23c-1.846,0-3.149-1.406-3.149-3.706
				c0-2.256,1.289-3.721,3.149-3.721c0.952,0,1.816,0.469,2.387,1.245v-3.765h1.099v9.77H184.412z M184.412,478.299v-3.208
				c-0.395-0.615-1.245-1.143-2.124-1.143c-1.421,0-2.27,1.172-2.27,2.739c0,1.567,0.85,2.724,2.27,2.724
				C183.168,479.412,184.017,478.914,184.412,478.299z"/>
			<path style="fill:#F9FBFC;" d="M186.932,476.673c0-2.051,1.465-3.706,3.486-3.706c2.139,0,3.398,1.67,3.398,3.794v0.279h-5.727
				c0.088,1.333,1.025,2.446,2.549,2.446c0.805,0,1.626-0.322,2.182-0.893l0.527,0.718c-0.703,0.703-1.655,1.084-2.812,1.084
				C188.44,480.393,186.932,478.885,186.932,476.673z M190.403,473.875c-1.509,0-2.256,1.274-2.314,2.358h4.643
				C192.718,475.179,192.015,473.875,190.403,473.875z"/>
			<path style="fill:#F9FBFC;" d="M194.607,479.28l0.571-0.791c0.469,0.542,1.362,1.011,2.329,1.011c1.084,0,1.67-0.513,1.67-1.216
				c0-1.714-4.38-0.659-4.38-3.281c0-1.098,0.952-2.036,2.636-2.036c1.201,0,2.051,0.454,2.622,1.026l-0.513,0.762
				c-0.424-0.513-1.201-0.894-2.109-0.894c-0.967,0-1.567,0.483-1.567,1.113c0,1.553,4.38,0.527,4.38,3.281
				c0,1.187-0.952,2.139-2.783,2.139C196.306,480.393,195.325,480.042,194.607,479.28z"/>
			<path style="fill:#F9FBFC;" d="M201.477,471.4c0-0.41,0.337-0.747,0.732-0.747c0.41,0,0.747,0.337,0.747,0.747
				c0,0.41-0.337,0.732-0.747,0.732C201.814,472.132,201.477,471.81,201.477,471.4z M201.667,480.217v-7.075h1.099v7.075H201.667z"
				/>
			<path style="fill:#F9FBFC;" d="M204.582,482.034l0.556-0.82c0.586,0.703,1.289,0.967,2.3,0.967c1.172,0,2.27-0.571,2.27-2.124
				v-1.011c-0.513,0.718-1.377,1.26-2.373,1.26c-1.845,0-3.149-1.377-3.149-3.662c0-2.27,1.289-3.677,3.149-3.677
				c0.952,0,1.802,0.469,2.373,1.245v-1.069h1.098v6.87c0,2.344-1.641,3.076-3.369,3.076
				C206.237,483.089,205.417,482.854,204.582,482.034z M209.709,478.182v-3.091c-0.381-0.615-1.23-1.143-2.109-1.143
				c-1.421,0-2.27,1.128-2.27,2.695c0,1.553,0.849,2.695,2.27,2.695C208.478,479.339,209.328,478.797,209.709,478.182z"/>
			<path style="fill:#F9FBFC;" d="M217.413,480.217v-4.629c0-1.245-0.63-1.641-1.582-1.641c-0.865,0-1.685,0.527-2.095,1.099v5.17
				h-1.099v-7.075h1.099v1.025c0.498-0.586,1.465-1.201,2.519-1.201c1.48,0,2.256,0.747,2.256,2.285v4.966H217.413z"/>
			<path style="fill:#F9FBFC;" d="M219.932,476.673c0-2.051,1.465-3.706,3.486-3.706c2.139,0,3.398,1.67,3.398,3.794v0.279h-5.727
				c0.088,1.333,1.025,2.446,2.549,2.446c0.806,0,1.626-0.322,2.183-0.893l0.527,0.718c-0.703,0.703-1.655,1.084-2.812,1.084
				C221.441,480.393,219.932,478.885,219.932,476.673z M223.404,473.875c-1.509,0-2.256,1.274-2.314,2.358h4.643
				C225.718,475.179,225.015,473.875,223.404,473.875z"/>
			<path style="fill:#F9FBFC;" d="M233.35,480.217v-1.055c-0.527,0.718-1.392,1.23-2.388,1.23c-1.846,0-3.149-1.406-3.149-3.706
				c0-2.256,1.289-3.721,3.149-3.721c0.952,0,1.817,0.469,2.388,1.245v-3.765h1.098v9.77H233.35z M233.35,478.299v-3.208
				c-0.396-0.615-1.245-1.143-2.124-1.143c-1.421,0-2.27,1.172-2.27,2.739c0,1.567,0.849,2.724,2.27,2.724
				C232.105,479.412,232.954,478.914,233.35,478.299z"/>
			<path style="fill:#F9FBFC;" d="M239.692,480.217v-9.77h1.098v3.765c0.572-0.776,1.421-1.245,2.388-1.245
				c1.845,0,3.149,1.465,3.149,3.721c0,2.299-1.304,3.706-3.149,3.706c-0.996,0-1.86-0.513-2.388-1.23v1.055H239.692z
				 M242.9,479.412c1.436,0,2.285-1.157,2.285-2.724c0-1.568-0.85-2.739-2.285-2.739c-0.864,0-1.728,0.527-2.109,1.143v3.208
				C241.171,478.914,242.036,479.412,242.9,479.412z"/>
			<path style="fill:#F9FBFC;" d="M247.528,481.99c0.161,0.073,0.425,0.117,0.601,0.117c0.483,0,0.805-0.161,1.055-0.747
				l0.469-1.069l-2.959-7.148h1.187l2.358,5.801l2.344-5.801h1.201l-3.545,8.51c-0.425,1.025-1.143,1.421-2.08,1.435
				c-0.234,0-0.601-0.044-0.806-0.103L247.528,481.99z"/>
		</g>
	</g>
</g>
</svg>
