<?xml version="1.0" encoding="utf-8"?>
<!-- Generator: Adobe Illustrator 27.5.0, SVG Export Plug-In . SVG Version: 6.00 Build 0)  -->
<svg version="1.1" xmlns="http://www.w3.org/2000/svg" xmlns:xlink="http://www.w3.org/1999/xlink" x="0px" y="0px"
	 viewBox="0 0 500 500" style="enable-background:new 0 0 500 500;" xml:space="preserve">
<g id="background">
	<rect style="fill:#FFFFFF;" width="500" height="370.789"/>
	<rect style="fill:#E58D68;" width="500" height="500"/>
	
		<ellipse transform="matrix(0.7071 -0.7071 0.7071 0.7071 -123.2477 258.1577)" style="opacity:0.24;fill:#F1D459;" cx="250" cy="277.852" rx="213.52" ry="213.52"/>
	<rect y="390.18" style="fill:#504B5A;" width="500" height="109.82"/>
	<rect y="375.09" style="fill:#5D5766;" width="500" height="17.269"/>
</g>
<g id="objects">
	<g>
		<g>
			<g>
				<path style="fill:#F1D459;" d="M469.458,375.09H315.205c-1.731,0-3.134-1.403-3.134-3.134v-26.739
					c0-1.731,1.403-3.134,3.134-3.134h154.253c1.731,0,3.134,1.403,3.134,3.134v26.739
					C472.591,373.687,471.188,375.09,469.458,375.09z"/>
				<g>
					<path style="fill:#EFCA2E;" d="M320.894,358.587L320.894,358.587c-1.317,0-2.384-1.067-2.384-2.384v-14.119h4.768v14.119
						C323.277,357.52,322.21,358.587,320.894,358.587z"/>
					<path style="fill:#EFCA2E;" d="M349.469,358.587L349.469,358.587c-1.317,0-2.384-1.067-2.384-2.384v-14.119h4.768v14.119
						C351.852,357.52,350.785,358.587,349.469,358.587z"/>
					<path style="fill:#EFCA2E;" d="M378.044,358.587L378.044,358.587c-1.317,0-2.384-1.067-2.384-2.384v-14.119h4.768v14.119
						C380.428,357.52,379.36,358.587,378.044,358.587z"/>
					<path style="fill:#EFCA2E;" d="M406.619,358.587L406.619,358.587c-1.317,0-2.384-1.067-2.384-2.384v-14.119h4.768v14.119
						C409.003,357.52,407.935,358.587,406.619,358.587z"/>
					<path style="fill:#EFCA2E;" d="M435.194,358.587L435.194,358.587c-1.317,0-2.384-1.067-2.384-2.384v-14.119h4.768v14.119
						C437.578,357.52,436.51,358.587,435.194,358.587z"/>
					<path style="fill:#EFCA2E;" d="M463.769,358.587L463.769,358.587c-1.317,0-2.384-1.067-2.384-2.384v-14.119h4.768v14.119
						C466.153,357.52,465.085,358.587,463.769,358.587z"/>
				</g>
			</g>
			<g>
				<path style="fill:#EFCA2E;" d="M330.419,352.865L330.419,352.865c-1.317,0-2.384-1.067-2.384-2.384v-8.398h4.768v8.398
					C332.802,351.798,331.735,352.865,330.419,352.865z"/>
				<path style="fill:#EFCA2E;" d="M339.944,352.865L339.944,352.865c-1.317,0-2.384-1.067-2.384-2.384v-8.398h4.768v8.398
					C342.327,351.798,341.26,352.865,339.944,352.865z"/>
				<path style="fill:#EFCA2E;" d="M358.994,352.865L358.994,352.865c-1.317,0-2.384-1.067-2.384-2.384v-8.398h4.768v8.398
					C361.378,351.798,360.31,352.865,358.994,352.865z"/>
				<path style="fill:#EFCA2E;" d="M368.519,352.865L368.519,352.865c-1.317,0-2.384-1.067-2.384-2.384v-8.398h4.768v8.398
					C370.903,351.798,369.835,352.865,368.519,352.865z"/>
				<path style="fill:#EFCA2E;" d="M387.569,352.865L387.569,352.865c-1.317,0-2.384-1.067-2.384-2.384v-8.398h4.768v8.398
					C389.953,351.798,388.885,352.865,387.569,352.865z"/>
				<path style="fill:#EFCA2E;" d="M397.094,352.865L397.094,352.865c-1.317,0-2.384-1.067-2.384-2.384v-8.398h4.768v8.398
					C399.478,351.798,398.41,352.865,397.094,352.865z"/>
				<path style="fill:#EFCA2E;" d="M416.144,352.865L416.144,352.865c-1.316,0-2.384-1.067-2.384-2.384v-8.398h4.768v8.398
					C418.528,351.798,417.46,352.865,416.144,352.865z"/>
				<path style="fill:#EFCA2E;" d="M425.669,352.865L425.669,352.865c-1.317,0-2.384-1.067-2.384-2.384v-8.398h4.768v8.398
					C428.053,351.798,426.985,352.865,425.669,352.865z"/>
				<path style="fill:#EFCA2E;" d="M444.719,352.865L444.719,352.865c-1.317,0-2.384-1.067-2.384-2.384v-8.398h4.768v8.398
					C447.103,351.798,446.035,352.865,444.719,352.865z"/>
				<path style="fill:#EFCA2E;" d="M454.244,352.865L454.244,352.865c-1.317,0-2.384-1.067-2.384-2.384v-8.398h4.768v8.398
					C456.628,351.798,455.56,352.865,454.244,352.865z"/>
			</g>
		</g>
		<g>
			<g>
				<path style="fill:#1D262D;" d="M378.825,349.816H152.872c-3.486,0-6.313-2.826-6.313-6.313V179.198
					c0-3.486,2.826-6.313,6.313-6.313h225.953c3.487,0,6.313,2.826,6.313,6.313v164.305
					C385.138,346.989,382.312,349.816,378.825,349.816z"/>
				<rect x="158.58" y="185.831" style="fill:#050607;" width="214.536" height="126.378"/>
				<path style="fill:#F3F3F3;" d="M378.825,349.816H152.872c-3.486,0-6.313-2.826-6.313-6.313v-18.347h238.579v18.347
					C385.138,346.989,382.312,349.816,378.825,349.816z"/>
				<g>
					<path style="fill:#050607;" d="M267.081,336.869c0-1.665,1.292-3.014,2.926-3.136c-0.952-1.26-2.458-2.078-4.159-2.078
						c-2.88,0-5.214,2.335-5.214,5.214c0,2.88,2.335,5.214,5.214,5.214c1.701,0,3.207-0.818,4.159-2.078
						C268.374,339.884,267.081,338.534,267.081,336.869z"/>
				</g>
				<polygon style="fill:#E8E8E8;" points="286.347,349.816 245.35,349.816 242.267,368.925 289.43,368.925 				"/>
				<path style="fill:#F3F3F3;" d="M297.573,368.925h-63.448c-3.405,0-6.166,2.76-6.166,6.166l0,0h75.78l0,0
					C303.738,371.685,300.978,368.925,297.573,368.925z"/>
			</g>
			<g>
				<rect x="165.764" y="85.5" style="fill:#FFFFFF;" width="200.168" height="226.762"/>
				<rect x="168.779" y="194.35" style="fill:#DD6C7B;" width="95.563" height="44.012"/>
				<rect x="267.356" y="194.35" style="fill:#F1D459;" width="95.41" height="44.012"/>
				<rect x="168.779" y="241.672" style="fill:#ABD2C9;" width="193.835" height="43.412"/>
				<g style="opacity:0.3;">
					<polyline style="opacity:0.25;fill:none;stroke:#000000;stroke-width:2;stroke-miterlimit:10;" points="183.431,267.476 
						177.021,272.856 183.431,278.235 					"/>
					<polyline style="opacity:0.25;fill:none;stroke:#000000;stroke-width:2;stroke-miterlimit:10;" points="347.961,278.235 
						354.371,272.856 347.961,267.476 					"/>
					<g>
						
							<line style="opacity:0.25;fill:none;stroke:#000000;stroke-width:2;stroke-miterlimit:10;" x1="187.919" y1="268.792" x2="336.96" y2="268.792"/>
						
							<line style="opacity:0.25;fill:none;stroke:#000000;stroke-width:2;stroke-miterlimit:10;" x1="187.919" y1="272.856" x2="345.127" y2="272.856"/>
						
							<line style="opacity:0.25;fill:none;stroke:#000000;stroke-width:2;stroke-miterlimit:10;" x1="187.919" y1="276.92" x2="241.71" y2="276.92"/>
					</g>
				</g>
				<rect x="168.779" y="288.326" style="fill:#E58D68;" width="62.525" height="20.746"/>
				<rect x="234.434" y="288.326" style="fill:#394892;" width="128.18" height="20.746"/>
				<g style="opacity:0.5;">
					
						<line style="opacity:0.25;fill:none;stroke:#000000;stroke-width:2;stroke-miterlimit:10;" x1="237.493" y1="292.073" x2="357.434" y2="292.073"/>
					
						<line style="opacity:0.25;fill:none;stroke:#000000;stroke-width:2;stroke-miterlimit:10;" x1="237.493" y1="296.459" x2="347.434" y2="296.459"/>
					
						<line style="opacity:0.25;fill:none;stroke:#000000;stroke-width:2;stroke-miterlimit:10;" x1="237.493" y1="300.845" x2="321.434" y2="300.845"/>
					
						<line style="opacity:0.25;fill:none;stroke:#000000;stroke-width:2;stroke-miterlimit:10;" x1="237.493" y1="305.231" x2="285.684" y2="305.231"/>
				</g>
				<g style="opacity:0.19;">
					<g style="opacity:0.25;">
						<rect x="270.685" y="197.258" width="88.374" height="2"/>
					</g>
					<g style="opacity:0.25;">
						<rect x="270.685" y="201.323" width="88.374" height="2"/>
					</g>
					<g style="opacity:0.25;">
						<rect x="270.685" y="205.387" width="88.374" height="2"/>
					</g>
					<g style="opacity:0.25;">
						<rect x="270.685" y="209.451" width="88.374" height="2"/>
					</g>
					<g style="opacity:0.25;">
						<rect x="270.685" y="213.515" width="88.374" height="2"/>
					</g>
					<g style="opacity:0.25;">
						<rect x="270.685" y="217.579" width="88.374" height="2"/>
					</g>
					<g style="opacity:0.25;">
						<rect x="270.685" y="221.643" width="88.374" height="2"/>
					</g>
					<g style="opacity:0.25;">
						<rect x="270.685" y="225.707" width="88.374" height="2"/>
					</g>
					<g style="opacity:0.25;">
						<rect x="270.685" y="229.771" width="88.374" height="2"/>
					</g>
					<g style="opacity:0.25;">
						<rect x="270.685" y="233.835" width="88.374" height="2"/>
					</g>
				</g>
				<path style="opacity:0.05;" d="M233.184,213.699c1.467,9.088-4.711,17.645-13.8,19.112c-9.088,1.467-17.645-4.711-19.112-13.8
					c-1.467-9.088,4.711-17.645,13.8-19.112C223.16,198.433,231.717,204.611,233.184,213.699z"/>
				<path style="opacity:0.05;" d="M274.755,253.919c0.794,4.919-2.55,9.55-7.469,10.344c-4.919,0.794-9.55-2.55-10.344-7.469
					c-0.794-4.919,2.55-9.55,7.469-10.344C269.33,245.656,273.961,249,274.755,253.919z"/>
				<g>
					<path style="fill:#DD6C7B;" d="M274.452,113.384c2.332-2.545,3.527-6.087,2.934-9.759c-0.379-2.345-1.435-4.411-2.931-6.038
						l-7.9,7.9L274.452,113.384z"/>
					<path style="fill:#DD6C7B;" d="M257.244,97.59c-2.332,2.545-3.526,6.087-2.934,9.759c0.379,2.345,1.435,4.41,2.931,6.037
						l7.9-7.9L257.244,97.59z"/>
					<path style="fill:#DD6C7B;" d="M273.745,96.883c-2.544-2.332-6.087-3.527-9.759-2.934c-2.345,0.379-4.411,1.435-6.038,2.931
						l7.9,7.9L273.745,96.883z"/>
					<path style="fill:#DD6C7B;" d="M257.952,114.09c2.545,2.332,6.087,3.527,9.759,2.934c2.345-0.379,4.41-1.434,6.037-2.93
						l-7.9-7.9L257.952,114.09z"/>
					<path style="fill:#FFFFFF;" d="M274.452,113.384l-7.897-7.897l7.9-7.9c-0.226-0.246-0.465-0.479-0.71-0.704l-7.897,7.897
						l-7.9-7.9c-0.246,0.226-0.478,0.465-0.704,0.71l7.897,7.897l-7.9,7.9c0.226,0.246,0.465,0.479,0.71,0.704l7.896-7.896l7.9,7.9
						C273.994,113.868,274.227,113.629,274.452,113.384z"/>
				</g>
				<g>
					<rect x="168.779" y="123.915" style="fill:#394892;" width="62.525" height="67.67"/>
					<rect x="234.434" y="123.915" style="fill:#F1D459;" width="62.525" height="67.67"/>
					<rect x="300.089" y="123.915" style="fill:#B0D5D1;" width="62.525" height="67.67"/>
					<g>
						<rect x="178.997" y="130.903" style="fill:#FFFFFF;" width="42.088" height="8"/>
						<rect x="171.685" y="143.475" style="fill:#FFFFFF;" width="56.712" height="2"/>
						<rect x="171.685" y="147.387" style="fill:#FFFFFF;" width="56.712" height="2"/>
						<rect x="171.685" y="151.299" style="fill:#FFFFFF;" width="56.712" height="2"/>
						<rect x="171.685" y="155.212" style="fill:#FFFFFF;" width="56.712" height="2"/>
						<rect x="171.685" y="159.124" style="fill:#FFFFFF;" width="56.712" height="2"/>
						<rect x="171.685" y="163.036" style="fill:#FFFFFF;" width="56.712" height="2"/>
						<rect x="171.685" y="166.948" style="fill:#FFFFFF;" width="56.712" height="2"/>
						<rect x="171.685" y="170.86" style="fill:#FFFFFF;" width="56.712" height="2"/>
						<rect x="171.685" y="174.772" style="fill:#FFFFFF;" width="56.712" height="2"/>
						<rect x="171.685" y="178.684" style="fill:#FFFFFF;" width="56.712" height="2"/>
						<rect x="171.685" y="182.596" style="fill:#FFFFFF;" width="56.712" height="2"/>
						<rect x="171.685" y="186.508" style="fill:#FFFFFF;" width="56.712" height="2"/>
					</g>
					<g>
						<rect x="244.804" y="130.903" style="fill:#FFFFFF;" width="42.088" height="8"/>
						<rect x="237.492" y="143.475" style="fill:#FFFFFF;" width="56.712" height="2"/>
						<rect x="237.492" y="147.387" style="fill:#FFFFFF;" width="56.712" height="2"/>
						<rect x="237.492" y="151.299" style="fill:#FFFFFF;" width="56.712" height="2"/>
						<rect x="237.492" y="155.212" style="fill:#FFFFFF;" width="56.712" height="2"/>
						<rect x="237.492" y="159.124" style="fill:#FFFFFF;" width="56.712" height="2"/>
						<rect x="237.492" y="163.036" style="fill:#FFFFFF;" width="56.712" height="2"/>
						<rect x="237.492" y="166.948" style="fill:#FFFFFF;" width="56.712" height="2"/>
						<rect x="237.492" y="170.86" style="fill:#FFFFFF;" width="56.712" height="2"/>
						<rect x="237.492" y="174.772" style="fill:#FFFFFF;" width="56.712" height="2"/>
						<rect x="237.492" y="178.684" style="fill:#FFFFFF;" width="56.712" height="2"/>
						<rect x="237.492" y="182.596" style="fill:#FFFFFF;" width="56.712" height="2"/>
						<rect x="237.492" y="186.508" style="fill:#FFFFFF;" width="56.712" height="2"/>
					</g>
					<g>
						<rect x="310.307" y="130.903" style="fill:#FFFFFF;" width="42.088" height="8"/>
						<rect x="302.995" y="143.475" style="fill:#FFFFFF;" width="56.712" height="2"/>
						<rect x="302.995" y="147.387" style="fill:#FFFFFF;" width="56.712" height="2"/>
						<rect x="302.995" y="151.299" style="fill:#FFFFFF;" width="56.712" height="2"/>
						<rect x="302.995" y="155.212" style="fill:#FFFFFF;" width="56.712" height="2"/>
						<rect x="302.995" y="159.124" style="fill:#FFFFFF;" width="56.712" height="2"/>
						<rect x="302.995" y="163.036" style="fill:#FFFFFF;" width="56.712" height="2"/>
						<rect x="302.995" y="166.948" style="fill:#FFFFFF;" width="56.712" height="2"/>
						<rect x="302.995" y="170.86" style="fill:#FFFFFF;" width="56.712" height="2"/>
						<rect x="302.995" y="174.772" style="fill:#FFFFFF;" width="56.712" height="2"/>
						<rect x="302.995" y="178.684" style="fill:#FFFFFF;" width="56.712" height="2"/>
						<rect x="302.995" y="182.596" style="fill:#FFFFFF;" width="56.712" height="2"/>
						<rect x="302.995" y="186.508" style="fill:#FFFFFF;" width="56.712" height="2"/>
					</g>
				</g>
			</g>
		</g>
		<g>
			<polygon style="fill:#F1D459;" points="38.046,236.216 32.307,232.019 114.721,130.73 120.46,134.927 			"/>
			<polygon style="fill:#F1D459;" points="114.197,342.875 120.354,339.32 39.453,236.153 33.295,239.708 			"/>
			<circle style="fill:#050607;" cx="35.973" cy="234.103" r="8.564"/>
			<g>
				<g>
					<path style="opacity:0.37;fill:#F1D459;" d="M153.757,130.475l-25.051,37.507l19.729,13.22
						c10.357,6.918,24.361,4.129,31.279-6.228l0,0c6.918-10.357,4.129-24.361-6.228-31.279L153.757,130.475z"/>
					<path style="fill:#F1D459;" d="M146.183,137.448l-13.952,20.89l22.196,14.824c5.769,3.853,13.568,2.3,17.421-3.469h0
						c3.853-5.769,2.3-13.568-3.469-17.421L146.183,137.448z"/>
					<g>
						<path style="fill:#EFCA2E;" d="M137.764,159.365l11.487-17.199l-18.274-12.205c-4.75-3.172-11.171-1.893-14.343,2.856l0,0
							c-3.172,4.749-1.893,11.171,2.856,14.343L137.764,159.365z"/>
						<path style="fill:#EFCA2E;" d="M139.982,193.284c-17.138-11.446-21.752-34.618-10.306-51.757
							c11.446-17.138,34.618-21.752,51.757-10.306L139.982,193.284z"/>
					</g>
				</g>
				<path style="fill:#050607;" d="M122.375,126.353c3.933,2.627,4.992,7.945,2.365,11.878c-2.627,3.933-7.945,4.992-11.878,2.365
					c-3.933-2.627-4.992-7.945-2.365-11.878C113.123,124.785,118.441,123.726,122.375,126.353z"/>
			</g>
			
				<ellipse transform="matrix(0.9872 -0.1598 0.1598 0.9872 -53.6623 23.5367)" style="fill:#050607;" cx="119.552" cy="345.513" rx="8.564" ry="8.564"/>
			<path style="fill:#1D262D;" d="M148.94,375.09c0-16.23-13.157-29.388-29.388-29.388S90.164,358.86,90.164,375.09H148.94z"/>
		</g>
		<g>
			<g>
				
					<rect x="69.728" y="263.988" transform="matrix(0.8267 -0.5627 0.5627 0.8267 -128.9976 119.9133)" style="fill:#050607;" width="120.833" height="10.714"/>
				
					<rect x="81.819" y="281.752" transform="matrix(0.8267 -0.5627 0.5627 0.8267 -136.8971 129.7954)" style="fill:#050607;" width="120.833" height="10.714"/>
				
					<rect x="75.773" y="272.87" transform="matrix(0.8267 -0.5627 0.5627 0.8267 -132.9474 124.8543)" style="fill:#F1D459;" width="120.833" height="10.714"/>
			</g>
			<path style="fill:#DDA78D;" d="M177.075,230.922l25.095-0.639c2.169-0.055,3.67,2.15,2.823,4.147l-9.799,23.112L177.075,230.922z
				"/>
			<path style="fill:#050607;" d="M191.938,230.544l10.232-0.26c2.169-0.055,3.67,2.15,2.823,4.147l-3.995,9.423L191.938,230.544z"
				/>
			
				<rect x="77.46" y="298.828" transform="matrix(0.8267 -0.5627 0.5627 0.8267 -162.9852 100.9042)" style="fill:#D1D1D1;" width="9.667" height="32.358"/>
			<path style="fill:#DD6C7B;" d="M81.694,334.985l5.707-3.884l-18.207-26.749l-5.707,3.885c-3.863,2.629-4.863,7.892-2.234,11.755
				l8.685,12.76C72.568,336.614,77.831,337.614,81.694,334.985z"/>
		</g>
		<path style="fill:#1D262D;" d="M352.341,195.469l-26.881-19.99c-2.109-1.569-5.106-0.066-5.111,2.563l-0.061,33.499
			c-0.004,2.383,2.505,3.935,4.635,2.867l8.079-4.051l5.064,10.099c0.792,1.58,2.716,2.219,4.296,1.427l5.062-2.538
			c1.58-0.792,2.219-2.716,1.426-4.296l-5.064-10.099l8.079-4.051C353.996,199.83,354.253,196.891,352.341,195.469z"/>
	</g>
</g>
<g id="designed_by_freepik">
	<g>
		<g>
			<g id="XMLID_197_">
				<g id="XMLID_216_">
					<path id="XMLID_224_" style="fill:#1D262D;" d="M260.104,472.466c-0.432,0.443-0.803,0.931-1.108,1.453l-0.465-0.241
						c-0.067-0.298-0.349-0.503-0.659-0.466c-0.331,0.039-0.568,0.339-0.529,0.67c0.039,0.331,0.339,0.568,0.67,0.529
						c0.065-0.008,0.127-0.026,0.183-0.052l0.452,0.234c-0.251,0.554-0.433,1.139-0.539,1.744l0.747,0.132
						c0.23-1.306,0.85-2.507,1.792-3.473L260.104,472.466z"/>
					<path id="XMLID_223_" style="fill:#1D262D;" d="M265.592,470.164c-0.171,0-0.341,0.006-0.51,0.017l-0.074-0.626
						c0.188-0.149,0.296-0.389,0.266-0.645c-0.046-0.393-0.402-0.674-0.795-0.628c-0.393,0.046-0.674,0.402-0.628,0.795
						c0.03,0.254,0.189,0.461,0.405,0.564l0.073,0.624c-0.714,0.116-1.403,0.332-2.06,0.646l0.327,0.684
						c0.934-0.447,1.942-0.673,2.995-0.673c0.496,0,0.993,0.053,1.475,0.158l0.161-0.741
						C266.692,470.223,266.142,470.164,265.592,470.164z"/>
					<path id="XMLID_222_" style="fill:#1D262D;" d="M272.194,472.711c0.331-0.04,0.566-0.341,0.526-0.672
						c-0.04-0.331-0.341-0.566-0.672-0.526c-0.309,0.038-0.535,0.304-0.53,0.609l-0.416,0.363c-0.418-0.43-0.89-0.813-1.408-1.139
						l-0.404,0.641c1.134,0.715,2.021,1.726,2.563,2.925l0.691-0.313c-0.251-0.554-0.568-1.072-0.942-1.545l0.402-0.351
						C272.065,472.716,272.129,472.719,272.194,472.711z"/>
					<path id="XMLID_221_" style="fill:#1D262D;" d="M265.044,480.372c-0.386,0.023-0.775,0.035-1.157,0.035
						c-0.88,0-1.733-0.061-2.478-0.179c-0.39-0.062-0.846-0.155-1.27-0.292c1.046,1.861,3.069,3.125,5.388,3.125
						c2.855,0,5.262-1.916,5.95-4.504c-0.682,0.449-1.505,0.825-2.459,1.123C267.839,480.047,266.464,480.287,265.044,480.372z"/>
					<path id="XMLID_217_" style="fill:#1D262D;" d="M265.592,471.68c-3.352,0-6.08,2.666-6.08,5.944
						c0,0.425,0.046,0.849,0.137,1.261c0.673,0.483,2.706,0.89,5.348,0.731c2.879-0.173,5.297-0.957,6.672-2.158
						c-0.005-0.195-0.021-0.39-0.045-0.582C271.244,473.914,268.65,471.68,265.592,471.68z M263.432,478.195
						c-1.02,0-1.85-0.83-1.85-1.85c0-1.02,0.83-1.85,1.85-1.85c1.02,0,1.85,0.83,1.85,1.85
						C265.282,477.365,264.452,478.195,263.432,478.195z M268.17,477.286c-0.75,0-1.36-0.61-1.36-1.36s0.61-1.361,1.36-1.361
						c0.75,0,1.361,0.61,1.361,1.361S268.92,477.286,268.17,477.286z"/>
				</g>
				<path id="XMLID_214_" style="fill:#1D262D;" d="M281.595,473.547c-0.295-0.116-0.805-0.309-1.382-0.237
					c-0.551,0.068-0.844,0.34-0.844,1.007v0.866h2.228v1.717h-2.228v5.455h-1.932V476.9h-1.34v-1.717h1.34v-0.888
					c0-1.68,0.896-2.783,2.568-2.783c0.643,0,1.157,0.122,1.59,0.308L281.595,473.547z"/>
				<path id="XMLID_212_" style="fill:#1D262D;" d="M286.298,476.879c-0.177-0.03-0.358-0.046-0.526-0.046
					c-0.896,0-1.51,0.548-1.51,1.614v3.908h-1.932v-7.172h1.873v0.785c0.451-0.673,1.14-0.977,2.021-0.977
					c0.414,0,0.848,0.128,1.094,0.337L286.298,476.879z"/>
				<path id="XMLID_209_" style="fill:#1D262D;" d="M293.965,478.757c0,0.222-0.015,0.489-0.037,0.651h-5.085
					c0.207,1.036,0.933,1.488,1.843,1.488c0.622,0,1.295-0.252,1.813-0.688l1.132,1.243c-0.814,0.748-1.85,1.088-3.057,1.088
					c-2.198,0-3.723-1.495-3.723-3.753c0-2.258,1.48-3.797,3.627-3.797C292.544,474.99,293.958,476.522,293.965,478.757z
					 M288.851,478.091h3.175c-0.177-0.918-0.733-1.436-1.562-1.436C289.554,476.655,289.021,477.203,288.851,478.091z"/>
				<path id="XMLID_206_" style="fill:#1D262D;" d="M301.618,478.757c0,0.222-0.015,0.489-0.037,0.651h-5.085
					c0.207,1.036,0.933,1.488,1.843,1.488c0.622,0,1.295-0.252,1.813-0.688l1.132,1.243c-0.814,0.748-1.85,1.088-3.057,1.088
					c-2.198,0-3.723-1.495-3.723-3.753c0-2.258,1.48-3.797,3.627-3.797C300.197,474.99,301.611,476.522,301.618,478.757z
					 M296.504,478.091h3.175c-0.178-0.918-0.733-1.436-1.562-1.436C297.207,476.655,296.674,477.203,296.504,478.091z"/>
				<path id="XMLID_203_" style="fill:#1D262D;" d="M309.964,478.765c0,2.154-1.495,3.775-3.471,3.775
					c-0.962,0-1.643-0.378-2.109-0.933v3.708h-1.924v-10.133h1.887v0.792c0.466-0.585,1.155-0.984,2.139-0.984
					C308.469,474.99,309.964,476.611,309.964,478.765z M304.287,478.765c0,1.132,0.747,1.976,1.843,1.976
					c1.14,0,1.85-0.881,1.85-1.976c0-1.095-0.71-1.976-1.85-1.976C305.035,476.789,304.287,477.632,304.287,478.765z"/>
				<path id="XMLID_200_" style="fill:#1D262D;" d="M313.068,472.836c0,0.696-0.54,1.229-1.236,1.229
					c-0.696,0-1.229-0.533-1.229-1.229c0-0.696,0.533-1.243,1.229-1.243C312.527,471.593,313.068,472.14,313.068,472.836z
					 M312.809,482.354h-1.932v-7.172h1.932V482.354z"/>
				<path id="XMLID_198_" style="fill:#1D262D;" d="M316.032,477.736l2.701-2.554h2.368l-3.479,3.375l3.501,3.797h-2.376
					l-2.716-2.901v2.901H314.1v-10.658h1.932V477.736z"/>
			</g>
			<g>
				<path style="fill:#1D262D;" d="M184.412,482.289v-1.055c-0.527,0.718-1.391,1.23-2.387,1.23c-1.846,0-3.149-1.406-3.149-3.706
					c0-2.256,1.289-3.721,3.149-3.721c0.952,0,1.816,0.469,2.387,1.245v-3.765h1.099v9.77H184.412z M184.412,480.371v-3.208
					c-0.395-0.615-1.245-1.143-2.124-1.143c-1.421,0-2.27,1.172-2.27,2.739c0,1.567,0.85,2.724,2.27,2.724
					C183.168,481.484,184.017,480.986,184.412,480.371z"/>
				<path style="fill:#1D262D;" d="M186.932,478.745c0-2.051,1.465-3.706,3.486-3.706c2.139,0,3.398,1.67,3.398,3.794v0.279h-5.727
					c0.088,1.333,1.025,2.446,2.549,2.446c0.805,0,1.626-0.322,2.182-0.893l0.527,0.718c-0.703,0.703-1.655,1.084-2.812,1.084
					C188.44,482.465,186.932,480.957,186.932,478.745z M190.403,475.947c-1.509,0-2.256,1.274-2.314,2.358h4.643
					C192.718,477.25,192.015,475.947,190.403,475.947z"/>
				<path style="fill:#1D262D;" d="M194.607,481.352l0.571-0.791c0.469,0.542,1.362,1.011,2.329,1.011
					c1.084,0,1.67-0.513,1.67-1.216c0-1.714-4.38-0.659-4.38-3.281c0-1.098,0.952-2.036,2.636-2.036
					c1.201,0,2.051,0.454,2.622,1.026l-0.513,0.762c-0.424-0.513-1.201-0.894-2.109-0.894c-0.967,0-1.567,0.483-1.567,1.113
					c0,1.552,4.38,0.527,4.38,3.281c0,1.187-0.952,2.138-2.783,2.138C196.306,482.465,195.325,482.114,194.607,481.352z"/>
				<path style="fill:#1D262D;" d="M201.477,473.471c0-0.41,0.337-0.747,0.732-0.747c0.41,0,0.747,0.337,0.747,0.747
					c0,0.41-0.337,0.732-0.747,0.732C201.814,474.204,201.477,473.882,201.477,473.471z M201.667,482.289v-7.075h1.099v7.075
					H201.667z"/>
				<path style="fill:#1D262D;" d="M204.582,484.106l0.556-0.82c0.586,0.703,1.289,0.967,2.3,0.967c1.172,0,2.27-0.571,2.27-2.124
					v-1.011c-0.513,0.718-1.377,1.26-2.373,1.26c-1.845,0-3.149-1.377-3.149-3.662c0-2.27,1.289-3.677,3.149-3.677
					c0.952,0,1.802,0.469,2.373,1.245v-1.069h1.098v6.87c0,2.344-1.641,3.076-3.369,3.076
					C206.237,485.16,205.417,484.926,204.582,484.106z M209.709,480.253v-3.091c-0.381-0.615-1.23-1.143-2.109-1.143
					c-1.421,0-2.27,1.128-2.27,2.695c0,1.553,0.849,2.695,2.27,2.695C208.478,481.41,209.328,480.869,209.709,480.253z"/>
				<path style="fill:#1D262D;" d="M217.413,482.289v-4.629c0-1.245-0.63-1.641-1.582-1.641c-0.865,0-1.685,0.527-2.095,1.099v5.17
					h-1.099v-7.075h1.099v1.025c0.498-0.586,1.465-1.201,2.519-1.201c1.48,0,2.256,0.747,2.256,2.285v4.966H217.413z"/>
				<path style="fill:#1D262D;" d="M219.932,478.745c0-2.051,1.465-3.706,3.486-3.706c2.139,0,3.398,1.67,3.398,3.794v0.279h-5.727
					c0.088,1.333,1.025,2.446,2.549,2.446c0.806,0,1.626-0.322,2.183-0.893l0.527,0.718c-0.703,0.703-1.655,1.084-2.812,1.084
					C221.441,482.465,219.932,480.957,219.932,478.745z M223.404,475.947c-1.509,0-2.256,1.274-2.314,2.358h4.643
					C225.718,477.25,225.015,475.947,223.404,475.947z"/>
				<path style="fill:#1D262D;" d="M233.35,482.289v-1.055c-0.527,0.718-1.392,1.23-2.388,1.23c-1.846,0-3.149-1.406-3.149-3.706
					c0-2.256,1.289-3.721,3.149-3.721c0.952,0,1.817,0.469,2.388,1.245v-3.765h1.098v9.77H233.35z M233.35,480.371v-3.208
					c-0.396-0.615-1.245-1.143-2.124-1.143c-1.421,0-2.27,1.172-2.27,2.739c0,1.567,0.849,2.724,2.27,2.724
					C232.105,481.484,232.954,480.986,233.35,480.371z"/>
				<path style="fill:#1D262D;" d="M239.692,482.289v-9.77h1.098v3.765c0.572-0.776,1.421-1.245,2.388-1.245
					c1.845,0,3.149,1.465,3.149,3.721c0,2.299-1.304,3.706-3.149,3.706c-0.996,0-1.86-0.513-2.388-1.23v1.055H239.692z
					 M242.9,481.484c1.436,0,2.285-1.157,2.285-2.724c0-1.568-0.85-2.739-2.285-2.739c-0.864,0-1.728,0.527-2.109,1.143v3.208
					C241.171,480.986,242.036,481.484,242.9,481.484z"/>
				<path style="fill:#1D262D;" d="M247.528,484.062c0.161,0.073,0.425,0.117,0.601,0.117c0.483,0,0.805-0.161,1.055-0.747
					l0.469-1.069l-2.959-7.148h1.187l2.358,5.801l2.344-5.801h1.201l-3.545,8.51c-0.425,1.025-1.143,1.421-2.08,1.435
					c-0.234,0-0.601-0.044-0.806-0.103L247.528,484.062z"/>
			</g>
		</g>
	</g>
</g>
</svg>
