<?xml version="1.0" encoding="utf-8"?>
<!-- Generator: Adobe Illustrator 27.5.0, SVG Export Plug-In . SVG Version: 6.00 Build 0)  -->
<svg version="1.1" id="Capa_1" xmlns="http://www.w3.org/2000/svg" xmlns:xlink="http://www.w3.org/1999/xlink" x="0px" y="0px"
	 viewBox="0 0 425.196 425.197" style="enable-background:new 0 0 425.196 425.197;" xml:space="preserve">
<g>
	<rect y="0" style="fill:#FFE300;" width="425.196" height="425.197"/>
	<polygon style="fill:#F8A909;" points="425.196,425.197 245.218,425.197 64.299,311.32 316.666,73.823 425.196,167.305 	"/>
	<g>
		<path style="fill:#2F282F;" d="M373.707,301.585c0,5.378-4.36,9.735-9.736,9.735H64.299c-5.379,0-9.739-4.357-9.739-9.735V110.098
			c0-5.377,4.36-9.737,9.739-9.737h299.672c5.376,0,9.736,4.36,9.736,9.737V301.585z"/>
		<linearGradient id="SVGID_1_" gradientUnits="userSpaceOnUse" x1="62.6758" y1="184.8067" x2="365.5938" y2="184.8067">
			<stop  offset="0" style="stop-color:#45BABD"/>
			<stop  offset="0.2636" style="stop-color:#6EC5CB"/>
			<stop  offset="0.8189" style="stop-color:#B5DFEC"/>
			<stop  offset="0.9519" style="stop-color:#C5E6F4"/>
		</linearGradient>
		<path style="fill:url(#SVGID_1_);" d="M365.594,254.024c0,4.823-0.893,5.489-5.996,5.489H68.672c-5.105,0-5.996-0.666-5.996-5.489
			V115.588c0-4.822,0.891-5.488,5.996-5.488h290.926c5.104,0,5.996,0.666,5.996,5.488V254.024z"/>
		<path style="fill:#EDEDED;" d="M54.56,265.885v35.7c0,5.378,4.36,9.735,9.739,9.735h299.672c5.376,0,9.736-4.357,9.736-9.735
			v-35.7H54.56z"/>
		<path style="fill:#DADADA;" d="M222.654,288.47c0,4.706-3.814,8.52-8.52,8.52c-4.704,0-8.519-3.813-8.519-8.52
			c0-4.705,3.814-8.521,8.519-8.521C218.84,279.949,222.654,283.765,222.654,288.47z"/>
		<path style="fill:#D6D6D6;" d="M230.768,341.075c-9.438,0-24.098,0-33.268,0c16.634-14.876,0-29.755,0-29.755h33.268
			C230.768,311.32,219.706,326.199,230.768,341.075z"/>
		<rect x="161.123" y="341.075" style="fill:#EDEDED;" width="106.022" height="7.776"/>
	</g>
	<g>
		<rect x="86.12" y="73.823" style="fill:#F6F6F6;" width="230.546" height="176.167"/>
		<rect x="86.12" y="73.823" style="fill:#004B74;" width="230.546" height="15.729"/>
		<path style="fill:#FFFFFF;" d="M309.699,81.688c0,2.357-1.91,4.269-4.268,4.269c-2.357,0-4.269-1.911-4.269-4.269
			c0-2.358,1.911-4.269,4.269-4.269C307.789,77.42,309.699,79.33,309.699,81.688z"/>
		<path style="fill:#FFFFFF;" d="M298.463,81.688c0,2.357-1.91,4.269-4.268,4.269c-2.358,0-4.27-1.911-4.27-4.269
			c0-2.358,1.911-4.269,4.27-4.269C296.553,77.42,298.463,79.33,298.463,81.688z"/>
		<path style="fill:#FFFFFF;" d="M287.678,81.688c0,2.357-1.911,4.269-4.269,4.269c-2.358,0-4.269-1.911-4.269-4.269
			c0-2.358,1.91-4.269,4.269-4.269C285.767,77.42,287.678,79.33,287.678,81.688z"/>
		<path style="fill:#FFFFFF;" d="M195.662,81.912c0,2.234-1.811,4.045-4.045,4.045H98.928c-2.234,0-4.045-1.811-4.045-4.045v-0.448
			c0-2.233,1.811-4.044,4.045-4.044h92.689c2.234,0,4.045,1.811,4.045,4.044V81.912z"/>
		<rect x="86.12" y="89.553" style="fill:#D6E2EA;" width="230.546" height="61.119"/>
		<rect x="102.521" y="158.763" style="fill:#F59D16;" width="60.564" height="13.481"/>
		<rect x="102.521" y="176.29" style="fill:#D6E2EA;" width="60.564" height="6.739"/>
		<rect x="102.521" y="187.076" style="fill:#D6E2EA;" width="50.918" height="6.739"/>
		<rect x="102.521" y="201.232" style="fill:#BCC7CD;" width="195.941" height="13.479"/>
		<rect x="102.521" y="218.759" style="fill:#D6E2EA;" width="195.941" height="6.74"/>
		<rect x="102.521" y="229.545" style="fill:#D6E2EA;" width="164.732" height="6.74"/>
		<rect x="170.333" y="158.763" style="fill:#55AEA3;" width="60.564" height="13.481"/>
		<rect x="170.333" y="176.29" style="fill:#D6E2EA;" width="60.564" height="6.739"/>
		<rect x="170.333" y="187.076" style="fill:#D6E2EA;" width="50.918" height="6.739"/>
		<rect x="237.898" y="158.763" style="fill:#D48256;" width="60.564" height="13.481"/>
		<rect x="237.898" y="176.29" style="fill:#D6E2EA;" width="60.564" height="6.739"/>
		<rect x="237.898" y="187.076" style="fill:#D6E2EA;" width="50.918" height="6.739"/>
		<rect x="120.274" y="101.685" style="fill:#F59D16;" width="33.706" height="33.706"/>
		<rect x="161.957" y="101.685" style="fill:#55AEA3;" width="33.705" height="33.706"/>
		<rect x="205.1" y="101.685" style="fill:#AE9DCC;" width="33.706" height="33.706"/>
		<rect x="247.345" y="101.685" style="fill:#D48256;" width="33.705" height="33.706"/>
		<g>
			<path style="fill:#E3BBB6;" d="M137.836,119.542c4.175,0,7.559-3.384,7.559-7.56c0-4.174-3.384-7.559-7.559-7.559
				c-4.176,0-7.56,3.385-7.56,7.559C130.276,116.158,133.66,119.542,137.836,119.542z"/>
			<path style="fill:#E3BBB6;" d="M137.836,121.074c-6.395,0-11.578,5.183-11.578,11.578h23.156
				C149.414,126.257,144.23,121.074,137.836,121.074z"/>
		</g>
		<g>
			<path style="fill:#E3BBB6;" d="M264.197,119.542c4.175,0,7.56-3.384,7.56-7.56c0-4.174-3.385-7.559-7.56-7.559
				c-4.176,0-7.561,3.385-7.561,7.559C256.637,116.158,260.022,119.542,264.197,119.542z"/>
			<path style="fill:#E3BBB6;" d="M264.197,121.074c-6.395,0-11.578,5.183-11.578,11.578h23.156
				C275.775,126.257,270.592,121.074,264.197,121.074z"/>
		</g>
		<g>
			<path style="fill:#92B7B7;" d="M178.81,119.542c4.175,0,7.56-3.384,7.56-7.56c0-4.174-3.385-7.559-7.56-7.559
				s-7.56,3.385-7.56,7.559C171.25,116.158,174.635,119.542,178.81,119.542z"/>
			<path style="fill:#92B7B7;" d="M178.81,121.074c-6.395,0-11.578,5.183-11.578,11.578h23.157
				C190.389,126.257,185.205,121.074,178.81,121.074z"/>
		</g>
		<g>
			<path style="fill:#B78B98;" d="M221.953,119.542c4.175,0,7.559-3.384,7.559-7.56c0-4.174-3.384-7.559-7.559-7.559
				c-4.176,0-7.561,3.385-7.561,7.559C214.393,116.158,217.777,119.542,221.953,119.542z"/>
			<path style="fill:#B78B98;" d="M221.953,121.074c-6.396,0-11.579,5.183-11.579,11.578h23.157
				C233.531,126.257,228.348,121.074,221.953,121.074z"/>
		</g>
	</g>
	<g>
		<path style="fill:#FFFFFF;" d="M360.836,260.557c0,3.935-3.189,7.126-7.125,7.126H227.503c-3.936,0-7.125-3.19-7.125-7.126
			V127.074c0-3.936,3.189-7.125,7.125-7.125h126.208c3.936,0,7.125,3.189,7.125,7.125V260.557z"/>
		<path style="fill:#006AB3;" d="M360.836,142.889v-15.814c0-3.936-3.189-7.125-7.125-7.125H227.503
			c-3.936,0-7.125,3.189-7.125,7.125v15.814H360.836z"/>
		<g>
			<path style="fill:#FFFFFF;" d="M229.851,135.348v-7.812h1.62c0.248,0,0.451,0.042,0.609,0.124
				c0.158,0.083,0.285,0.224,0.381,0.423c0.097,0.2,0.164,0.466,0.201,0.8c0.038,0.334,0.058,0.751,0.058,1.254
				c0,0.495-0.02,0.913-0.058,1.253c-0.037,0.341-0.102,0.616-0.195,0.826c-0.093,0.21-0.222,0.363-0.387,0.459
				c-0.166,0.097-0.372,0.145-0.619,0.145h-0.702v2.528H229.851z M231.316,131.912c0.082,0,0.152-0.028,0.211-0.082
				c0.059-0.055,0.108-0.15,0.15-0.284c0.041-0.134,0.072-0.316,0.092-0.547c0.021-0.23,0.031-0.524,0.031-0.882
				c0-0.351-0.01-0.636-0.031-0.856c-0.02-0.22-0.051-0.388-0.092-0.505c-0.042-0.117-0.094-0.196-0.155-0.237
				c-0.062-0.042-0.134-0.062-0.217-0.062h-0.547v3.457H231.316z"/>
			<path style="fill:#FFFFFF;" d="M235.33,135.348c-0.02-0.042-0.038-0.084-0.052-0.129c-0.014-0.045-0.025-0.108-0.036-0.191
				c-0.01-0.083-0.021-0.194-0.031-0.335c-0.01-0.141-0.021-0.329-0.035-0.563c-0.015-0.261-0.029-0.524-0.047-0.789
				c-0.018-0.265-0.043-0.528-0.077-0.789c-0.035-0.213-0.081-0.351-0.14-0.413c-0.059-0.062-0.156-0.093-0.294-0.093h-0.434v3.302
				h-0.908v-7.812h1.651c0.24,0,0.426,0.029,0.557,0.088c0.131,0.059,0.244,0.149,0.341,0.274c0.062,0.082,0.115,0.174,0.16,0.273
				c0.045,0.1,0.081,0.218,0.108,0.356c0.027,0.138,0.047,0.297,0.057,0.48c0.01,0.182,0.016,0.394,0.016,0.634
				c0,0.248-0.004,0.456-0.011,0.624c-0.007,0.169-0.019,0.313-0.036,0.433c-0.017,0.121-0.036,0.222-0.057,0.305
				c-0.02,0.082-0.045,0.158-0.072,0.227c-0.048,0.117-0.104,0.206-0.17,0.268c-0.065,0.062-0.136,0.11-0.212,0.145v0.052
				c0.069,0.034,0.136,0.098,0.201,0.191c0.065,0.093,0.112,0.246,0.14,0.459c0.048,0.358,0.088,0.721,0.119,1.089
				c0.03,0.368,0.057,0.751,0.077,1.15c0.014,0.158,0.028,0.292,0.046,0.402c0.018,0.11,0.043,0.217,0.078,0.32v0.042H235.33z
				 M234.598,131.21c0.123,0,0.227-0.017,0.31-0.052c0.082-0.034,0.151-0.11,0.206-0.227c0.027-0.055,0.048-0.11,0.063-0.165
				c0.014-0.055,0.025-0.129,0.035-0.222c0.011-0.093,0.018-0.209,0.021-0.351c0.003-0.141,0.005-0.325,0.005-0.552
				c0-0.172-0.002-0.314-0.005-0.428c-0.004-0.113-0.009-0.206-0.016-0.278c-0.007-0.072-0.02-0.131-0.036-0.176
				c-0.018-0.044-0.036-0.084-0.057-0.119c-0.083-0.13-0.203-0.196-0.361-0.196h-0.578v2.766H234.598z"/>
			<path style="fill:#FFFFFF;" d="M236.898,134.842c-0.048-0.117-0.09-0.246-0.124-0.387c-0.034-0.141-0.061-0.332-0.082-0.573
				c-0.02-0.241-0.036-0.555-0.047-0.944c-0.01-0.388-0.016-0.889-0.016-1.502c0-0.612,0.006-1.111,0.016-1.496
				c0.011-0.385,0.026-0.698,0.047-0.939c0.021-0.241,0.048-0.43,0.082-0.567c0.034-0.138,0.076-0.269,0.124-0.392
				c0.097-0.241,0.234-0.408,0.413-0.5c0.179-0.093,0.443-0.14,0.794-0.14c0.352,0,0.616,0.046,0.795,0.14
				c0.179,0.093,0.316,0.26,0.413,0.5c0.048,0.124,0.089,0.254,0.124,0.392c0.034,0.138,0.061,0.327,0.082,0.567
				c0.02,0.241,0.036,0.554,0.047,0.939c0.01,0.385,0.016,0.884,0.016,1.496c0,0.613-0.006,1.113-0.016,1.502
				c-0.011,0.389-0.026,0.704-0.047,0.944c-0.021,0.241-0.048,0.432-0.082,0.573c-0.035,0.141-0.076,0.27-0.124,0.387
				c-0.097,0.241-0.234,0.408-0.413,0.501c-0.179,0.093-0.443,0.14-0.795,0.14c-0.351,0-0.615-0.046-0.794-0.14
				C237.133,135.25,236.995,135.083,236.898,134.842z M238.55,134.182c0.02-0.083,0.038-0.172,0.052-0.268
				c0.014-0.096,0.025-0.239,0.035-0.428c0.011-0.189,0.02-0.445,0.026-0.769c0.007-0.323,0.011-0.757,0.011-1.3
				c0-0.543-0.002-0.979-0.006-1.305c-0.003-0.327-0.01-0.584-0.02-0.774c-0.011-0.189-0.023-0.33-0.036-0.423
				c-0.014-0.093-0.031-0.18-0.052-0.263c-0.034-0.123-0.084-0.211-0.149-0.263c-0.065-0.052-0.167-0.078-0.305-0.078
				c-0.137,0-0.237,0.026-0.299,0.078c-0.063,0.051-0.11,0.136-0.145,0.252c-0.02,0.083-0.039,0.172-0.057,0.269
				c-0.018,0.096-0.031,0.239-0.041,0.428c-0.011,0.189-0.018,0.447-0.021,0.774c-0.003,0.327-0.005,0.762-0.005,1.305
				c0,0.544,0.002,0.977,0.005,1.3c0.004,0.323,0.011,0.58,0.021,0.769c0.01,0.189,0.023,0.332,0.041,0.428
				c0.018,0.097,0.036,0.186,0.057,0.268c0.034,0.124,0.082,0.21,0.145,0.258c0.061,0.048,0.162,0.072,0.299,0.072
				c0.138,0,0.238-0.024,0.3-0.072C238.467,134.392,238.516,134.306,238.55,134.182z"/>
			<path style="fill:#FFFFFF;" d="M240.17,135.348v-7.812h2.383v0.929h-1.475v2.549h1.444v0.898h-1.444v3.436H240.17z"/>
			<path style="fill:#FFFFFF;" d="M243.069,135.348v-7.812h0.938v7.812H243.069z"/>
			<path style="fill:#FFFFFF;" d="M244.699,135.348v-7.812h0.908v6.841h1.394v0.97H244.699z"/>
			<path style="fill:#FFFFFF;" d="M247.465,135.348v-7.812h2.415v0.929h-1.507v2.456h1.486v0.887h-1.486v2.569h1.496v0.97H247.465z"
				/>
		</g>
		<path style="fill:#FFFFFF;" d="M352.566,131.176c0,4.777-3.874,8.652-8.652,8.652c-4.778,0-8.651-3.875-8.651-8.652
			c0-4.779,3.873-8.652,8.651-8.652C348.692,122.523,352.566,126.396,352.566,131.176z"/>
		<polygon style="fill:#FFFFFF;" points="348.665,133.504 346.336,131.176 348.665,128.848 346.243,126.424 343.914,128.754 
			341.586,126.424 339.164,128.846 341.492,131.176 339.164,133.504 341.586,135.926 343.914,133.597 346.243,135.926 		"/>
		<g>
			<path style="fill:#DADADA;" d="M332.124,152.487c0,1.546-1.253,2.799-2.799,2.799s-2.8-1.253-2.8-2.799s1.254-2.8,2.8-2.8
				S332.124,150.941,332.124,152.487z"/>
			<path style="fill:#DADADA;" d="M342.049,152.487c0,1.546-1.254,2.799-2.8,2.799c-1.546,0-2.799-1.253-2.799-2.799
				s1.253-2.8,2.799-2.8C340.795,149.688,342.049,150.941,342.049,152.487z"/>
			<path style="fill:#DADADA;" d="M351.973,152.487c0,1.546-1.254,2.799-2.799,2.799c-1.547,0-2.799-1.253-2.799-2.799
				s1.252-2.8,2.799-2.8C350.719,149.688,351.973,150.941,351.973,152.487z"/>
		</g>
		<rect x="229.511" y="155.286" style="fill:#F59D16;" width="30.146" height="30.146"/>
		<g>
			<path style="fill:#E3BBB6;" d="M245.218,171.258c3.733,0,6.761-3.026,6.761-6.76c0-3.734-3.027-6.763-6.761-6.763
				c-3.734,0-6.762,3.028-6.762,6.763C238.456,168.232,241.483,171.258,245.218,171.258z"/>
			<path style="fill:#E3BBB6;" d="M245.218,172.627c-5.72,0-10.355,4.637-10.355,10.356h20.711
				C255.573,177.264,250.938,172.627,245.218,172.627z"/>
		</g>
		<rect x="267.744" y="157.128" style="fill:#F59D16;" width="48.349" height="10.177"/>
		<rect x="267.744" y="170.359" style="fill:#D6E2EA;" width="76.17" height="5.089"/>
		<rect x="267.744" y="178.503" style="fill:#D6E2EA;" width="29.517" height="5.089"/>
		<g>
			<path style="fill:#E32559;" d="M286.224,249.552c0,2.29-1.857,4.147-4.147,4.147H241.79c-2.29,0-4.148-1.857-4.148-4.147v-6.517
				c0-2.291,1.857-4.148,4.148-4.148h40.286c2.291,0,4.147,1.857,4.147,4.148V249.552z"/>
			<path style="fill:#D2A8BD;" d="M284.645,251.526h-40.287c-2.291,0-4.147-1.856-4.147-4.147v-6.517
				c0-0.649,0.153-1.26,0.419-1.808c-1.725,0.504-2.986,2.094-2.986,3.98v6.517c0,2.29,1.857,4.147,4.148,4.147h40.286
				c1.643,0,3.057-0.957,3.728-2.34C285.436,251.466,285.048,251.526,284.645,251.526z"/>
			<path style="fill:#AE8B9C;" d="M284.447,244.988c0,2.084-1.857,3.773-4.148,3.773h-33.572c-2.29,0-4.146-1.689-4.146-3.773
				v-1.438c0-2.085,1.856-3.774,4.146-3.774h33.572c2.291,0,4.148,1.689,4.148,3.774V244.988z"/>
			<g>
				<path style="fill:#FFFFFF;" d="M255.378,247.826l0.021,0.101l-0.05,0.079l-0.079,0.035l-0.093,0.015h-0.1l-0.165-0.015
					l-0.107-0.007h-0.322l-0.443,0.028l-0.093-0.035l-0.043-0.051l-0.036-0.078l-0.222-0.602l-0.051-0.071l-0.064-0.015
					l-0.085-0.007l-0.43-0.028h-0.114l-0.537-0.015l-0.43-0.007h-0.107l-0.107,0.007h-0.328l-0.094,0.015l-0.057,0.035l-0.043,0.086
					l-0.165,0.486l-0.043,0.115l-0.079,0.093l-0.107,0.036h-0.114l-0.415-0.021h-0.114l-0.443,0.028l-0.093,0.007l-0.086-0.043
					l-0.058-0.078l0.007-0.094l0.015-0.057l0.043-0.115l0.101-0.221l0.043-0.107l0.178-0.401l0.043-0.101l0.186-0.4l0.043-0.107
					l0.165-0.387l0.043-0.107l0.193-0.4l0.043-0.1l0.257-0.588l0.2-0.429l0.051-0.114l0.157-0.322l0.05-0.114l0.137-0.329
					l0.043-0.107l0.128-0.293l0.036-0.08l0.071-0.043l0.107-0.021l0.329-0.015h0.559l0.329,0.008l0.122,0.021l0.078,0.057
					l0.036,0.094l0.101,0.278l0.043,0.107l0.178,0.337l0.043,0.1l0.158,0.35l0.043,0.101l0.129,0.365l0.043,0.1l0.157,0.344
					l0.043,0.1l0.157,0.352l0.043,0.1l0.143,0.357l0.043,0.101l0.223,0.444l0.172,0.336l0.05,0.1l0.193,0.451L255.378,247.826z
					 M252.988,245.809l-0.029-0.094l-0.157-0.486l-0.036-0.107l-0.143-0.422l-0.036-0.093l-0.071-0.05l-0.093-0.021l-0.079,0.021
					l-0.071,0.071l-0.193,0.486l-0.043,0.107l-0.187,0.48l-0.021,0.107l0.021,0.086l0.079,0.035l0.101,0.015h0.451l0.336,0.021
					l0.093-0.028l0.058-0.058L252.988,245.809z"/>
				<path style="fill:#FFFFFF;" d="M260.388,245.1l0.007,0.122l-0.028,0.466v0.672l-0.015,0.301v0.422l-0.007,0.079l-0.043,0.071
					l-0.058,0.094l-0.065,0.093l-0.121,0.122l-0.086,0.078l-0.043,0.043l-0.094,0.064l-0.05,0.028l-0.093,0.058l-0.144,0.071
					l-0.107,0.043l-0.1,0.036l-0.165,0.05l-0.107,0.028l-0.114,0.021l-0.107,0.021l-0.165,0.021l-0.1,0.015l-0.107,0.021
					l-0.286,0.036l-0.107,0.007l-0.222-0.015l-0.165-0.014l-0.114-0.015l-0.114-0.021l-0.107-0.028l-0.251-0.072l-0.107-0.028
					l-0.107-0.036l-0.143-0.05l-0.093-0.05l-0.144-0.079l-0.086-0.064l-0.093-0.063l-0.086-0.072l-0.086-0.064l-0.079-0.071
					l-0.114-0.114l-0.071-0.086l-0.079-0.107l-0.064-0.101l-0.179-0.321l-0.05-0.115l-0.05-0.107l-0.036-0.114l-0.036-0.122
					l-0.021-0.114l-0.021-0.122l-0.014-0.114l-0.029-0.157l-0.014-0.114l-0.008-0.107v-0.107l0.021-0.322l0.015-0.058l0.021-0.121
					l0.028-0.121l0.036-0.115l0.036-0.121l0.035-0.115l0.036-0.107l0.05-0.114l0.051-0.122l0.05-0.1l0.093-0.129l0.064-0.086
					l0.078-0.093l0.079-0.086l0.086-0.079l0.187-0.157l0.093-0.071l0.086-0.064l0.086-0.058l0.235-0.136l0.107-0.064l0.122-0.051
					l0.122-0.035l0.114-0.028l0.265-0.043l0.207-0.028l0.107-0.021l0.107-0.015l0.165-0.015l0.114-0.007l0.158,0.015l0.107,0.007
					l0.164,0.021l0.1,0.021l0.158,0.028l0.107,0.029l0.157,0.049l0.107,0.037l0.257,0.129l0.107,0.063l0.094,0.064l0.035,0.021
					l0.079,0.05l0.079,0.058l0.035,0.036l0.079,0.057l0.043,0.036l0.043,0.05v0.051l-0.021,0.05l-0.043,0.064l-0.065,0.093
					l-0.071,0.078l-0.201,0.201l-0.129,0.114l-0.085,0.071l-0.079,0.058l-0.057,0.043l-0.043,0.028l-0.058,0.008l-0.079-0.051
					l-0.093-0.064l-0.093-0.057l-0.101-0.058l-0.114-0.05l-0.115-0.043l-0.121-0.029l-0.121-0.021l-0.337-0.021h-0.05l-0.115,0.008
					l-0.186,0.014l-0.114,0.029l-0.215,0.1l-0.093,0.064l-0.094,0.072l-0.078,0.078l-0.072,0.094l-0.064,0.093l-0.057,0.101
					l-0.043,0.107l-0.036,0.113l-0.028,0.107l-0.043,0.215l-0.021,0.115l-0.008,0.121v0.122l0.015,0.171l0.021,0.115l0.036,0.164
					l0.035,0.115l0.072,0.172l0.05,0.1l0.086,0.129l0.071,0.086l0.129,0.121l0.094,0.072l0.143,0.078l0.107,0.043l0.215,0.051
					l0.121,0.014l0.122,0.008h0.114l0.115-0.015l0.107-0.021l0.386-0.093l0.114-0.043l0.108-0.051l0.072-0.049l0.021-0.043v-0.08
					l0.007-0.064v-0.107l-0.015-0.215v-0.122l-0.028-0.043l-0.079-0.014h-0.172l-0.114,0.007l-0.164,0.021l-0.114,0.007h-0.165
					l-0.114-0.007l-0.244-0.043l-0.043-0.015l-0.028-0.035l-0.015-0.086l-0.007-0.057l-0.007-0.115l0.007-0.179l-0.015-0.215
					l-0.014-0.107v-0.15l0.021-0.079l0.035-0.035l0.086-0.014l0.18-0.021l0.121-0.008h0.329l0.466-0.021l0.572,0.035h0.114
					l0.294-0.035l0.114-0.008l0.058,0.008l0.107,0.021l0.05,0.029l0.014,0.042l0.022,0.101L260.388,245.1z"/>
				<path style="fill:#FFFFFF;" d="M266.02,248.006l-0.094,0.028h-0.5l-0.395-0.007h-0.114l-0.322,0.014h-0.093l-0.065-0.028
					l-0.057-0.058l-0.229-0.322l-0.064-0.086l-0.23-0.307l-0.064-0.086l-0.199-0.33l-0.065-0.086l-0.229-0.307l-0.05-0.058
					l-0.043-0.021l-0.086-0.007l-0.229-0.015l-0.093,0.007l-0.058,0.043l-0.021,0.094l-0.015,0.393l0.007,0.115l0.028,0.4
					l0.008,0.115l0.007,0.172v0.113l-0.007,0.115l-0.015,0.086l-0.035,0.035l-0.079,0.021h-0.114l-0.344-0.021l-0.329,0.021h-0.114
					l-0.33-0.021l-0.086-0.014l-0.043-0.029l-0.014-0.071l-0.008-0.101l-0.007-0.107l0.015-0.186l0.007-0.114l0.028-0.387v-0.114
					l-0.022-0.387l-0.007-0.114l-0.007-0.38v-0.114l0.022-0.386V245.4l-0.022-0.387V244.9l0.022-0.387v-0.115l0.014-0.379v-0.115
					l-0.007-0.386v-0.114l-0.015-0.236l0.008-0.107l0.007-0.043l0.021-0.094l0.043-0.057l0.086-0.021l0.058-0.007l0.108-0.007
					l0.321,0.014l0.852,0.029l0.487-0.029h0.114l0.472,0.029h0.272l0.122,0.007l0.107,0.021l0.15,0.043l0.106,0.037l0.107,0.043
					l0.114,0.043l0.107,0.049l0.094,0.058l0.136,0.093l0.079,0.064l0.071,0.072l0.071,0.086l0.101,0.143l0.065,0.094l0.085,0.135
					l0.051,0.102l0.05,0.106l0.036,0.114l0.022,0.115l0.007,0.114l0.015,0.157v0.115l-0.008,0.113l-0.014,0.123l-0.022,0.121
					l-0.029,0.114l-0.043,0.107l-0.05,0.107l-0.065,0.107l-0.064,0.093l-0.064,0.086l-0.064,0.078l-0.115,0.115l-0.078,0.064
					l-0.144,0.078l-0.086,0.051l-0.093,0.05l-0.094,0.021l-0.057,0.021l0.028,0.058l0.258,0.365l0.064,0.086l0.258,0.35l0.071,0.086
					l0.258,0.358l0.071,0.085l0.222,0.258l0.064,0.079l0.036,0.079L266.02,248.006z M264.008,245.222l0.094-0.036l0.086-0.05
					l0.071-0.086l0.05-0.107l0.029-0.114l0.007-0.114l-0.007-0.122l-0.015-0.121l-0.028-0.107l-0.051-0.107l-0.065-0.086
					l-0.078-0.064l-0.101-0.043l-0.157-0.036l-0.114-0.015l-0.358-0.006h-0.114l-0.365,0.02l-0.086,0.007l-0.05,0.021l-0.043,0.043
					l-0.007,0.079l0.007,0.165l0.015,0.114l0.014,0.122l0.008,0.121l-0.015,0.394l0.007,0.079l0.015,0.043l0.05,0.021l0.086,0.014
					l0.372,0.029h0.115l0.472-0.029L264.008,245.222z"/>
				<path style="fill:#FFFFFF;" d="M270.835,247.361l-0.007,0.115l-0.029,0.386l-0.007,0.071l-0.028,0.051l-0.036,0.028
					l-0.938,0.028h-0.114l-0.379-0.028l-0.115,0.007l-0.372,0.029l-0.114,0.007h-0.494l-0.372-0.028h-0.114l-0.615,0.035
					l-0.243-0.014l-0.086-0.015l-0.05-0.036l-0.022-0.05l-0.015-0.079l-0.015-0.164l-0.007-0.115l0.007-0.107v-0.106l0.029-0.38
					v-0.114l0.007-0.379l-0.007-0.114l-0.021-0.38l-0.008-0.114l0.015-0.387V244.9l0.028-0.38l-0.007-0.114l-0.021-0.38
					l-0.007-0.114v-0.172l0.014-0.215v-0.107l0.021-0.371l0.008-0.102l0.021-0.057l0.035-0.028l0.058-0.007l0.093-0.015l0.465,0.028
					l0.436-0.007h0.114l0.43,0.028h0.115l0.429-0.028h0.114l0.974,0.015l0.122-0.008l0.243-0.021h0.179l0.101,0.021l0.042,0.035
					l0.015,0.051l0.015,0.094v0.192l-0.015,0.179v0.122l0.007,0.179l0.008,0.107l-0.008,0.107l-0.014,0.086l-0.029,0.05
					l-0.035,0.028l-0.086,0.015h-0.057l-0.115,0.007l-0.673-0.014h-0.114l-0.365,0.014h-0.114l-0.372-0.014l-0.322-0.021h-0.107
					l-0.057,0.007l-0.072,0.015l-0.035,0.035l-0.008,0.043l-0.014,0.079l-0.015,0.172v0.114l0.007,0.122l0.008,0.079l0.014,0.049
					l0.029,0.037l0.078,0.021l0.229,0.014l0.229-0.014h0.68l0.801-0.043l0.223,0.014l0.078,0.014l0.043,0.037l0.021,0.043
					l0.008,0.078l0.014,0.121l0.007,0.122v0.236l0.015,0.165l-0.015,0.214l-0.014,0.086l-0.028,0.05l-0.051,0.036l-0.071,0.015
					h-0.143l-0.322-0.036l-0.114-0.007l-0.572,0.035l-0.458-0.014h-0.114l-0.286-0.021l-0.122,0.007l-0.086,0.007l-0.036,0.021
					l-0.022,0.051l-0.007,0.107l-0.022,0.179l-0.007,0.114v0.158l0.007,0.07l0.022,0.051l0.028,0.028l0.079,0.007l0.394,0.015h0.114
					l0.387-0.028l0.509,0.028h0.113l0.509-0.028h0.107l0.108,0.007l0.257,0.028l0.043,0.021l0.029,0.043l0.007,0.079
					L270.835,247.361z"/>
				<path style="fill:#FFFFFF;" d="M275.837,247.361l-0.007,0.115l-0.029,0.386l-0.007,0.071l-0.028,0.051l-0.036,0.028
					l-0.938,0.028h-0.114l-0.379-0.028l-0.115,0.007l-0.372,0.029l-0.114,0.007h-0.494l-0.372-0.028h-0.114l-0.615,0.035
					l-0.243-0.014l-0.086-0.015l-0.05-0.036l-0.021-0.05l-0.015-0.079l-0.015-0.164l-0.007-0.115l0.007-0.107v-0.106l0.029-0.38
					v-0.114l0.007-0.379l-0.007-0.114l-0.022-0.38l-0.008-0.114l0.015-0.387V244.9l0.028-0.38l-0.007-0.114l-0.022-0.38
					l-0.007-0.114v-0.172l0.014-0.215v-0.107l0.022-0.371l0.008-0.102l0.022-0.057l0.035-0.028l0.058-0.007l0.093-0.015l0.465,0.028
					l0.436-0.007h0.114l0.43,0.028h0.115l0.429-0.028h0.114l0.974,0.015l0.122-0.008l0.243-0.021h0.179l0.101,0.021l0.042,0.035
					l0.015,0.051l0.015,0.094v0.192l-0.015,0.179v0.122l0.007,0.179l0.008,0.107l-0.008,0.107l-0.014,0.086l-0.029,0.05
					l-0.035,0.028l-0.086,0.015h-0.057l-0.115,0.007l-0.673-0.014h-0.114l-0.365,0.014h-0.114l-0.372-0.014l-0.322-0.021h-0.107
					l-0.057,0.007l-0.072,0.015l-0.035,0.035l-0.008,0.043l-0.014,0.079l-0.015,0.172v0.114l0.007,0.122l0.008,0.079l0.014,0.049
					l0.029,0.037l0.078,0.021l0.229,0.014l0.23-0.014h0.68l0.801-0.043l0.223,0.014l0.078,0.014l0.043,0.037l0.022,0.043
					l0.008,0.078l0.014,0.121l0.007,0.122v0.236l0.015,0.165l-0.015,0.214l-0.014,0.086l-0.028,0.05l-0.051,0.036l-0.071,0.015
					h-0.144l-0.322-0.036l-0.114-0.007l-0.572,0.035l-0.458-0.014h-0.114l-0.286-0.021l-0.122,0.007l-0.086,0.007l-0.036,0.021
					l-0.021,0.051l-0.007,0.107l-0.021,0.179l-0.007,0.114v0.158l0.007,0.07l0.021,0.051l0.028,0.028l0.079,0.007l0.394,0.015h0.114
					l0.387-0.028l0.509,0.028h0.113l0.509-0.028h0.107l0.107,0.007l0.257,0.028l0.043,0.021l0.029,0.043l0.007,0.079
					L275.837,247.361z"/>
			</g>
		</g>
		<g>
			<path style="fill:#E32559;" d="M347.012,249.552c0,2.29-2.246,4.147-5.016,4.147H293.28c-2.77,0-5.015-1.857-5.015-4.147v-6.517
				c0-2.291,2.245-4.148,5.015-4.148h48.716c2.77,0,5.016,1.857,5.016,4.148V249.552z"/>
			<path style="fill:#D2A8BD;" d="M345.101,251.526h-48.716c-2.77,0-5.016-1.856-5.016-4.147v-6.517c0-0.649,0.185-1.26,0.507-1.808
				c-2.086,0.504-3.61,2.094-3.61,3.98v6.517c0,2.29,2.245,4.147,5.015,4.147h48.716c1.985,0,3.695-0.957,4.508-2.34
				C346.059,251.466,345.589,251.526,345.101,251.526z"/>
			<path style="fill:#AE8B9C;" d="M344.861,244.988c0,2.084-2.244,3.773-5.015,3.773H299.25c-2.77,0-5.015-1.689-5.015-3.773v-1.438
				c0-2.085,2.245-3.774,5.015-3.774h40.597c2.77,0,5.015,1.689,5.015,3.774V244.988z"/>
			<g>
				<g>
					<path style="fill:#FFFFFF;" d="M299.387,243.922l-0.008,0.115v1.059l0.021,0.416v0.113l0.015,0.945v0.121l-0.007,0.058
						l-0.008,0.122l-0.021,0.344l0.008,0.414l-0.008,0.101l-0.028,0.086l-0.058,0.079l-0.071,0.05l-0.064,0.021l-0.1,0.007
						l-0.365,0.015l-0.114,0.007l-0.18,0.008h-0.114l-0.093-0.021l-0.086-0.036l-0.086-0.064l-0.064-0.093l-0.107-0.207
						l-0.064-0.094l-0.279-0.35l-0.071-0.086l-0.278-0.344l-0.064-0.093l-0.251-0.372l-0.064-0.086l-0.279-0.344l-0.071-0.085
						l-0.265-0.352l-0.064-0.057l-0.05,0.021l-0.021,0.086l-0.015,0.357v0.114l0.007,0.358v0.114l0.008,0.4v0.114l-0.021,0.401
						l0.007,0.114l0.043,0.286l0.007,0.114l-0.021,0.094l-0.05,0.05l-0.05,0.015l-0.086,0.014l-0.058,0.008l-0.122,0.007
						l-0.329-0.007h-0.114l-0.293,0.014h-0.115l-0.107-0.007l-0.078-0.015l-0.058-0.035l-0.028-0.051l-0.015-0.071l-0.007-0.05
						v-0.107l0.014-0.236l0.008-0.114l-0.021-0.38v-0.114l0.014-0.873l0.008-0.114l0.021-0.379l0.007-0.115v-0.494l-0.028-0.379
						v-0.114l0.028-0.38l-0.007-0.113l-0.029-0.387l-0.007-0.115v-0.164l0.007-0.107l0.015-0.107l0.015-0.078l0.021-0.051
						l0.043-0.021l0.078-0.014l0.215-0.015l0.215,0.015h0.537l0.086,0.007l0.035,0.028l0.043,0.064l0.301,0.322l0.072,0.086
						l0.264,0.344l0.072,0.086l0.265,0.35l0.071,0.086l0.258,0.358l0.064,0.086l0.271,0.343l0.072,0.086l0.258,0.358l0.057,0.05
						l0.058,0.008l0.05-0.036v-0.079l-0.05-0.301l-0.007-0.114l0.022-0.308v-0.114l-0.029-0.437v-0.115l0.029-0.436l-0.008-0.115
						l-0.021-0.265v-0.179l0.021-0.094l0.029-0.057l0.05-0.028l0.086-0.015h0.064l0.121-0.007l0.322,0.022h0.114l0.244-0.015
						l0.106,0.008l0.165,0.007l0.078,0.015l0.051,0.021l0.043,0.049l0.014,0.102l0.008,0.064l0.007,0.122l-0.015,0.222l-0.014,0.114
						L299.387,243.922z"/>
					<path style="fill:#FFFFFF;" d="M305.934,245.325l-0.007,0.114l-0.015,0.164l-0.014,0.107l-0.043,0.215l-0.015,0.165
						l-0.014,0.107l-0.022,0.114l-0.028,0.107l-0.072,0.15l-0.05,0.1l-0.193,0.322l-0.064,0.094l-0.071,0.093l-0.072,0.079
						l-0.114,0.121l-0.079,0.072l-0.093,0.07l-0.086,0.064l-0.128,0.086l-0.094,0.058l-0.107,0.058l-0.1,0.043l-0.144,0.057
						l-0.107,0.029l-0.229,0.071l-0.122,0.036l-0.114,0.028l-0.122,0.028l-0.121,0.021l-0.122,0.008h-0.386l-0.244-0.015
						l-0.236-0.028l-0.1-0.021l-0.107-0.029l-0.387-0.129l-0.114-0.035l-0.122-0.051l-0.229-0.1l-0.107-0.058l-0.108-0.064
						l-0.093-0.072l-0.093-0.078l-0.086-0.094l-0.079-0.093l-0.193-0.193l-0.071-0.086l-0.072-0.093l-0.057-0.094l-0.058-0.143
						l-0.107-0.322l-0.042-0.15l-0.022-0.107l-0.021-0.114l-0.022-0.107l-0.021-0.157l-0.008-0.107l-0.007-0.121v-0.122l0.007-0.122
						l0.008-0.129l0.014-0.121l0.021-0.121l0.029-0.123l0.035-0.121l0.036-0.107l0.043-0.114l0.05-0.165l0.05-0.114l0.028-0.064
						l0.058-0.107l0.101-0.158l0.071-0.1l0.036-0.058l0.086-0.086l0.121-0.101l0.094-0.071l0.093-0.064l0.214-0.144l0.094-0.057
						l0.1-0.057l0.101-0.051l0.15-0.064l0.1-0.035l0.108-0.037l0.106-0.027l0.273-0.051l0.107-0.021l0.357-0.043l0.229-0.014
						l0.214,0.014l0.172,0.008l0.122,0.014l0.122,0.021l0.121,0.029l0.122,0.021l0.114,0.028l0.107,0.028l0.107,0.035l0.15,0.059
						l0.1,0.043l0.236,0.135l0.093,0.064l0.093,0.072l0.122,0.114l0.079,0.071l0.078,0.079l0.064,0.086l0.101,0.136l0.058,0.094
						l0.05,0.092l0.058,0.094l0.078,0.143l0.058,0.094l0.05,0.107l0.036,0.1l0.035,0.165l0.043,0.214l0.015,0.122l0.021,0.122
						L305.934,245.325z M304.432,245.447v-0.122l-0.008-0.122l-0.007-0.114l-0.043-0.215l-0.028-0.1l-0.079-0.156l-0.058-0.094
						l-0.1-0.129l-0.071-0.078l-0.107-0.115l-0.079-0.064l-0.186-0.107l-0.1-0.043l-0.114-0.035l-0.115-0.021l-0.229-0.014
						L303,243.922l-0.157,0.008l-0.107,0.021l-0.187,0.05l-0.114,0.043l-0.165,0.086l-0.1,0.064l-0.114,0.101l-0.079,0.086
						l-0.078,0.107l-0.058,0.093l-0.021,0.043l-0.064,0.15l-0.036,0.107l-0.022,0.051l-0.021,0.1l-0.014,0.101l-0.008,0.101
						l-0.007,0.107v0.107l0.007,0.114l0.022,0.114l0.008,0.064l0.028,0.107l0.015,0.05l0.035,0.101l0.029,0.057l0.057,0.101
						l0.036,0.058l0.079,0.1l0.043,0.051l0.086,0.086l0.143,0.121l0.1,0.064l0.115,0.057l0.108,0.043l0.15,0.051l0.107,0.021
						l0.179,0.021l0.121,0.007l0.179-0.015l0.115-0.014l0.157-0.036l0.1-0.043l0.157-0.101l0.086-0.064l0.114-0.113l0.071-0.079
						l0.093-0.114l0.065-0.101l0.072-0.157l0.043-0.107l0.035-0.164l0.015-0.107L304.432,245.447z"/>
					<path style="fill:#FFFFFF;" d="M307.315,247.529l-0.015,0.107l-0.014,0.05l-0.021,0.114l-0.043,0.172l-0.029,0.101
						l-0.028,0.114l-0.022,0.058l-0.028,0.136l-0.036,0.129l-0.05,0.121l-0.021,0.058l-0.036,0.079l-0.022,0.028l-0.021,0.015
						l-0.036,0.014l-0.229,0.029l-0.1,0.007l-0.101-0.007l-0.05-0.015l-0.079-0.015l-0.043-0.021l-0.028-0.028l-0.015-0.05
						l0.007-0.079l0.022-0.101l0.029-0.113l0.035-0.129l0.043-0.193l0.008-0.086v-0.036l-0.015-0.028l-0.028-0.029l-0.064-0.05
						l-0.086-0.071l-0.072-0.107l-0.035-0.107l-0.015-0.051l-0.007-0.1l0.007-0.043l0.021-0.114l0.043-0.122l0.058-0.1l0.086-0.086
						l0.114-0.064l0.122-0.043l0.121-0.021l0.129-0.008l0.129,0.021l0.114,0.043l0.107,0.064l0.079,0.086l0.057,0.094l0.036,0.114
						l0.021,0.114V247.529z"/>
					<path style="fill:#FFFFFF;" d="M315.08,243.364l-0.008,0.107l0.008,0.215l-0.008,0.114l-0.007,0.057l-0.015,0.086l-0.022,0.051
						l-0.043,0.035l-0.086,0.015h-0.114l-0.215-0.021l-0.114-0.007l-0.329,0.021h-0.114l-0.18-0.015h-0.107l-0.05,0.007
						l-0.071,0.021l-0.029,0.043l-0.007,0.094l-0.028,0.422v0.115l0.028,0.429l-0.007,0.114l-0.029,0.43l-0.007,0.114l0.015,0.423
						v0.658l-0.015,0.422l0.007,0.107l0.036,0.322l0.007,0.114l-0.022,0.086l-0.035,0.036l-0.094,0.014l-0.136-0.007l-0.179-0.021
						l-0.121-0.007l-0.322,0.021h-0.115l-0.321-0.021l-0.086-0.008l-0.043-0.021l-0.015-0.078v-0.122l0.022-0.3l0.008-0.115v-0.537
						l0.007-0.429v-0.114l0.007-0.423v-0.114l-0.028-0.43l-0.007-0.114v-0.544l-0.015-0.422v-0.101l-0.021-0.058l-0.071-0.014
						h-0.107l-0.229,0.014h-0.129l-0.192-0.014l-0.122-0.008l-0.122,0.008l-0.164,0.007h-0.107l-0.058-0.007l-0.079-0.015
						l-0.043-0.028l-0.028-0.043l-0.014-0.072v-0.049l-0.008-0.115l0.015-0.215v-0.107l-0.021-0.271l0.007-0.115l0.022-0.092
						l0.028-0.051l0.043-0.021l0.072-0.014h0.164l0.266,0.021h0.114l0.415-0.029h0.114l0.423,0.035h0.114l0.529-0.035l0.415,0.008
						h0.114l0.537-0.008h0.529l0.236-0.014l0.122,0.007l0.057,0.007l0.086,0.015l0.051,0.028l0.035,0.051l0.015,0.086v0.049
						l0.007,0.107L315.08,243.364z"/>
					<path style="fill:#FFFFFF;" d="M320.568,247.308l0.007,0.114l0.015,0.18l0.007,0.106l-0.007,0.101l-0.036,0.093l-0.05,0.05
						l-0.079,0.008l-0.114,0.014l-0.387-0.021h-0.114l-0.379,0.029h-0.114l-0.101-0.021l-0.043-0.058l-0.015-0.101l-0.028-0.465
						l-0.007-0.114l0.014-0.466v-0.113l-0.014-0.459v-0.1l-0.029-0.058l-0.078-0.028h-0.172l-0.287,0.021l-0.114,0.007l-0.572-0.015
						l-0.386-0.021l-0.094,0.008l-0.064,0.021l-0.035,0.064l-0.008,0.1l0.008,0.459v0.113l-0.015,0.466l0.007,0.114l0.029,0.308
						v0.165l-0.029,0.1l-0.064,0.058l-0.093,0.021l-0.107,0.007l-0.107-0.007l-0.301-0.028l-0.114-0.008l-0.336,0.021l-0.115-0.007
						h-0.057l-0.079-0.015l-0.058-0.028l-0.028-0.036l-0.015-0.078l-0.007-0.064v-0.115l0.015-0.215v-0.601l0.014-0.379v-0.114
						l0.008-0.38v-0.114l-0.021-0.379v-0.115l-0.008-0.379v-0.494l0.008-0.114l0.021-0.38l0.007-0.113l-0.007-0.38l-0.008-0.114
						l-0.035-0.244v-0.15l0.028-0.086l0.064-0.049l0.093-0.021l0.107-0.008h0.107l0.301,0.015h0.114l0.286-0.021h0.115l0.108,0.007
						l0.093,0.015l0.058,0.058l0.028,0.092l0.007,0.051v0.107l-0.021,0.322l-0.007,0.114l-0.007,0.465v0.587l0.007,0.086
						l0.022,0.057l0.036,0.029l0.071,0.008l0.101,0.006h0.1l0.272-0.043l0.107-0.006l0.458,0.014l0.423,0.029h0.107l0.05-0.008
						l0.079-0.043l0.028-0.057l0.007-0.079l0.029-0.466v-0.114l-0.015-0.465v-0.114l-0.007-0.465l0.021-0.115l0.057-0.064
						l0.086-0.014h0.114l0.387,0.021h0.114l0.322-0.021l0.114,0.007h0.064l0.093,0.015l0.058,0.057l0.028,0.1v0.107l-0.021,0.287
						l-0.007,0.114l0.022,0.38v0.113l-0.015,0.38v0.114l0.029,0.379v0.115l-0.029,0.379v0.115l-0.014,0.379v0.114l0.007,0.38v0.114
						l-0.007,0.379V247.308z"/>
					<path style="fill:#FFFFFF;" d="M327.209,247.758l0.021,0.101l-0.05,0.079l-0.079,0.035l-0.093,0.015h-0.101l-0.164-0.015
						l-0.108-0.007h-0.322l-0.443,0.028l-0.094-0.035l-0.043-0.051l-0.035-0.078l-0.223-0.602l-0.05-0.071l-0.063-0.015
						l-0.086-0.007l-0.43-0.028h-0.115l-0.536-0.015l-0.43-0.007h-0.107l-0.107,0.007h-0.329l-0.093,0.015l-0.058,0.035
						l-0.043,0.086l-0.164,0.486l-0.043,0.115l-0.079,0.093l-0.107,0.036h-0.114l-0.415-0.021h-0.114l-0.443,0.028l-0.094,0.007
						l-0.086-0.043l-0.057-0.078l0.007-0.094l0.015-0.057l0.043-0.115l0.1-0.221l0.043-0.107l0.18-0.401l0.042-0.101l0.187-0.4
						l0.043-0.107l0.164-0.387l0.043-0.107l0.193-0.4l0.043-0.1l0.258-0.588l0.2-0.429l0.05-0.114l0.158-0.322l0.05-0.114
						l0.136-0.329l0.043-0.107l0.129-0.293l0.036-0.08l0.071-0.043l0.108-0.02l0.329-0.015h0.559l0.329,0.008l0.121,0.021
						l0.079,0.057l0.036,0.094l0.1,0.278l0.043,0.107l0.179,0.337l0.043,0.1l0.157,0.351l0.043,0.101l0.129,0.365l0.043,0.1
						l0.158,0.344l0.043,0.1l0.157,0.352l0.043,0.1l0.143,0.357l0.043,0.101l0.222,0.444l0.172,0.336l0.051,0.1l0.193,0.451
						L327.209,247.758z M324.818,245.74l-0.028-0.094l-0.157-0.486l-0.036-0.107l-0.143-0.422l-0.036-0.093l-0.071-0.05
						l-0.093-0.021l-0.079,0.021l-0.071,0.071l-0.193,0.486l-0.043,0.107l-0.186,0.479l-0.021,0.107l0.021,0.086l0.079,0.035
						l0.1,0.015h0.451l0.336,0.021l0.094-0.028l0.057-0.058L324.818,245.74z"/>
					<path style="fill:#FFFFFF;" d="M332.848,243.922l-0.007,0.115v1.059l0.022,0.416v0.113l0.015,0.945v0.121l-0.008,0.058
						l-0.007,0.122l-0.022,0.344l0.007,0.414l-0.007,0.101l-0.028,0.086l-0.058,0.079l-0.071,0.05l-0.064,0.021l-0.101,0.007
						l-0.364,0.015l-0.115,0.007l-0.179,0.008h-0.114l-0.094-0.021l-0.086-0.036l-0.086-0.064l-0.065-0.093l-0.106-0.207
						l-0.065-0.094l-0.279-0.35l-0.071-0.086l-0.279-0.344l-0.064-0.093l-0.25-0.372l-0.064-0.086l-0.279-0.344l-0.072-0.085
						l-0.265-0.352l-0.064-0.057l-0.05,0.021l-0.021,0.086l-0.014,0.357v0.114l0.007,0.358v0.114l0.007,0.4v0.114l-0.022,0.401
						l0.008,0.114l0.042,0.286l0.008,0.114l-0.022,0.094l-0.05,0.05l-0.051,0.015l-0.086,0.014l-0.057,0.008l-0.122,0.007
						l-0.329-0.007h-0.115l-0.293,0.014h-0.114l-0.107-0.007l-0.079-0.015l-0.057-0.035l-0.029-0.051l-0.014-0.071l-0.008-0.05
						v-0.107l0.015-0.236l0.007-0.114l-0.021-0.38v-0.114l0.015-0.873l0.007-0.114l0.022-0.379l0.008-0.115v-0.494l-0.029-0.379
						v-0.114l0.029-0.38l-0.008-0.113l-0.028-0.387l-0.007-0.115v-0.164l0.007-0.107l0.015-0.107l0.014-0.078l0.021-0.051
						l0.043-0.021l0.079-0.014l0.215-0.015l0.215,0.015h0.536l0.086,0.007l0.036,0.028l0.043,0.064l0.3,0.322l0.072,0.086
						l0.265,0.344l0.071,0.086l0.266,0.35l0.071,0.086l0.257,0.358l0.065,0.086l0.272,0.343l0.071,0.086l0.258,0.358l0.058,0.05
						l0.057,0.008l0.05-0.036v-0.079l-0.05-0.301l-0.007-0.114l0.022-0.308v-0.114l-0.028-0.437v-0.115l0.028-0.436l-0.007-0.115
						l-0.022-0.265v-0.179l0.022-0.094l0.028-0.057l0.05-0.028l0.086-0.015h0.064l0.122-0.007l0.322,0.022h0.114l0.243-0.015
						l0.107,0.008l0.164,0.007l0.079,0.015l0.05,0.021l0.043,0.049l0.015,0.102l0.007,0.064l0.008,0.122l-0.015,0.222l-0.015,0.114
						L332.848,243.922z"/>
					<path style="fill:#FFFFFF;" d="M338.572,247.822l0.036,0.064l-0.021,0.036l-0.021,0.043l-0.05,0.028h-0.093l-0.387-0.028
						h-0.114l-0.451-0.007h-0.114l-0.458,0.021l-0.086-0.008l-0.064-0.05l-0.25-0.279l-0.065-0.085l-0.223-0.315l-0.064-0.079
						l-0.279-0.279l-0.071-0.086l-0.235-0.279l-0.058-0.078l-0.036-0.064l-0.05-0.021l-0.043,0.029l-0.015,0.093v0.493l-0.014,0.387
						v0.115l0.007,0.171v0.107l-0.007,0.107l-0.008,0.071l-0.035,0.029l-0.086,0.014l-0.223,0.015h-0.221l-0.33-0.028l-0.114,0.007
						l-0.358,0.028l-0.057-0.021l-0.028-0.043l-0.008-0.064l-0.007-0.1v-0.115l0.007-0.178l0.008-0.122l-0.028-0.387v-0.501
						l0.007-0.114l0.022-0.394l0.007-0.115v-0.5l-0.015-0.387v-0.115l0.015-0.393v-0.115l-0.015-0.887v-0.115l0.021-0.387
						l0.008-0.086l0.021-0.035l0.071-0.014l0.107,0.007l0.222,0.02h0.114l0.33-0.027h0.113l0.33,0.021l0.078,0.006l0.036,0.021
						l0.022,0.059l0.007,0.07l-0.007,0.094l-0.022,0.236l-0.007,0.114l0.022,0.38v0.113l0.007,0.38l0.015,0.079l0.057,0.014
						l0.079-0.05l0.222-0.308l0.387-0.465l0.222-0.309l0.071-0.086l0.251-0.285l0.057-0.059l0.071-0.014l0.33-0.021h0.114
						l0.436,0.029l0.272,0.006h0.115l0.271-0.006l0.079,0.006l0.036,0.029l0.014,0.014l-0.007,0.021l-0.058,0.064l-0.271,0.301
						l-0.072,0.086l-0.25,0.33l-0.072,0.086l-0.278,0.307l-0.071,0.086l-0.266,0.315l-0.071,0.086l-0.258,0.314l-0.078,0.086
						l-0.179,0.165l-0.079,0.086l-0.036,0.043l-0.035,0.057l0.014,0.043l0.051,0.064l0.265,0.352l0.078,0.085l0.315,0.315
						l0.071,0.086l0.279,0.344l0.071,0.086l0.293,0.328l0.072,0.086l0.308,0.322l0.071,0.086L338.572,247.822z"/>
					<path style="fill:#FFFFFF;" d="M342.988,246.363l-0.008,0.121l-0.014,0.121l-0.021,0.115l-0.036,0.157l-0.035,0.101
						l-0.064,0.143l-0.05,0.094l-0.086,0.129l-0.072,0.086l-0.086,0.086l-0.086,0.078l-0.143,0.093l-0.094,0.065l-0.107,0.058
						l-0.1,0.05l-0.164,0.058l-0.215,0.071l-0.115,0.021l-0.179,0.028l-0.107,0.015l-0.157,0.015l-0.1,0.007l-0.165,0.007
						l-0.344,0.021h-0.157l-0.101-0.007l-0.164-0.015l-0.107-0.014l-0.122-0.021l-0.107-0.036l-0.157-0.05l-0.101-0.051l-0.107-0.05
						l-0.1-0.05l-0.093-0.058l-0.229-0.157l-0.086-0.072l-0.129-0.1l-0.086-0.071l-0.078-0.079l-0.058-0.064l-0.007-0.05
						l0.035-0.064l0.029-0.036l0.071-0.078l0.2-0.186l0.064-0.079l0.122-0.186l0.064-0.078l0.071-0.079l0.079-0.043l0.078,0.015
						l0.079,0.057l0.228,0.158l0.108,0.057l0.101,0.051l0.165,0.078l0.106,0.035l0.114,0.036l0.115,0.021l0.164,0.007l0.115,0.008
						l0.45-0.029l0.114-0.014l0.058-0.015l0.107-0.043l0.093-0.058l0.072-0.07l0.035-0.051l0.043-0.107l-0.007-0.121l-0.015-0.058
						l-0.057-0.101l-0.036-0.043l-0.093-0.071l-0.058-0.021l-0.107-0.043l-0.121-0.028l-0.122-0.021l-0.68-0.064l-0.215-0.043
						l-0.114-0.029l-0.157-0.057l-0.107-0.035l-0.107-0.051l-0.244-0.121l-0.093-0.064l-0.107-0.064l-0.094-0.064l-0.121-0.1
						l-0.064-0.093l-0.064-0.107l-0.043-0.107l-0.051-0.15l-0.022-0.107l-0.021-0.157l-0.014-0.23l0.007-0.114l0.015-0.172
						l0.021-0.107l0.028-0.094l0.036-0.107l0.071-0.157l0.05-0.101l0.058-0.086l0.071-0.078l0.115-0.107l0.093-0.072l0.093-0.064
						l0.1-0.049l0.137-0.08l0.215-0.086l0.107-0.035l0.164-0.028l0.114-0.021l0.215-0.028l0.157-0.029l0.115-0.014l0.107-0.008
						h0.114l0.215,0.021l0.107,0.015l0.051,0.015l0.114,0.014l0.243,0.043l0.122,0.029l0.114,0.035l0.122,0.035l0.114,0.043
						l0.107,0.051l0.107,0.043l0.136,0.078l0.101,0.051l0.093,0.064l0.064,0.064v0.071l-0.043,0.079l-0.079,0.143l-0.057,0.086
						l-0.272,0.357l-0.079,0.101L342,244.18l-0.057,0.021l-0.05-0.007l-0.071-0.036l-0.107-0.064l-0.108-0.043l-0.051-0.021
						l-0.108-0.035l-0.057-0.015l-0.122-0.028l-0.165-0.035l-0.114-0.008l-0.186-0.014h-0.186l-0.121,0.006l-0.122,0.021
						l-0.114,0.036l-0.043,0.022l-0.086,0.064l-0.036,0.043l-0.05,0.101l-0.014,0.114l0.021,0.093l0.058,0.094l0.078,0.071
						l0.086,0.043l0.051,0.021l0.107,0.021l0.179,0.021l0.243,0.016l0.122,0.021l0.243,0.057l0.228,0.072l0.165,0.035l0.107,0.028
						l0.2,0.071l0.143,0.064l0.101,0.051l0.101,0.057l0.093,0.058l0.208,0.172l0.078,0.086l0.072,0.086l0.085,0.128l0.058,0.094
						l0.05,0.107l0.028,0.107l0.029,0.157l0.014,0.107L342.988,246.363z"/>
				</g>
			</g>
		</g>
		<g>
			<path style="fill:#EDEDED;stroke:#C6C6C6;stroke-width:0.3976;stroke-miterlimit:10;" d="M356.817,228.064
				c0,2.702-2.491,4.893-5.565,4.893H230.129c-3.074,0-5.566-2.19-5.566-4.893v-4.661c0-2.702,2.492-4.894,5.566-4.894h121.123
				c3.074,0,5.565,2.191,5.565,4.894V228.064z"/>
			<g>
				<path style="fill:#878787;" d="M231.81,223.653h2.239c0.086,0,0.154,0.023,0.207,0.071c0.053,0.047,0.079,0.109,0.079,0.185
					c0,0.073-0.027,0.134-0.081,0.183c-0.053,0.049-0.121,0.073-0.205,0.073h-1.727v1.206h0.727c0.083,0,0.15,0.023,0.202,0.071
					c0.052,0.048,0.077,0.109,0.077,0.185c0,0.076-0.025,0.137-0.077,0.186c-0.052,0.047-0.119,0.07-0.202,0.07h-0.727v1.209h1.727
					c0.086,0,0.154,0.023,0.207,0.072c0.053,0.047,0.079,0.109,0.079,0.184c0,0.076-0.027,0.138-0.081,0.186
					c-0.053,0.047-0.121,0.07-0.205,0.07h-2.239V223.653z"/>
				<path style="fill:#878787;" d="M236.092,225.014v0.158l0.297-0.203l0.019-0.012c0.218-0.154,0.424-0.232,0.616-0.232h0.232
					c0.26,0,0.454,0.078,0.583,0.236c0.13,0.156,0.198,0.396,0.209,0.72l0.057,1.638v0.012c0,0.08-0.024,0.145-0.073,0.197
					c-0.049,0.051-0.109,0.076-0.184,0.076c-0.075,0-0.136-0.024-0.182-0.075c-0.045-0.051-0.07-0.12-0.074-0.21l-0.063-1.655
					c-0.006-0.144-0.035-0.249-0.088-0.317c-0.053-0.068-0.13-0.103-0.233-0.103h-0.167c-0.091,0-0.204,0.044-0.339,0.131
					l-0.019,0.013l-0.592,0.389v1.543c0,0.086-0.024,0.154-0.072,0.207c-0.047,0.053-0.108,0.078-0.184,0.078
					c-0.076,0-0.138-0.025-0.186-0.08c-0.047-0.053-0.071-0.121-0.071-0.205v-2.305c0-0.088,0.023-0.157,0.07-0.21
					c0.046-0.052,0.108-0.079,0.187-0.079c0.072,0,0.134,0.027,0.183,0.08C236.067,224.859,236.092,224.929,236.092,225.014z"/>
				<path style="fill:#878787;" d="M240.367,224.148v0.577h0.971c0.085,0,0.154,0.024,0.207,0.072
					c0.053,0.047,0.078,0.109,0.078,0.184c0,0.076-0.026,0.138-0.08,0.186c-0.053,0.047-0.122,0.071-0.205,0.071h-0.971v1.61
					c0,0.07,0.023,0.128,0.07,0.174c0.046,0.047,0.105,0.07,0.174,0.07h0.506c0.054,0,0.102-0.016,0.144-0.046
					c0.041-0.03,0.073-0.075,0.095-0.132c0.002-0.006,0.007-0.02,0.016-0.043c0.045-0.141,0.127-0.211,0.246-0.211
					c0.07,0,0.129,0.024,0.178,0.073c0.049,0.048,0.072,0.105,0.072,0.168c0,0.177-0.075,0.338-0.226,0.483
					c-0.151,0.146-0.327,0.219-0.53,0.219h-0.5c-0.211,0-0.391-0.074-0.539-0.225c-0.148-0.149-0.223-0.328-0.223-0.537v-1.604
					h-0.215c-0.088,0-0.157-0.023-0.209-0.07c-0.051-0.046-0.077-0.108-0.077-0.187c0-0.072,0.027-0.134,0.081-0.183
					c0.053-0.048,0.121-0.073,0.205-0.073h0.215v-0.577c0-0.087,0.023-0.155,0.069-0.206c0.047-0.049,0.108-0.074,0.186-0.074
					c0.075,0,0.138,0.025,0.188,0.078C240.342,223.996,240.367,224.064,240.367,224.148z"/>
				<path style="fill:#878787;" d="M244.095,224.725h0.565c0.086,0,0.17,0.016,0.255,0.047c0.085,0.03,0.162,0.074,0.233,0.133
					l0.221,0.175c0.083,0.069,0.15,0.157,0.199,0.263c0.05,0.105,0.074,0.213,0.074,0.324v0.61c0,0.073-0.026,0.134-0.08,0.183
					s-0.122,0.073-0.205,0.073h-1.727v0.134c0,0.036,0.008,0.07,0.024,0.104c0.017,0.034,0.04,0.062,0.067,0.083l0.217,0.186
					c0.024,0.018,0.049,0.031,0.073,0.039c0.024,0.01,0.054,0.014,0.088,0.014h1.257c0.085,0,0.154,0.023,0.207,0.072
					c0.053,0.047,0.078,0.109,0.078,0.184c0,0.076-0.026,0.138-0.08,0.186c-0.054,0.047-0.122,0.07-0.205,0.07h-1.263
					c-0.085,0-0.169-0.014-0.25-0.044c-0.081-0.03-0.159-0.073-0.232-0.131l-0.22-0.184c-0.086-0.07-0.152-0.156-0.201-0.26
					c-0.049-0.103-0.073-0.209-0.073-0.318v-1c0-0.111,0.024-0.219,0.073-0.324c0.049-0.105,0.115-0.193,0.201-0.263l0.22-0.175
					c0.073-0.061,0.151-0.105,0.232-0.135C243.926,224.74,244.01,224.725,244.095,224.725z M244.101,225.23
					c-0.025,0-0.052,0.006-0.079,0.018c-0.026,0.01-0.054,0.025-0.082,0.045l-0.217,0.182c-0.027,0.023-0.051,0.051-0.067,0.086
					c-0.017,0.034-0.024,0.07-0.024,0.105v0.346h1.5v-0.346c0-0.035-0.008-0.071-0.025-0.105c-0.017-0.035-0.038-0.063-0.064-0.082
					l-0.223-0.186c-0.025-0.02-0.053-0.035-0.079-0.045c-0.026-0.012-0.053-0.018-0.079-0.018H244.101z"/>
				<path style="fill:#878787;" d="M247.4,225.008v0.268l0.426-0.371c0.063-0.057,0.139-0.1,0.227-0.132
					c0.088-0.032,0.175-0.048,0.261-0.048h0.336c0.208,0,0.388,0.074,0.537,0.224c0.15,0.149,0.225,0.327,0.225,0.533v0.116
					c0,0.085-0.023,0.154-0.071,0.207c-0.048,0.053-0.108,0.078-0.185,0.078c-0.075,0-0.137-0.026-0.185-0.08
					c-0.048-0.054-0.071-0.122-0.071-0.205v-0.116c0-0.066-0.025-0.124-0.074-0.175c-0.05-0.051-0.108-0.076-0.176-0.076h-0.336
					c-0.028,0-0.061,0.008-0.098,0.023c-0.036,0.015-0.064,0.031-0.084,0.052l-0.732,0.646v1.367c0,0.086-0.024,0.154-0.072,0.207
					c-0.047,0.053-0.109,0.078-0.185,0.078s-0.137-0.025-0.185-0.08c-0.048-0.053-0.071-0.121-0.071-0.205v-2.311
					c0-0.088,0.023-0.156,0.07-0.207c0.046-0.051,0.108-0.076,0.186-0.076c0.075,0,0.138,0.027,0.185,0.079
					C247.376,224.857,247.4,224.924,247.4,225.008z"/>
				<path style="fill:#878787;" d="M253.055,225.008v0.334l0.67,1.529h0.157l0.673-1.529v-0.334c0-0.084,0.023-0.151,0.071-0.204
					c0.048-0.052,0.109-0.079,0.185-0.079c0.076,0,0.137,0.026,0.185,0.078c0.048,0.051,0.071,0.119,0.071,0.205v0.379
					c0,0.021-0.002,0.043-0.007,0.064s-0.016,0.051-0.031,0.086l-1.311,3.014c-0.018,0.034-0.05,0.064-0.098,0.088
					c-0.048,0.025-0.1,0.037-0.158,0.037h-0.64c-0.086,0-0.154-0.023-0.204-0.07c-0.051-0.046-0.076-0.107-0.076-0.186
					c0-0.073,0.025-0.135,0.077-0.184c0.052-0.048,0.119-0.072,0.203-0.072h0.506l0.336-0.774h-0.086
					c-0.06,0-0.112-0.011-0.158-0.034c-0.045-0.023-0.076-0.054-0.092-0.094l-0.75-1.725c-0.015-0.029-0.023-0.055-0.029-0.076
					c-0.004-0.022-0.007-0.047-0.007-0.074v-0.379c0-0.088,0.023-0.156,0.07-0.207c0.046-0.051,0.108-0.076,0.186-0.076
					c0.075,0,0.138,0.027,0.185,0.079C253.03,224.857,253.055,224.924,253.055,225.008z"/>
				<path style="fill:#878787;" d="M257.288,224.725h0.565c0.086,0,0.17,0.016,0.255,0.047c0.084,0.03,0.162,0.074,0.233,0.133
					l0.221,0.175c0.083,0.069,0.149,0.157,0.199,0.263c0.05,0.105,0.074,0.213,0.074,0.324v1c0,0.109-0.025,0.216-0.072,0.318
					c-0.049,0.104-0.116,0.189-0.201,0.26l-0.221,0.184c-0.071,0.056-0.149,0.099-0.233,0.13c-0.085,0.03-0.169,0.045-0.255,0.045
					h-0.565c-0.086,0-0.169-0.014-0.25-0.044c-0.082-0.03-0.159-0.073-0.232-0.131l-0.221-0.184c-0.085-0.07-0.152-0.156-0.2-0.26
					c-0.049-0.103-0.073-0.209-0.073-0.318v-1c0-0.111,0.025-0.219,0.073-0.324c0.048-0.105,0.115-0.193,0.2-0.263l0.221-0.175
					c0.073-0.061,0.15-0.105,0.232-0.135C257.119,224.74,257.202,224.725,257.288,224.725z M257.294,225.23
					c-0.026,0-0.052,0.006-0.079,0.018c-0.026,0.01-0.054,0.025-0.082,0.045l-0.217,0.182c-0.028,0.023-0.051,0.051-0.067,0.086
					c-0.017,0.034-0.025,0.07-0.025,0.105v1c0,0.036,0.009,0.07,0.025,0.104c0.017,0.034,0.039,0.062,0.067,0.083l0.22,0.186
					c0.024,0.018,0.05,0.031,0.076,0.039c0.026,0.01,0.054,0.014,0.082,0.014h0.559c0.027,0,0.056-0.005,0.084-0.015
					c0.027-0.01,0.053-0.024,0.077-0.042l0.217-0.182c0.026-0.02,0.048-0.047,0.065-0.083c0.019-0.036,0.027-0.07,0.027-0.104v-1
					c0-0.035-0.009-0.071-0.025-0.105c-0.018-0.035-0.038-0.063-0.064-0.082l-0.223-0.186c-0.026-0.02-0.053-0.035-0.079-0.045
					c-0.026-0.012-0.054-0.018-0.079-0.018H257.294z"/>
				<path style="fill:#878787;" d="M260.593,225.014l0.06,1.656c0.008,0.146,0.038,0.254,0.091,0.32
					c0.053,0.068,0.131,0.102,0.233,0.102h0.164c0.088,0,0.197-0.041,0.328-0.125c0.016-0.01,0.026-0.017,0.032-0.02l0.593-0.384
					v-1.549c0-0.088,0.023-0.157,0.07-0.21c0.046-0.052,0.108-0.079,0.186-0.079c0.073,0,0.135,0.027,0.184,0.08
					c0.048,0.055,0.072,0.124,0.072,0.209v2.305c0,0.086-0.023,0.154-0.071,0.207c-0.048,0.053-0.109,0.078-0.185,0.078
					s-0.137-0.025-0.185-0.08c-0.048-0.053-0.071-0.121-0.071-0.205v-0.158l-0.301,0.206l-0.003,0.003
					c-0.223,0.156-0.433,0.234-0.632,0.234h-0.229c-0.261,0-0.455-0.078-0.586-0.234c-0.129-0.156-0.199-0.398-0.209-0.724
					l-0.054-1.632v-0.012c0-0.08,0.024-0.145,0.073-0.198c0.048-0.052,0.109-0.079,0.183-0.079c0.075,0,0.136,0.026,0.182,0.078
					C260.565,224.854,260.589,224.924,260.593,225.014z"/>
				<path style="fill:#878787;" d="M264.362,225.008v0.268l0.426-0.371c0.064-0.057,0.14-0.1,0.228-0.132
					c0.089-0.032,0.176-0.048,0.261-0.048h0.337c0.208,0,0.387,0.074,0.537,0.224c0.15,0.149,0.225,0.327,0.225,0.533v0.116
					c0,0.085-0.023,0.154-0.071,0.207c-0.048,0.053-0.109,0.078-0.185,0.078s-0.137-0.026-0.185-0.08
					c-0.048-0.054-0.071-0.122-0.071-0.205v-0.116c0-0.066-0.025-0.124-0.074-0.175c-0.05-0.051-0.108-0.076-0.176-0.076h-0.337
					c-0.027,0-0.06,0.008-0.097,0.023c-0.037,0.015-0.064,0.031-0.085,0.052l-0.732,0.646v1.367c0,0.086-0.023,0.154-0.071,0.207
					c-0.048,0.053-0.109,0.078-0.184,0.078s-0.137-0.025-0.185-0.08c-0.048-0.053-0.071-0.121-0.071-0.205v-2.311
					c0-0.088,0.023-0.156,0.069-0.207c0.047-0.051,0.109-0.076,0.187-0.076c0.075,0,0.137,0.027,0.184,0.079
					C264.339,224.857,264.362,224.924,264.362,225.008z"/>
				<path style="fill:#878787;" d="M270.482,224.725h0.565c0.086,0,0.17,0.016,0.255,0.047c0.084,0.03,0.162,0.074,0.233,0.133
					l0.221,0.175c0.083,0.069,0.149,0.157,0.199,0.263s0.074,0.213,0.074,0.324v0.61c0,0.073-0.026,0.134-0.08,0.183
					c-0.054,0.049-0.122,0.073-0.205,0.073h-1.728v0.134c0,0.036,0.009,0.07,0.025,0.104c0.017,0.034,0.039,0.062,0.067,0.083
					l0.217,0.186c0.023,0.018,0.049,0.031,0.073,0.039c0.024,0.01,0.054,0.014,0.088,0.014h1.257c0.085,0,0.154,0.023,0.207,0.072
					c0.052,0.047,0.078,0.109,0.078,0.184c0,0.076-0.026,0.138-0.08,0.186c-0.054,0.047-0.122,0.07-0.205,0.07h-1.263
					c-0.086,0-0.169-0.014-0.25-0.044c-0.082-0.03-0.159-0.073-0.233-0.131l-0.221-0.184c-0.085-0.07-0.152-0.156-0.2-0.26
					c-0.049-0.103-0.073-0.209-0.073-0.318v-1c0-0.111,0.024-0.219,0.073-0.324c0.048-0.105,0.115-0.193,0.2-0.263l0.221-0.175
					c0.073-0.061,0.15-0.105,0.233-0.135C270.313,224.74,270.396,224.725,270.482,224.725z M270.487,225.23
					c-0.026,0-0.052,0.006-0.079,0.018c-0.026,0.01-0.054,0.025-0.082,0.045l-0.217,0.182c-0.028,0.023-0.051,0.051-0.067,0.086
					c-0.017,0.034-0.025,0.07-0.025,0.105v0.346h1.501v-0.346c0-0.035-0.009-0.071-0.025-0.105
					c-0.018-0.035-0.038-0.063-0.064-0.082l-0.223-0.186c-0.026-0.02-0.053-0.035-0.079-0.045c-0.026-0.012-0.054-0.018-0.079-0.018
					H270.487z"/>
				<path style="fill:#878787;" d="M273.56,225.371h1.953c0.086,0,0.154,0.023,0.207,0.071c0.053,0.048,0.079,0.109,0.079,0.185
					v0.215c0,0.075-0.027,0.138-0.082,0.188c-0.055,0.049-0.123,0.074-0.204,0.074h-1.953c-0.085,0-0.154-0.024-0.207-0.072
					c-0.052-0.049-0.079-0.112-0.079-0.189v-0.215c0-0.073,0.027-0.135,0.081-0.184C273.408,225.395,273.477,225.371,273.56,225.371
					z"/>
				<path style="fill:#878787;" d="M277.83,225.806h0.977c0.075,0,0.137,0.026,0.184,0.077c0.048,0.053,0.072,0.119,0.072,0.203
					v1.232c0,0.086-0.024,0.154-0.072,0.207c-0.047,0.053-0.108,0.078-0.184,0.078c-0.076,0-0.138-0.025-0.186-0.08
					c-0.047-0.053-0.071-0.121-0.071-0.205v-1h-0.72c-0.088,0-0.156-0.023-0.206-0.07c-0.05-0.047-0.074-0.109-0.074-0.186
					s0.025-0.138,0.077-0.186C277.679,225.83,277.746,225.806,277.83,225.806z"/>
				<path style="fill:#878787;" d="M283.326,225.311l0.065,2.001v0.012c0,0.08-0.024,0.146-0.073,0.199
					c-0.049,0.055-0.107,0.08-0.177,0.08c-0.075,0-0.138-0.023-0.185-0.074c-0.048-0.049-0.074-0.117-0.078-0.202l-0.065-1.991
					c0-0.028-0.009-0.052-0.028-0.07c-0.019-0.02-0.042-0.028-0.069-0.028c-0.013,0-0.024,0.003-0.037,0.007
					c-0.013,0.006-0.023,0.012-0.032,0.02l-0.314,0.273v1.781c0,0.086-0.025,0.154-0.072,0.207
					c-0.047,0.053-0.109,0.078-0.185,0.078s-0.137-0.025-0.185-0.08c-0.047-0.053-0.071-0.121-0.071-0.205v-1.971
					c0-0.028-0.012-0.053-0.036-0.076c-0.023-0.023-0.051-0.034-0.08-0.034c-0.014,0-0.027,0.003-0.04,0.009
					c-0.013,0.006-0.024,0.014-0.034,0.023l-0.36,0.292v1.757c0,0.086-0.023,0.154-0.07,0.207c-0.046,0.053-0.108,0.078-0.186,0.078
					c-0.073,0-0.135-0.025-0.184-0.08c-0.048-0.053-0.073-0.121-0.073-0.205v-2.311c0-0.088,0.023-0.156,0.07-0.207
					s0.109-0.076,0.186-0.076c0.06,0,0.108,0.016,0.148,0.048c0.04,0.032,0.071,0.079,0.096,0.143l0.086-0.068
					c0.056-0.043,0.112-0.073,0.169-0.093c0.057-0.02,0.12-0.03,0.191-0.03c0.098,0,0.188,0.02,0.27,0.059
					c0.082,0.039,0.161,0.099,0.236,0.18l0.061-0.047c0.091-0.074,0.167-0.124,0.229-0.15c0.061-0.027,0.128-0.041,0.199-0.041
					c0.177,0,0.324,0.057,0.441,0.167C283.256,225.003,283.318,225.143,283.326,225.311z"/>
				<path style="fill:#878787;" d="M285.368,224.725h0.908c0.206,0,0.383,0.072,0.53,0.215c0.146,0.143,0.225,0.323,0.232,0.542
					l0.068,1.831v0.012c0,0.08-0.024,0.146-0.073,0.199c-0.049,0.055-0.107,0.08-0.177,0.08c-0.072,0-0.131-0.021-0.176-0.066
					c-0.046-0.045-0.074-0.107-0.087-0.189l-0.298,0.188c-0.031,0.02-0.068,0.037-0.111,0.05c-0.043,0.013-0.081,0.018-0.114,0.018
					h-0.727c-0.211,0-0.391-0.073-0.539-0.221c-0.149-0.148-0.224-0.326-0.224-0.535v-0.285c0-0.209,0.076-0.389,0.227-0.538
					c0.15-0.149,0.329-0.225,0.536-0.225h0.977c0.042,0,0.081,0.003,0.117,0.011c0.037,0.007,0.072,0.018,0.106,0.031l-0.018-0.36
					c-0.004-0.073-0.028-0.133-0.074-0.177c-0.046-0.045-0.105-0.067-0.176-0.067h-0.908c-0.085,0-0.152-0.022-0.201-0.069
					c-0.048-0.045-0.072-0.107-0.072-0.188c0-0.074,0.024-0.137,0.075-0.184C285.221,224.749,285.287,224.725,285.368,224.725z
					 M285.339,226.313c-0.064,0-0.12,0.024-0.17,0.074c-0.05,0.049-0.074,0.107-0.074,0.176v0.285c0,0.066,0.024,0.123,0.072,0.172
					c0.049,0.049,0.108,0.072,0.178,0.072h0.682l0.551-0.31l-0.006-0.225c0-0.07-0.024-0.128-0.074-0.175
					c-0.05-0.046-0.108-0.069-0.176-0.069H285.339z"/>
				<path style="fill:#878787;" d="M288.888,224.725h0.696c0.086,0,0.154,0.024,0.207,0.072c0.053,0.047,0.079,0.109,0.079,0.184
					v2.111h0.471c0.083,0,0.15,0.023,0.202,0.07c0.052,0.047,0.078,0.108,0.078,0.186c0,0.076-0.027,0.138-0.079,0.186
					c-0.053,0.047-0.12,0.07-0.201,0.07h-1.453c-0.085,0-0.154-0.023-0.207-0.07c-0.053-0.048-0.079-0.109-0.079-0.186
					c0-0.074,0.027-0.137,0.081-0.184c0.054-0.049,0.122-0.072,0.205-0.072h0.465v-1.854h-0.465c-0.087,0-0.157-0.023-0.208-0.07
					c-0.052-0.046-0.078-0.108-0.078-0.187c0-0.072,0.027-0.134,0.081-0.183C288.736,224.75,288.805,224.725,288.888,224.725z
					 M289.388,223.439h0.25c0.058,0,0.111,0.025,0.159,0.076c0.049,0.053,0.073,0.111,0.073,0.18v0.214
					c0,0.073-0.026,0.134-0.08,0.183s-0.122,0.073-0.206,0.073h-0.196c-0.087,0-0.156-0.023-0.208-0.069
					c-0.052-0.047-0.078-0.109-0.078-0.187v-0.214c0-0.076,0.027-0.138,0.079-0.186
					C289.233,223.463,289.303,223.439,289.388,223.439z"/>
				<path style="fill:#878787;" d="M292.657,223.653h0.696c0.086,0,0.154,0.023,0.207,0.071c0.053,0.047,0.079,0.109,0.079,0.185
					v3.183h0.471c0.083,0,0.15,0.023,0.202,0.07c0.052,0.047,0.078,0.108,0.078,0.186c0,0.076-0.027,0.138-0.079,0.186
					c-0.053,0.047-0.12,0.07-0.201,0.07h-1.453c-0.085,0-0.154-0.023-0.207-0.07c-0.053-0.048-0.079-0.109-0.079-0.186
					c0-0.074,0.027-0.137,0.081-0.184c0.054-0.049,0.122-0.072,0.205-0.072h0.465v-2.927h-0.465c-0.087,0-0.157-0.023-0.208-0.069
					c-0.052-0.047-0.078-0.109-0.078-0.187c0-0.075,0.027-0.138,0.081-0.185C292.506,223.677,292.574,223.653,292.657,223.653z"/>
				<path style="fill:#878787;" d="M298.561,224.725h0.908c0.206,0,0.383,0.072,0.53,0.215c0.147,0.143,0.225,0.323,0.232,0.542
					l0.068,1.831v0.012c0,0.08-0.024,0.146-0.073,0.199c-0.049,0.055-0.108,0.08-0.177,0.08c-0.072,0-0.131-0.021-0.176-0.066
					c-0.046-0.045-0.074-0.107-0.087-0.189l-0.298,0.188c-0.031,0.02-0.068,0.037-0.111,0.05c-0.043,0.013-0.081,0.018-0.114,0.018
					h-0.727c-0.211,0-0.391-0.073-0.539-0.221c-0.149-0.148-0.224-0.326-0.224-0.535v-0.285c0-0.209,0.076-0.389,0.227-0.538
					c0.15-0.149,0.329-0.225,0.536-0.225h0.977c0.042,0,0.081,0.003,0.117,0.011c0.037,0.007,0.072,0.018,0.106,0.031l-0.019-0.36
					c-0.004-0.073-0.028-0.133-0.074-0.177c-0.046-0.045-0.105-0.067-0.176-0.067h-0.908c-0.085,0-0.152-0.022-0.201-0.069
					c-0.048-0.045-0.072-0.107-0.072-0.188c0-0.074,0.024-0.137,0.075-0.184C298.414,224.749,298.48,224.725,298.561,224.725z
					 M298.532,226.313c-0.063,0-0.12,0.024-0.17,0.074c-0.05,0.049-0.074,0.107-0.074,0.176v0.285c0,0.066,0.024,0.123,0.072,0.172
					c0.049,0.049,0.108,0.072,0.178,0.072h0.682l0.551-0.31l-0.006-0.225c0-0.07-0.024-0.128-0.074-0.175
					c-0.05-0.046-0.108-0.069-0.176-0.069H298.532z"/>
				<path style="fill:#878787;" d="M304.07,223.939v3.379c0,0.084-0.025,0.152-0.075,0.205c-0.05,0.055-0.112,0.08-0.188,0.08
					c-0.077,0-0.14-0.025-0.186-0.076c-0.046-0.053-0.069-0.121-0.069-0.209v-0.057l-0.19,0.167
					c-0.063,0.056-0.139,0.099-0.225,0.13c-0.087,0.03-0.175,0.045-0.264,0.045h-0.397c-0.087,0-0.172-0.014-0.254-0.044
					c-0.083-0.03-0.16-0.073-0.234-0.131l-0.176-0.134c-0.083-0.066-0.149-0.152-0.199-0.258c-0.05-0.106-0.074-0.216-0.074-0.329
					v-1.11c0-0.1,0.026-0.203,0.079-0.311c0.052-0.106,0.117-0.189,0.194-0.25l0.176-0.133c0.076-0.061,0.153-0.105,0.234-0.135
					c0.08-0.029,0.165-0.045,0.254-0.045h0.397c0.089,0,0.177,0.016,0.264,0.048c0.086,0.032,0.161,0.075,0.225,0.132l0.19,0.163
					v-1.128c0-0.084,0.023-0.152,0.071-0.206c0.048-0.054,0.109-0.08,0.184-0.08c0.075,0,0.138,0.026,0.188,0.079
					C304.045,223.785,304.07,223.854,304.07,223.939z M302.477,225.237c-0.053,0-0.109,0.022-0.166,0.068
					c-0.004,0.002-0.008,0.004-0.01,0.006l-0.17,0.134c-0.021,0.018-0.039,0.043-0.053,0.074c-0.014,0.032-0.021,0.064-0.021,0.096
					v1.093c0,0.034,0.008,0.067,0.021,0.101c0.014,0.034,0.031,0.059,0.053,0.075l0.17,0.134c0.002,0.002,0.004,0.004,0.006,0.006
					c0.06,0.046,0.117,0.068,0.17,0.068h0.397c0.029,0,0.059-0.006,0.088-0.018c0.028-0.012,0.059-0.031,0.091-0.057l0.432-0.352
					c0.02-0.016,0.036-0.041,0.049-0.074c0.013-0.033,0.02-0.068,0.02-0.104v-0.652c0-0.036-0.007-0.07-0.02-0.104
					c-0.013-0.032-0.029-0.057-0.049-0.072l-0.432-0.349c-0.03-0.026-0.059-0.044-0.087-0.057c-0.027-0.012-0.059-0.018-0.092-0.018
					H302.477z"/>
				<path style="fill:#878787;" d="M305.826,225.008v0.268l0.426-0.371c0.064-0.057,0.14-0.1,0.228-0.132
					c0.088-0.032,0.175-0.048,0.26-0.048h0.337c0.208,0,0.388,0.074,0.537,0.224c0.15,0.149,0.226,0.327,0.226,0.533v0.116
					c0,0.085-0.024,0.154-0.072,0.207c-0.047,0.053-0.109,0.078-0.185,0.078s-0.137-0.026-0.185-0.08
					c-0.047-0.054-0.071-0.122-0.071-0.205v-0.116c0-0.066-0.024-0.124-0.074-0.175c-0.05-0.051-0.108-0.076-0.176-0.076h-0.337
					c-0.027,0-0.06,0.008-0.097,0.023c-0.036,0.015-0.064,0.031-0.085,0.052l-0.732,0.646v1.367c0,0.086-0.023,0.154-0.071,0.207
					c-0.048,0.053-0.108,0.078-0.185,0.078c-0.075,0-0.137-0.025-0.185-0.08c-0.048-0.053-0.071-0.121-0.071-0.205v-2.311
					c0-0.088,0.023-0.156,0.07-0.207c0.046-0.051,0.108-0.076,0.186-0.076c0.076,0,0.137,0.027,0.185,0.079
					C305.803,224.857,305.826,224.924,305.826,225.008z"/>
				<path style="fill:#878787;" d="M310.061,224.725h0.565c0.086,0,0.171,0.016,0.255,0.047c0.084,0.03,0.162,0.074,0.233,0.133
					l0.221,0.175c0.083,0.069,0.149,0.157,0.199,0.263s0.075,0.213,0.075,0.324v0.61c0,0.073-0.027,0.134-0.081,0.183
					c-0.054,0.049-0.122,0.073-0.205,0.073h-1.728v0.134c0,0.036,0.009,0.07,0.025,0.104c0.018,0.034,0.039,0.062,0.067,0.083
					l0.218,0.186c0.023,0.018,0.048,0.031,0.072,0.039c0.025,0.01,0.055,0.014,0.088,0.014h1.257c0.085,0,0.154,0.023,0.207,0.072
					c0.052,0.047,0.079,0.109,0.079,0.184c0,0.076-0.027,0.138-0.081,0.186c-0.054,0.047-0.122,0.07-0.205,0.07h-1.263
					c-0.086,0-0.169-0.014-0.25-0.044c-0.082-0.03-0.159-0.073-0.232-0.131l-0.221-0.184c-0.085-0.07-0.152-0.156-0.2-0.26
					c-0.049-0.103-0.073-0.209-0.073-0.318v-1c0-0.111,0.024-0.219,0.073-0.324c0.048-0.105,0.115-0.193,0.2-0.263l0.221-0.175
					c0.073-0.061,0.15-0.105,0.232-0.135C309.892,224.74,309.975,224.725,310.061,224.725z M310.066,225.23
					c-0.025,0-0.052,0.006-0.079,0.018c-0.026,0.01-0.054,0.025-0.081,0.045l-0.218,0.182c-0.028,0.023-0.05,0.051-0.067,0.086
					c-0.017,0.034-0.025,0.07-0.025,0.105v0.346h1.501v-0.346c0-0.035-0.009-0.071-0.025-0.105
					c-0.017-0.035-0.038-0.063-0.063-0.082l-0.224-0.186c-0.026-0.02-0.052-0.035-0.079-0.045c-0.026-0.012-0.053-0.018-0.079-0.018
					H310.066z"/>
				<path style="fill:#878787;" d="M313.568,224.725h1.084c0.166,0,0.318,0.053,0.457,0.155c0.138,0.103,0.207,0.208,0.207,0.315
					c0,0.072-0.025,0.133-0.076,0.182c-0.051,0.05-0.111,0.074-0.181,0.074c-0.064,0-0.132-0.035-0.204-0.107
					c-0.072-0.07-0.143-0.106-0.209-0.106h-1.078c-0.044,0-0.08,0.015-0.107,0.043c-0.027,0.028-0.042,0.067-0.042,0.118
					c0,0.021,0.009,0.044,0.027,0.068c0.018,0.023,0.039,0.041,0.065,0.053l1.385,0.59c0.146,0.065,0.263,0.162,0.348,0.291
					c0.086,0.127,0.128,0.271,0.128,0.43c0,0.213-0.076,0.395-0.229,0.547c-0.152,0.151-0.334,0.227-0.544,0.227h-1.007
					c-0.179,0-0.346-0.051-0.503-0.156c-0.157-0.104-0.235-0.209-0.235-0.313c0-0.067,0.025-0.127,0.073-0.179
					c0.048-0.052,0.107-0.077,0.177-0.077c0.056,0,0.131,0.036,0.227,0.107c0.095,0.072,0.183,0.107,0.262,0.107h1.007
					c0.069,0,0.13-0.025,0.183-0.077c0.053-0.052,0.079-0.113,0.079-0.185c0-0.054-0.015-0.102-0.045-0.147
					c-0.029-0.044-0.07-0.077-0.122-0.097l-1.375-0.599c-0.127-0.054-0.228-0.135-0.301-0.244c-0.074-0.108-0.11-0.228-0.11-0.356
					c0-0.184,0.064-0.34,0.193-0.469C313.229,224.789,313.386,224.725,313.568,224.725z"/>
				<path style="fill:#878787;" d="M317.338,224.725h1.083c0.167,0,0.319,0.053,0.457,0.155c0.138,0.103,0.207,0.208,0.207,0.315
					c0,0.072-0.025,0.133-0.075,0.182c-0.051,0.05-0.111,0.074-0.181,0.074c-0.063,0-0.132-0.035-0.204-0.107
					c-0.072-0.07-0.143-0.106-0.21-0.106h-1.077c-0.044,0-0.08,0.015-0.107,0.043c-0.028,0.028-0.042,0.067-0.042,0.118
					c0,0.021,0.009,0.044,0.026,0.068c0.018,0.023,0.04,0.041,0.066,0.053l1.384,0.59c0.147,0.065,0.263,0.162,0.349,0.291
					c0.086,0.127,0.128,0.271,0.128,0.43c0,0.213-0.076,0.395-0.229,0.547c-0.152,0.151-0.334,0.227-0.545,0.227h-1.006
					c-0.179,0-0.347-0.051-0.504-0.156c-0.156-0.104-0.234-0.209-0.234-0.313c0-0.067,0.023-0.127,0.072-0.179
					c0.049-0.052,0.108-0.077,0.178-0.077c0.056,0,0.131,0.036,0.227,0.107c0.095,0.072,0.182,0.107,0.262,0.107h1.006
					c0.07,0,0.131-0.025,0.184-0.077c0.053-0.052,0.079-0.113,0.079-0.185c0-0.054-0.015-0.102-0.045-0.147
					c-0.03-0.044-0.07-0.077-0.122-0.097l-1.376-0.599c-0.127-0.054-0.228-0.135-0.3-0.244c-0.074-0.108-0.111-0.228-0.111-0.356
					c0-0.184,0.065-0.34,0.194-0.469C316.999,224.789,317.154,224.725,317.338,224.725z"/>
			</g>
		</g>
		<g>
			<path style="fill:#1F95C5;" d="M262.704,197.09l-0.561,1.123c-0.057,0.113-0.119,0.17-0.188,0.17
				c0.057,0-0.201-0.124-0.773-0.374c-0.573-0.25-1.109-0.375-1.608-0.375c-1.066,0-1.599,0.442-1.599,1.327
				c0,0.386,0.192,0.72,0.578,1.004c0.215,0.17,0.666,0.419,1.353,0.749s1.205,0.624,1.557,0.885
				c0.976,0.726,1.463,1.673,1.463,2.841c0,1.078-0.343,1.946-1.029,2.603c-0.686,0.658-1.568,0.987-2.646,0.987
				c-0.794,0-1.605-0.136-2.433-0.408c-0.749-0.249-1.123-0.454-1.123-0.612c0-0.023,0.028-0.113,0.085-0.273l0.392-1.122
				c0.034-0.113,0.096-0.17,0.186-0.17c-0.079,0,0.222,0.125,0.902,0.374c0.68,0.249,1.321,0.374,1.922,0.374
				c1.021,0,1.531-0.521,1.531-1.565c0-0.624-0.363-1.134-1.089-1.531c-0.794-0.397-1.588-0.794-2.382-1.191
				c-0.986-0.601-1.479-1.48-1.479-2.637c0-1.157,0.38-2.041,1.14-2.654c0.657-0.544,1.525-0.817,2.603-0.817
				c0.736,0,1.485,0.136,2.245,0.408c0.691,0.25,1.038,0.46,1.038,0.63C262.789,196.892,262.761,196.977,262.704,197.09z"/>
			<path style="fill:#1F95C5;" d="M271.482,207.553l-1.293,0.425c-0.103,0.034-0.188,0.051-0.256,0.051
				c-0.182,0-0.362-0.335-0.544-1.003c-0.749,0.669-1.616,1.003-2.603,1.003c-1.475,0-2.212-0.828-2.212-2.484v-5.852
				c0-0.159,0.107-0.261,0.323-0.306l1.429-0.289c0.022,0,0.071-0.009,0.145-0.026c0.074-0.017,0.116-0.025,0.128-0.025
				c0.091,0,0.136,0.119,0.136,0.357v5.41c0,0.953,0.317,1.429,0.953,1.429c0.487,0,0.986-0.176,1.497-0.527v-6.023
				c0-0.159,0.107-0.261,0.323-0.306l1.429-0.289c0.012,0,0.057-0.009,0.137-0.026c0.079-0.017,0.13-0.025,0.152-0.025
				c0.08,0,0.119,0.119,0.119,0.357v5.308c0,0.964,0.055,1.656,0.162,2.076c0.107,0.419,0.162,0.612,0.162,0.578
				C271.67,207.445,271.607,207.508,271.482,207.553z"/>
			<path style="fill:#1F95C5;" d="M276.042,195.78v4.015c0.669-0.499,1.298-0.749,1.888-0.749c1.985,0,2.978,1.418,2.978,4.253
				c0,1.463-0.306,2.617-0.919,3.462c-0.611,0.845-1.48,1.267-2.603,1.267c-0.578,0-1.117-0.249-1.616-0.748
				c-0.182,0.499-0.346,0.748-0.493,0.748c-0.068,0-0.147-0.011-0.238-0.034l-1.361-0.34c-0.113-0.023-0.17-0.068-0.17-0.136
				c0-0.034,0.04-0.136,0.119-0.306c0.079-0.17,0.142-0.366,0.186-0.587c0.046-0.221,0.068-0.57,0.068-1.046v-9.51
				c0-0.159,0.107-0.261,0.323-0.307l1.43-0.289c0.023,0,0.065-0.008,0.127-0.025c0.063-0.017,0.1-0.025,0.11-0.025
				c0.068,0,0.113,0.022,0.137,0.068C276.03,195.536,276.042,195.633,276.042,195.78z M276.042,201.326v4.645
				c0.283,0.238,0.567,0.357,0.851,0.357c1.236,0,1.854-0.97,1.854-2.909c0-1.781-0.511-2.671-1.531-2.671
				C276.887,200.748,276.495,200.941,276.042,201.326z"/>
			<path style="fill:#1F95C5;" d="M288.121,200.101l-0.392,0.936c-0.034,0.08-0.079,0.13-0.136,0.153
				c0.067,0-0.131-0.073-0.596-0.221c-0.465-0.147-0.925-0.221-1.378-0.221c-0.749,0-1.123,0.272-1.123,0.817
				c0,0.352,0.306,0.641,0.919,0.868c0.975,0.363,1.582,0.624,1.82,0.783c0.76,0.499,1.14,1.191,1.14,2.076
				c0,0.794-0.264,1.449-0.791,1.965c-0.527,0.516-1.233,0.774-2.118,0.774c-0.636,0-1.327-0.127-2.076-0.383
				c-0.748-0.255-1.122-0.496-1.122-0.723c0,0.079,0.028,0.006,0.085-0.221l0.374-0.97c0.034-0.102,0.079-0.153,0.136-0.153
				c-0.057,0,0.227,0.125,0.852,0.374c0.623,0.25,1.15,0.374,1.582,0.374c0.691,0,1.037-0.283,1.037-0.85
				c0-0.386-0.42-0.743-1.259-1.072c-1.055-0.42-1.695-0.749-1.923-0.987c-0.408-0.431-0.611-0.964-0.611-1.599
				c0-0.794,0.277-1.455,0.833-1.982c0.556-0.527,1.282-0.791,2.178-0.791c0.544,0,1.123,0.091,1.735,0.272
				c0.612,0.181,0.919,0.369,0.919,0.561C288.206,199.892,288.178,199.965,288.121,200.101z"/>
			<path style="fill:#1F95C5;" d="M295.334,205.835l0.442,1.122c0.034,0.091,0.052,0.147,0.052,0.17c0,0.204-0.27,0.405-0.809,0.604
				c-0.539,0.198-1.069,0.297-1.591,0.297c-1.202,0-2.132-0.366-2.79-1.097c-0.658-0.731-0.986-1.806-0.986-3.224
				c0-1.452,0.349-2.591,1.046-3.419c0.697-0.828,1.67-1.242,2.918-1.242c0.499,0,1.015,0.108,1.548,0.323
				c0.578,0.227,0.867,0.465,0.867,0.715l-0.051,0.153l-0.629,1.106c-0.057,0.057-0.097,0.085-0.119,0.085
				c-0.727-0.454-1.266-0.681-1.616-0.681c-1.112,0-1.667,0.947-1.667,2.841c0,0.964,0.133,1.662,0.4,2.093
				c0.267,0.431,0.717,0.646,1.353,0.646c0.34,0,0.663-0.096,0.97-0.289c0.306-0.193,0.487-0.29,0.544-0.29
				C295.261,205.749,295.301,205.778,295.334,205.835z"/>
			<path style="fill:#1F95C5;" d="M299.554,201.82v5.682c0,0.159-0.079,0.238-0.238,0.238h-1.685c-0.158,0-0.238-0.079-0.238-0.238
				v-5.138c0-0.749-0.074-1.361-0.221-1.837c-0.147-0.477-0.222-0.72-0.222-0.732c0-0.057,0.052-0.107,0.153-0.153l1.293-0.527
				c0.182-0.046,0.256-0.068,0.221-0.068c0.103,0,0.222,0.15,0.357,0.451c0.137,0.3,0.228,0.598,0.272,0.893
				c0.363-0.454,0.658-0.766,0.885-0.936c0.374-0.272,0.782-0.408,1.225-0.408c0.249,0,0.476,0.037,0.68,0.111
				c0.205,0.074,0.307,0.168,0.307,0.281c0,0.068-0.012,0.124-0.034,0.17l-0.527,1.429c-0.034,0.102-0.079,0.153-0.136,0.153
				c-0.012,0-0.108-0.031-0.289-0.093c-0.182-0.063-0.352-0.094-0.511-0.094C300.495,201.003,300.065,201.275,299.554,201.82z"/>
			<path style="fill:#1F95C5;" d="M306.189,199.574v7.928c0,0.159-0.079,0.238-0.238,0.238h-1.685c-0.158,0-0.238-0.079-0.238-0.238
				v-6.584h-1.31c-0.159,0-0.238-0.079-0.238-0.238v-1.106c0-0.159,0.079-0.238,0.238-0.238h3.232
				C306.109,199.335,306.189,199.415,306.189,199.574z M306.495,196.818c0,0.386-0.137,0.717-0.409,0.995
				c-0.271,0.278-0.601,0.417-0.986,0.417c-0.386,0-0.717-0.139-0.995-0.417c-0.278-0.278-0.417-0.609-0.417-0.995
				c0-0.386,0.137-0.715,0.408-0.987c0.272-0.273,0.607-0.408,1.004-0.408c0.386,0,0.715,0.136,0.986,0.408
				C306.358,196.103,306.495,196.432,306.495,196.818z"/>
			<path style="fill:#1F95C5;" d="M311.02,195.78v4.015c0.67-0.499,1.299-0.749,1.889-0.749c1.985,0,2.978,1.418,2.978,4.253
				c0,1.463-0.306,2.617-0.919,3.462c-0.612,0.845-1.479,1.267-2.603,1.267c-0.579,0-1.117-0.249-1.616-0.748
				c-0.182,0.499-0.347,0.748-0.494,0.748c-0.067,0-0.147-0.011-0.237-0.034l-1.361-0.34c-0.113-0.023-0.17-0.068-0.17-0.136
				c0-0.034,0.039-0.136,0.119-0.306c0.079-0.17,0.142-0.366,0.186-0.587c0.045-0.221,0.068-0.57,0.068-1.046v-9.51
				c0-0.159,0.107-0.261,0.323-0.307l1.429-0.289c0.023,0,0.065-0.008,0.128-0.025c0.063-0.017,0.099-0.025,0.11-0.025
				c0.068,0,0.113,0.022,0.137,0.068C311.009,195.536,311.02,195.633,311.02,195.78z M311.02,201.326v4.645
				c0.284,0.238,0.567,0.357,0.852,0.357c1.235,0,1.854-0.97,1.854-2.909c0-1.781-0.51-2.671-1.531-2.671
				C311.865,200.748,311.474,200.941,311.02,201.326z"/>
			<path style="fill:#1F95C5;" d="M323.763,205.818l0.426,1.02c0.034,0.045,0.051,0.108,0.051,0.188c0,0.227-0.341,0.451-1.02,0.672
				c-0.681,0.221-1.355,0.331-2.025,0.331c-2.54,0-3.811-1.469-3.811-4.406c0-1.361,0.338-2.464,1.012-3.309
				c0.676-0.845,1.58-1.268,2.714-1.268c2.269,0,3.403,1.548,3.403,4.645c0,0.284-0.131,0.425-0.392,0.425h-4.577
				c0,1.418,0.624,2.127,1.872,2.127c0.487,0,1.208-0.187,2.161-0.561C323.666,205.682,323.728,205.727,323.763,205.818z
				 M319.543,202.534h2.672c0-1.27-0.408-1.905-1.225-1.905c-0.568,0-0.971,0.255-1.209,0.766
				C319.68,201.632,319.6,202.013,319.543,202.534z"/>
			<path style="fill:#1F95C5;" d="M329.615,206.601c0,0.385-0.142,0.72-0.426,1.003c-0.283,0.284-0.617,0.425-1.003,0.425
				c-0.409,0-0.752-0.142-1.029-0.425c-0.278-0.283-0.417-0.618-0.417-1.003c0-0.409,0.139-0.751,0.417-1.029
				c0.277-0.278,0.62-0.417,1.029-0.417c0.397,0,0.733,0.142,1.012,0.425C329.477,205.863,329.615,206.204,329.615,206.601z
				 M329.395,196.358l-0.375,6.652c-0.011,0.227-0.13,0.34-0.357,0.34h-0.969c-0.228,0-0.347-0.113-0.357-0.34l-0.375-6.652
				c-0.011-0.204-0.017-0.317-0.017-0.34c0-0.147,0.103-0.221,0.306-0.221h1.82c0.228,0,0.341,0.074,0.341,0.221
				C329.411,196.041,329.405,196.154,329.395,196.358z"/>
		</g>
	</g>
</g>
</svg>
